<svg 
xmlns="http://www.w3.org/2000/svg" 
width="1442" height="183" fill="none" 
viewBox="0 0 1442 183"><path fill="url(#paint0_linear)" fill-rule="evenodd" d="M 721.6 1 C 460.7 1 215.2 67.1 1 183.6 V 184 H 1443 C 1228.6 67.3 982.8 1 721.6 1 Z M 977.8 78.9 C 978 77.5 980 77.5 980.2 78.9 L 981.4 87.1 C 981.5 87.6 981.9 88 982.5 88.1 L 990.6 89.3 C 992 89.5 992 91.5 990.6 91.7 L 982.5 93 C 981.9 93.1 981.5 93.5 981.4 94 L 980.2 102.2 C 980 103.5 978 103.5 977.8 102.2 L 976.6 94 C 976.5 93.5 976.1 93.1 975.5 93 L 967.4 91.7 C 966 91.5 966 89.5 967.4 89.3 L 975.5 88.1 C 976.1 88 976.5 87.6 976.6 87.1 L 977.8 78.9 Z M 466.5 42.9 C 466.3 41.5 464.3 41.5 464.1 42.9 L 462.8 51.1 C 462.8 51.6 462.3 52 461.8 52.1 L 453.7 53.3 C 452.3 53.5 452.3 55.5 453.7 55.7 L 461.8 57 C 462.3 57.1 462.8 57.5 462.8 58 L 464.1 66.2 C 464.3 67.5 466.3 67.5 466.5 66.2 L 467.7 58 C 467.8 57.5 468.2 57.1 468.8 57 L 476.9 55.7 C 478.3 55.5 478.3 53.5 476.9 53.3 L 468.8 52.1 C 468.2 52 467.8 51.6 467.7 51.1 L 466.5 42.9 Z M 319.1 95.9 C 319.3 94.5 321.3 94.5 321.5 95.9 L 324.6 116.2 C 324.7 116.7 325.1 117.1 325.6 117.2 L 345.9 120.3 C 347.3 120.5 347.3 122.5 345.9 122.7 L 325.6 125.8 C 325.1 125.9 324.7 126.3 324.6 126.8 L 321.5 147.1 C 321.3 148.5 319.3 148.5 319.1 147.1 L 316 126.8 C 316 126.3 315.5 125.9 315 125.8 L 294.7 122.7 C 293.4 122.5 293.4 120.5 294.7 120.3 L 315 117.2 C 315.5 117.1 316 116.7 316 116.2 L 319.1 95.9 Z M 1044.1 48.9 C 1043.9 47.5 1041.9 47.5 1041.7 48.9 L 1040.6 56.2 C 1040.5 56.7 1040.1 57.1 1039.6 57.2 L 1032.3 58.3 C 1031 58.5 1031 60.5 1032.3 60.7 L 1039.6 61.8 C 1040.1 61.9 1040.5 62.3 1040.6 62.8 L 1041.7 70.1 C 1041.9 71.5 1043.9 71.5 1044.1 70.1 L 1045.2 62.8 C 1045.3 62.3 1045.7 61.9 1046.3 61.8 L 1053.5 60.7 C 1054.9 60.5 1054.9 58.5 1053.5 58.3 L 1046.3 57.2 C 1045.7 57.1 1045.3 56.7 1045.2 56.2 L 1044.1 48.9 Z M 1098.7 100.9 C 1098.9 99.5 1100.9 99.5 1101.1 100.9 L 1103.5 116.8 C 1103.6 117.4 1104 117.8 1104.5 117.9 L 1120.5 120.3 C 1121.9 120.5 1121.9 122.5 1120.5 122.7 L 1104.5 125.1 C 1104 125.2 1103.6 125.6 1103.5 126.2 L 1101.1 142.1 C 1100.9 143.5 1098.9 143.5 1098.7 142.1 L 1096.3 126.2 C 1096.2 125.6 1095.8 125.2 1095.3 125.1 L 1079.3 122.7 C 1077.9 122.5 1077.9 120.5 1079.3 120.3 L 1095.3 117.9 C 1095.8 117.8 1096.2 117.4 1096.3 116.8 L 1098.7 100.9 Z" clip-rule="evenodd"/><defs><linearGradient id="paint0_linear" x1="721" x2="721" y1="0" y2="183" gradientUnits="userSpaceOnUse"><stop stop-color="#cccc62" stop-opacity=".43"/><stop offset=".307" stop-color="#fff23c" stop-opacity=".21"/><stop offset="1" stop-color="#ffee00" stop-opacity="1"/></linearGradient></defs></svg>