<svg id="Layer_1" data-name="Layer 1" xmlns="http://www.w3.org/2000/svg" viewBox="0 0 1125 2436"><defs><style>.cls-1{fill:#b2ad04;}</style></defs><path class="cls-1" d="M163.05,568.74c2-6.87,11.81-11.3,21.81-9.9s16.46,8.11,14.42,15-11.81,11.3-21.81,9.9c-7.26-1-12.93-4.91-14.42-9.9H0v-5.07ZM754.63,690.59c2-6.87,11.81-11.3,21.81-9.9s16.46,8.11,14.42,15-11.81,11.3-21.81,9.9c-7.26-1-12.94-4.91-14.42-9.9H303.18v-5.07ZM968.34,573.81c-2,6.87-11.81,11.3-21.81,9.9s-16.46-8.1-14.42-15,11.81-11.3,21.81-9.9c7.27,1,12.94,4.91,14.42,9.9H1124v5.07Zm0,40.62c-2,6.87-11.81,11.3-21.81,9.9s-16.46-8.11-14.42-15,11.81-11.3,21.81-9.89c7.27,1,12.94,4.91,14.42,9.89H1124v5.08ZM991.26,325c2-6.87,11.81-11.3,21.82-9.9s16.45,8.11,14.41,15-11.81,11.3-21.81,9.89c-7.26-1-12.93-4.91-14.42-9.89H672.55c-2,6.87-11.81,11.3-21.81,9.89s-16.46-8.1-14.42-15,11.81-11.3,21.82-9.9c7.26,1,12.93,4.92,14.41,9.9ZM44.74,203.19c2-6.87,11.81-11.3,21.81-9.9S83,201.4,81,208.27s-11.8,11.3-21.81,9.9c-7.26-1-12.93-4.92-14.41-9.9H0v-5.08Zm687,86.31c-2,6.87-11.81,11.3-21.81,9.9s-16.46-8.11-14.42-15,11.81-11.3,21.81-9.89c7.26,1,12.94,4.91,14.42,9.89h318.71c2-6.86,11.81-11.3,21.81-9.89s16.46,8.1,14.42,15-11.81,11.3-21.81,9.9c-7.26-1-12.94-4.91-14.42-9.9ZM953.92,30.83c10,1.4,16.46,8.1,14.42,15s-11.81,11.3-21.81,9.9-16.46-8.11-14.42-15c1.48-5,7.16-8.88,14.42-9.89V.11h7.39Zm-236.63,528c10,1.4,16.46,8.1,14.42,15s-11.81,11.3-21.82,9.9-16.45-8.11-14.41-15c1.48-5,7.15-8.88,14.41-9.89V421.25c-10-1.4-16.45-8.11-14.41-15s11.81-11.29,21.81-9.89,16.46,8.1,14.42,15c-1.49,5-7.16,8.88-14.42,9.9ZM894.76,55.7V203.19H1124v5.08H887.37V55.7c-10-1.4-16.46-8.1-14.42-15s11.81-11.3,21.81-9.9,16.46,8.11,14.42,15C907.7,50.79,902,54.69,894.76,55.7Zm59.16,40.62v66.25H1124v5.08H946.53V96.32c-10-1.4-16.46-8.11-14.42-15s11.81-11.29,21.81-9.89,16.46,8.1,14.42,15C966.86,91.41,961.18,95.3,953.92,96.32ZM480.66,340v188.1h59.16v30.72c10,1.4,16.45,8.1,14.41,15s-11.81,11.3-21.81,9.9S516,575.6,518,568.73c1.48-5,7.15-8.88,14.41-9.89V533.2H473.26V340c-10-1.4-16.45-8.11-14.41-15s11.8-11.3,21.81-9.9,16.46,8.11,14.41,15c-1.48,5-7.15,8.88-14.41,9.9Zm-21.82-55.6c2.05-6.86,11.81-11.3,21.81-9.89s16.46,8.1,14.42,15-11.81,11.3-21.81,9.9c-7.26-1-12.93-4.91-14.42-9.9H421.5V411.35H317.6c-2,6.87-11.8,11.3-21.81,9.9s-16.45-8.11-14.41-15,11.8-11.3,21.81-9.9c7.26,1,12.93,4.92,14.41,9.9h96.51V284.42Zm-22.92,330c-2,6.87-11.81,11.3-21.81,9.9s-16.46-8.11-14.42-15,11.81-11.3,21.81-9.89c7.26,1,12.94,4.91,14.42,9.89H650.74V421.25c-10-1.4-16.46-8.11-14.42-15s11.81-11.29,21.81-9.89,16.46,8.1,14.42,15c-1.48,5-7.16,8.88-14.42,9.9V614.43ZM376.76,452c-2,6.86-11.81,11.3-21.81,9.89s-16.46-8.1-14.41-15,11.8-11.3,21.81-9.9c7.26,1,12.93,4.91,14.41,9.9H421.5V568.74h37.34c2.05-6.87,11.81-11.3,21.81-9.9s16.46,8.11,14.42,15-11.81,11.3-21.81,9.9c-7.26-1-12.93-4.91-14.42-9.9H414.11V452ZM244,721.3c10,1.4,16.45,8.11,14.41,15s-11.8,11.3-21.81,9.89-16.46-8.1-14.41-15c1.48-5,7.15-8.88,14.41-9.9V695.66H184.87v76.16h-7.4V690.59H244ZM873,446.89c2-6.87,11.81-11.3,21.81-9.9s16.46,8.11,14.42,15-11.81,11.3-21.82,9.89c-7.26-1-12.93-4.91-14.41-9.89H835.61V690.59h177.47v81.23h-7.4V695.66H828.21V446.89Zm95.39-76.16c-2,6.87-11.81,11.3-21.81,9.9s-16.46-8.11-14.42-15,11.81-11.3,21.81-9.9c7.27,1,12.94,4.91,14.42,9.9h44.74V477.6c10,1.41,16.46,8.11,14.41,15s-11.8,11.3-21.81,9.9-16.45-8.11-14.41-15c1.48-5,7.15-8.88,14.41-9.9V370.73ZM731.71,614.43c-2,6.87-11.81,11.3-21.81,9.9s-16.46-8.11-14.42-15,11.81-11.3,21.81-9.89c7.26,1,12.94,4.91,14.42,9.89h37.34V406.27h59.16V370.73H672.55c-2,6.87-11.81,11.3-21.81,9.9s-16.46-8.11-14.42-15,11.81-11.3,21.82-9.9c7.26,1,12.93,4.91,14.41,9.9H835.61v45.69H776.45V614.43ZM1050.42,81.34c2-6.87,11.81-11.3,21.81-9.9s16.46,8.11,14.42,15-11.81,11.3-21.81,9.9c-7.26-1-12.94-4.92-14.42-9.9h-44.74V.11h7.4V81.34ZM362.34,258.78v112h-163c-2,6.87-11.81,11.3-21.81,9.9s-16.46-8.11-14.42-15,11.81-11.3,21.81-9.9c7.26,1,12.94,4.91,14.42,9.9H355V258.78c-10-1.4-16.46-8.1-14.42-15s11.81-11.3,21.81-9.9,16.46,8.11,14.42,15C375.28,253.87,369.6,257.77,362.34,258.78Zm-163-172.36c-2,6.87-11.81,11.3-21.81,9.9s-16.46-8.11-14.42-15,11.81-11.3,21.81-9.9c7.26,1,12.94,4.92,14.42,9.9h96.5V.11h7.39V86.42Zm222.21,9.9v71.33H303.18V330.12H258.45c-2.05,6.87-11.81,11.3-21.81,9.89s-16.46-8.1-14.42-15,11.81-11.3,21.81-9.9c7.26,1,12.93,4.92,14.42,9.9h37.34V162.57H414.11V96.32c-10-1.4-16.46-8.11-14.42-15s11.81-11.29,21.81-9.89,16.46,8.1,14.42,15C434.43,91.41,428.76,95.3,421.5,96.32Zm-44.74,112c-2,6.87-11.81,11.3-21.81,9.9s-16.46-8.11-14.41-15,11.8-11.3,21.81-9.9c7.26,1,12.93,4.92,14.41,9.9h96.5V96.32c-10-1.4-16.45-8.11-14.41-15s11.8-11.29,21.81-9.89,16.46,8.1,14.41,15c-1.48,5-7.15,8.88-14.41,9.9v112ZM435.92,45.8c-2,6.87-11.81,11.3-21.81,9.9s-16.46-8.11-14.42-15,11.81-11.3,21.81-9.9c7.26,1,12.94,4.91,14.42,9.9h103.9V152.67c10,1.41,16.45,8.11,14.41,15s-11.81,11.3-21.81,9.9-16.46-8.11-14.41-15c1.48-5,7.15-8.88,14.41-9.9V45.8ZM813.79,731.2c2-6.87,11.81-11.3,21.81-9.89s16.46,8.1,14.42,15-11.81,11.3-21.81,9.9c-7.26-1-12.94-4.92-14.42-9.9H362.34v35.54H355V731.2Zm81-350.57v25.64h59.16v86.31H894.76V650h177.48V771.82h-7.4V655.05H887.37V487.5h59.16V411.35H887.37V380.63c-10-1.4-16.46-8.1-14.42-15s11.81-11.3,21.81-9.9,16.46,8.11,14.42,15C907.7,375.72,902,379.62,894.76,380.63ZM199.29,45.8c-2,6.87-11.81,11.3-21.81,9.9s-16.46-8.11-14.42-15,11.81-11.3,21.81-9.9c7.26,1,12.94,4.91,14.42,9.9h37.34V5.19H177.47V.11H244V45.8ZM613.39,127c-2,6.86-11.8,11.3-21.81,9.89s-16.46-8.1-14.41-15,11.8-11.3,21.81-9.9c7.26,1,12.93,4.91,14.41,9.9h96.5V.11H894.76V5.19H717.29V127ZM435.92,5.19c-2,6.87-11.81,11.3-21.81,9.9S397.64,7,399.69.11h7.65c-2,4,1,8.32,6.78,9.71s12.11-.69,14.15-4.66a5.43,5.43,0,0,0,0-5H658.13V86.42H591.58V55.7c-10-1.4-16.46-8.1-14.42-15S589,29.43,599,30.83s16.46,8.11,14.42,15c-1.48,5-7.16,8.88-14.42,9.89V81.34h51.77V5.19Zm0,243.69c-2,6.87-11.81,11.3-21.81,9.9s-16.46-8.1-14.42-15,11.81-11.3,21.81-9.9c7.26,1,12.94,4.91,14.42,9.9h70.62l118.32-81.24H769.05V55.7c-10-1.4-16.46-8.1-14.41-15s11.8-11.3,21.81-9.9,16.46,8.11,14.41,15c-1.48,5-7.15,8.88-14.41,9.89v112H627.92L509.61,248.88ZM539.82,477.6c10,1.41,16.45,8.11,14.41,15s-11.81,11.3-21.81,9.9S516,494.37,518,487.5c1.48-5,7.15-8.88,14.41-9.9V283.38l116.8-80.19h179V55.7c-10-1.4-16.46-8.1-14.42-15s11.81-11.3,21.82-9.9,16.45,8.11,14.41,15c-1.48,5-7.15,8.88-14.41,9.89V208.27H652.25L539.82,285.46ZM599,558.84c10,1.4,16.46,8.1,14.42,15s-11.81,11.3-21.81,9.9-16.46-8.11-14.42-15c1.48-5,7.16-8.88,14.42-9.89V306.23l90.92-62.42h427.08c1.48-5,7.16-8.89,14.42-9.9v5.25c-5.78,1.4-8.82,5.75-6.78,9.71,1.11,2.18,3.61,3.89,6.78,4.66v5.25c-7.26-1-12.94-4.91-14.42-9.9h-424L599,308.31ZM66.55,396.37c10,1.4,16.46,8.11,14.42,15s-11.81,11.3-21.81,9.89-16.46-8.1-14.42-15c1.48-5,7.16-8.88,14.42-9.9v-8.91L236.63,265.61V122H355V.11h7.39V127H244V267.69L66.55,389.54ZM184.87,136.94V247.39L7.39,369.24V528.12H103.9c2-6.87,11.8-11.3,21.81-9.9s16.45,8.11,14.41,15-11.8,11.3-21.81,9.9c-7.26-1-12.93-4.92-14.41-9.9H0V367.15L177.47,245.3V136.94c-10-1.41-16.45-8.11-14.41-15s11.8-11.3,21.81-9.9,16.46,8.11,14.41,15C197.8,132,192.13,135.92,184.87,136.94Zm-59.16,40.61v49.53L0,313.39v-7.16L118.32,225V177.55c-10-1.4-16.46-8.1-14.42-15s11.81-11.3,21.81-9.9,16.46,8.11,14.42,15C138.64,172.64,133,176.53,125.71,177.55Zm-81-96.21c2-6.87,11.81-11.3,21.81-9.9S83,79.55,81,86.42s-11.8,11.3-21.81,9.9c-7.26-1-12.93-4.92-14.41-9.9h-10L0,110.31v-7.14L31.76,81.34ZM1027.5,127c-2,6.86-11.81,11.3-21.81,9.89s-16.46-8.1-14.42-15,11.81-11.3,21.81-9.9c7.26,1,12.94,4.91,14.42,9.9h69.1l27.4-18.81v7.16L1099.63,127ZM968.34,533.2c-2,6.87-11.81,11.3-21.81,9.9s-16.46-8.11-14.42-15,11.81-11.3,21.81-9.9c7.27,1,12.94,4.92,14.42,9.9h96.5V346.85L1124,306.23v7.16l-51.76,35.54V533.2ZM199.29,614.43c-2,6.87-11.81,11.3-21.81,9.9s-16.46-8.11-14.42-15,11.81-11.3,21.81-9.89c7.26,1,12.94,4.91,14.42,9.89h37.34V552l-86.55-59.43H81c-2,6.87-11.8,11.3-21.81,9.9s-16.46-8.11-14.41-15,11.8-11.29,21.81-9.89c7.26,1,12.93,4.91,14.41,9.89h72.14L244,549.93v64.5ZM754.63,650c2-6.87,11.81-11.3,21.81-9.9s16.46,8.11,14.42,15-11.81,11.3-21.81,9.89c-7.26-1-12.94-4.91-14.42-9.89H355V511.37l-145.68-100H140.13c-2,6.87-11.81,11.3-21.81,9.9s-16.46-8.11-14.42-15,11.81-11.3,21.81-9.9c7.26,1,12.94,4.92,14.42,9.9h72.1L362.34,509.34V650Zm-555.34,5.08c-2,6.87-11.81,11.3-21.81,9.89s-16.46-8.1-14.42-15,11.81-11.3,21.81-9.9c7.26,1,12.94,4.92,14.42,9.9h96.5V531.7L179.66,452H81c-2,6.86-11.8,11.3-21.81,9.89s-16.46-8.1-14.41-15,11.8-11.3,21.81-9.9c7.26,1,12.93,4.91,14.41,9.9H182.69l120.49,82.73V655.05ZM125.71,101.14v4.09L34.79,167.65H0v-5.08H31.76l86.56-59.42V.11h7.39ZM7.39,761.92c7.27,1,12.94,4.91,14.42,9.9H14.16c-2-4-8.37-6.05-14.15-4.65H0V650H66.55V771.82H59.16V655.05H7.39Zm118.32-150V771.82h-7.39V614.43H0v-5.08H125.71ZM62.86,45.8H0V40.73H59.16V.11h7.39V45.8Zm1009.38-5.07H1124V45.8h-59.16V.11h7.4Zm-118.32,693v38.08h-7.39V736.28H894.76v35.54h-7.39V731.2h66.55ZM0,233.91c10.05-1.38,19.83,3.1,21.83,10a8.76,8.76,0,0,1,.35,2.43c0,7-8.27,12.69-18.48,12.69a25.38,25.38,0,0,1-3.7-.26v-5.25c5.78,1.4,12.11-.69,14.14-4.66s-1-8.31-6.78-9.71a16.05,16.05,0,0,0-7.36,0ZM295.79,690.59h7.39v81.23h-7.39Zm140.13,81.23h-7.65c-2-4-8.37-6.05-14.15-4.66-3.17.77-5.67,2.48-6.78,4.66h-7.65c2-6.87,11.79-11.31,21.79-9.91C428.76,762.92,434.44,766.82,435.92,771.82ZM21.81.11c2,6.9-4.54,13.61-14.59,15a27.27,27.27,0,0,1-7.22,0V9.83c5.77,1.41,12.11-.67,14.16-4.63a5.4,5.4,0,0,0,0-5.09Zm1087.77,0h7.65c-2,4,1,8.32,6.76,9.72h0v5.26c-10-1.4-16.46-8.11-14.42-15ZM1124,761.92v5.25c-3.16.77-5.65,2.48-6.77,4.65h-7.65C1111.06,766.83,1116.74,762.94,1124,761.92ZM358.64,254c6.13,0,11.1-3.41,11.1-7.61s-5-7.62-11.1-7.62-11.09,3.41-11.09,7.62S352.52,254,358.64,254Zm0-40.61c6.13,0,11.1-3.41,11.1-7.62s-5-7.62-11.1-7.62-11.09,3.41-11.09,7.62S352.52,213.35,358.64,213.35ZM417.8,254c6.13,0,11.09-3.41,11.09-7.61s-5-7.62-11.09-7.62-11.09,3.41-11.09,7.62S411.68,254,417.8,254ZM477,294.58c6.13,0,11.09-3.41,11.09-7.62s-5-7.61-11.09-7.61-11.09,3.41-11.09,7.61S470.83,294.58,477,294.58Zm0,40.61c6.13,0,11.09-3.41,11.09-7.61S483.09,320,477,320s-11.09,3.41-11.09,7.62S470.83,335.19,477,335.19ZM299.49,416.43c6.12,0,11.09-3.41,11.09-7.62s-5-7.61-11.09-7.61-11.1,3.4-11.1,7.61S293.36,416.43,299.49,416.43ZM358.64,457c6.13,0,11.1-3.41,11.1-7.61s-5-7.62-11.1-7.62-11.09,3.41-11.09,7.62S352.52,457,358.64,457ZM477,578.89c6.13,0,11.09-3.41,11.09-7.61s-5-7.62-11.09-7.62-11.09,3.41-11.09,7.62S470.83,578.89,477,578.89ZM417.8,619.51c6.13,0,11.09-3.41,11.09-7.62s-5-7.61-11.09-7.61-11.09,3.41-11.09,7.61S411.68,619.51,417.8,619.51Zm118.32-40.62c6.12,0,11.09-3.41,11.09-7.61s-5-7.62-11.09-7.62S525,567.07,525,571.28,530,578.89,536.12,578.89Zm0-81.23c6.12,0,11.09-3.41,11.09-7.62s-5-7.61-11.09-7.61S525,485.84,525,490,530,497.66,536.12,497.66Zm59.16,81.23c6.12,0,11.09-3.41,11.09-7.61s-5-7.62-11.09-7.62-11.1,3.41-11.1,7.62S589.15,578.89,595.28,578.89Zm118.31,40.62c6.13,0,11.09-3.41,11.09-7.62s-5-7.61-11.09-7.61-11.09,3.41-11.09,7.61S707.47,619.51,713.59,619.51Zm0-40.62c6.13,0,11.09-3.41,11.09-7.61s-5-7.62-11.09-7.62-11.09,3.41-11.09,7.62S707.47,578.89,713.59,578.89ZM654.43,416.43c6.13,0,11.1-3.41,11.1-7.62s-5-7.61-11.1-7.61-11.09,3.4-11.09,7.61S648.31,416.43,654.43,416.43Zm59.16,0c6.13,0,11.09-3.41,11.09-7.62s-5-7.61-11.09-7.61-11.09,3.4-11.09,7.61S707.47,416.43,713.59,416.43Zm59.16,243.69c6.13,0,11.09-3.41,11.09-7.61s-5-7.62-11.09-7.62-11.09,3.41-11.09,7.62S766.62,660.12,772.75,660.12Zm0,40.62c6.13,0,11.09-3.41,11.09-7.62s-5-7.61-11.09-7.61-11.09,3.41-11.09,7.61S766.62,700.74,772.75,700.74Zm59.16,40.62c6.12,0,11.09-3.41,11.09-7.62s-5-7.61-11.09-7.61h0c-6.13,0-11.09,3.41-11.09,7.61S825.78,741.36,831.91,741.36Zm59.16-365.55c6.12,0,11.09-3.41,11.09-7.62s-5-7.61-11.09-7.61S880,364,880,368.19,884.94,375.81,891.07,375.81Zm0,81.23c6.12,0,11.09-3.41,11.09-7.61s-5-7.62-11.09-7.62-11.1,3.41-11.1,7.62S884.94,457,891.07,457Zm59.15-81.23c6.13,0,11.1-3.41,11.1-7.62s-5-7.61-11.1-7.61-11.09,3.41-11.09,7.61S944.1,375.81,950.22,375.81Zm59.16-40.62c6.13,0,11.09-3.41,11.09-7.61s-5-7.62-11.09-7.62-11.09,3.41-11.09,7.62S1003.26,335.19,1009.38,335.19Zm-355,0c6.13,0,11.1-3.41,11.1-7.61s-5-7.62-11.1-7.62-11.09,3.41-11.09,7.62S648.31,335.19,654.43,335.19Zm0,40.62c6.13,0,11.1-3.41,11.1-7.62s-5-7.61-11.1-7.61-11.09,3.41-11.09,7.61S648.31,375.81,654.43,375.81Zm59.16-81.23c6.13,0,11.09-3.41,11.09-7.62s-5-7.61-11.09-7.61S702.5,282.76,702.5,287,707.47,294.58,713.59,294.58Zm354.95,0c6.13,0,11.09-3.41,11.09-7.62s-5-7.61-11.09-7.61-11.09,3.41-11.09,7.61S1062.41,294.58,1068.54,294.58Zm-59.16-162.47c6.13,0,11.09-3.41,11.09-7.61s-5-7.62-11.09-7.62-11.09,3.41-11.09,7.62S1003.26,132.11,1009.38,132.11Zm59.16-40.61c6.13,0,11.09-3.41,11.09-7.62s-5-7.61-11.09-7.61-11.09,3.4-11.09,7.61S1062.41,91.5,1068.54,91.5Zm-118.32,0c6.13,0,11.1-3.41,11.1-7.62s-5-7.61-11.1-7.61-11.09,3.4-11.09,7.61S944.1,91.5,950.22,91.5Zm0-40.62c6.13,0,11.1-3.41,11.1-7.62s-5-7.61-11.1-7.61-11.09,3.41-11.09,7.61S944.1,50.88,950.22,50.88Zm-59.15,0c6.12,0,11.09-3.41,11.09-7.62s-5-7.61-11.09-7.61S880,39.06,880,43.26,884.94,50.88,891.07,50.88Zm-59.16,0c6.12,0,11.09-3.41,11.09-7.62s-5-7.61-11.09-7.61h0c-6.13,0-11.09,3.41-11.09,7.61S825.78,50.88,831.91,50.88Zm-59.16,0c6.13,0,11.09-3.41,11.09-7.62s-5-7.61-11.09-7.61-11.09,3.41-11.09,7.61S766.62,50.88,772.75,50.88ZM181.17,91.5c6.13,0,11.09-3.41,11.09-7.62s-5-7.61-11.09-7.61-11.09,3.4-11.09,7.61S175.05,91.5,181.17,91.5Zm-118.31,0C69,91.5,74,88.09,74,83.88s-5-7.61-11.09-7.61-11.1,3.4-11.1,7.61S56.73,91.5,62.86,91.5Zm118.31,40.61c6.13,0,11.09-3.41,11.09-7.61s-5-7.62-11.09-7.62-11.09,3.41-11.09,7.62S175.05,132.11,181.17,132.11ZM122,172.73c6.13,0,11.1-3.41,11.1-7.62s-5-7.61-11.1-7.61-11.09,3.41-11.09,7.61S115.89,172.73,122,172.73ZM181.17,50.88c6.13,0,11.09-3.41,11.09-7.62s-5-7.61-11.09-7.61-11.09,3.41-11.09,7.61S175.05,50.88,181.17,50.88Zm0,609.24c6.13,0,11.09-3.41,11.09-7.61s-5-7.62-11.09-7.62-11.09,3.41-11.09,7.62S175.05,660.12,181.17,660.12Zm59.16,81.24c6.12,0,11.09-3.41,11.09-7.62s-5-7.61-11.09-7.61-11.09,3.41-11.09,7.61S234.2,741.36,240.33,741.36ZM181.17,578.89c6.13,0,11.09-3.41,11.09-7.61s-5-7.62-11.09-7.62-11.09,3.41-11.09,7.62S175.05,578.89,181.17,578.89Zm0,40.62c6.13,0,11.09-3.41,11.09-7.62s-5-7.61-11.09-7.61-11.09,3.41-11.09,7.61S175.05,619.51,181.17,619.51ZM122,538.28c6.13,0,11.1-3.41,11.1-7.62s-5-7.62-11.1-7.62-11.09,3.41-11.09,7.62S115.89,538.28,122,538.28ZM417.8,91.5c6.13,0,11.09-3.41,11.09-7.62s-5-7.61-11.09-7.61-11.09,3.4-11.09,7.61S411.68,91.5,417.8,91.5Zm59.16,0c6.13,0,11.09-3.41,11.09-7.62s-5-7.61-11.09-7.61-11.09,3.4-11.09,7.61S470.83,91.5,477,91.5ZM417.8,50.88c6.13,0,11.09-3.41,11.09-7.62s-5-7.61-11.09-7.61-11.09,3.41-11.09,7.61S411.68,50.88,417.8,50.88ZM536.12,172.73c6.12,0,11.09-3.41,11.09-7.62s-5-7.61-11.09-7.61S525,160.91,525,165.11,530,172.73,536.12,172.73Zm59.16-40.62c6.12,0,11.09-3.41,11.09-7.61s-5-7.62-11.09-7.62-11.1,3.41-11.1,7.62S589.15,132.11,595.28,132.11Zm0-81.23c6.12,0,11.09-3.41,11.09-7.62s-5-7.61-11.09-7.61-11.1,3.41-11.1,7.61S589.15,50.88,595.28,50.88Zm414.1,446.78c6.13,0,11.09-3.41,11.09-7.62s-5-7.61-11.09-7.61-11.09,3.41-11.09,7.61S1003.26,497.66,1009.38,497.66Zm-59.16,40.62c6.13,0,11.1-3.41,11.1-7.62s-5-7.62-11.1-7.62-11.09,3.41-11.09,7.62S944.1,538.28,950.22,538.28Zm0,40.61c6.13,0,11.1-3.41,11.1-7.61s-5-7.62-11.1-7.62-11.09,3.41-11.09,7.62S944.1,578.89,950.22,578.89Zm0,40.62c6.13,0,11.1-3.41,11.1-7.62s-5-7.61-11.1-7.61-11.09,3.41-11.09,7.61S944.1,619.51,950.22,619.51ZM62.86,457C69,457,74,453.63,74,449.43s-5-7.62-11.09-7.62-11.1,3.41-11.1,7.62S56.73,457,62.86,457Zm0,40.62C69,497.66,74,494.25,74,490s-5-7.61-11.09-7.61-11.1,3.41-11.1,7.61S56.73,497.66,62.86,497.66Zm0-81.23C69,416.43,74,413,74,408.81s-5-7.61-11.09-7.61-11.1,3.4-11.1,7.61S56.73,416.43,62.86,416.43Zm59.15,0c6.13,0,11.1-3.41,11.1-7.62s-5-7.61-11.1-7.61-11.09,3.4-11.09,7.61S115.89,416.43,122,416.43ZM62.86,213.35c6.12,0,11.09-3.41,11.09-7.62s-5-7.62-11.09-7.62-11.1,3.41-11.1,7.62S56.73,213.35,62.86,213.35ZM181.17,375.81c6.13,0,11.09-3.41,11.09-7.62s-5-7.61-11.09-7.61-11.09,3.41-11.09,7.61S175.05,375.81,181.17,375.81Zm59.16-40.62c6.12,0,11.09-3.41,11.09-7.61s-5-7.62-11.09-7.62-11.09,3.41-11.09,7.62S234.2,335.19,240.33,335.19Z"/><path class="cls-1" d="M163.05,2112.92c2-6.87,11.81-11.3,21.81-9.9s16.46,8.11,14.42,15-11.81,11.3-21.81,9.89c-7.26-1-12.93-4.91-14.42-9.89H0v-5.08Zm591.58,121.85c2-6.87,11.81-11.3,21.81-9.9s16.46,8.11,14.42,15-11.81,11.3-21.81,9.9c-7.26-1-12.94-4.91-14.42-9.9H303.18v-5.07ZM968.34,2118c-2,6.86-11.81,11.3-21.81,9.89s-16.46-8.1-14.42-15,11.81-11.3,21.81-9.9c7.27,1,12.94,4.91,14.42,9.9H1124V2118Zm0,40.61c-2,6.87-11.81,11.3-21.81,9.9s-16.46-8.11-14.42-15,11.81-11.29,21.81-9.89c7.27,1,12.94,4.91,14.42,9.89H1124v5.08Zm22.92-289.39c2-6.87,11.81-11.3,21.82-9.9s16.45,8.11,14.41,15-11.81,11.3-21.81,9.9c-7.26-1-12.93-4.92-14.42-9.9H672.55c-2,6.87-11.81,11.3-21.81,9.9s-16.46-8.11-14.42-15,11.81-11.3,21.82-9.9c7.26,1,12.93,4.92,14.41,9.9ZM44.74,1747.37c2-6.87,11.81-11.3,21.81-9.9s16.46,8.11,14.41,15-11.8,11.3-21.81,9.9c-7.26-1-12.93-4.92-14.41-9.9H0v-5.08Zm687,86.31c-2,6.87-11.81,11.3-21.81,9.9s-16.46-8.11-14.42-15,11.81-11.29,21.81-9.89c7.26,1,12.94,4.91,14.42,9.89h318.71c2-6.86,11.81-11.29,21.81-9.89s16.46,8.1,14.42,15-11.81,11.3-21.81,9.9c-7.26-1-12.94-4.91-14.42-9.9ZM953.92,1575c10,1.4,16.46,8.1,14.42,15s-11.81,11.3-21.81,9.9-16.46-8.11-14.42-15c1.48-5,7.16-8.88,14.42-9.89v-30.72h7.39ZM717.29,2103c10,1.4,16.46,8.1,14.42,15s-11.81,11.3-21.82,9.9-16.45-8.11-14.41-15c1.48-5,7.15-8.88,14.41-9.9V1965.43c-10-1.4-16.45-8.11-14.41-15s11.81-11.3,21.81-9.9,16.46,8.1,14.42,15c-1.49,5-7.16,8.88-14.42,9.9Zm177.47-503.14v147.49H1124v5.08H887.37V1599.88c-10-1.4-16.46-8.1-14.42-15s11.81-11.3,21.81-9.9,16.46,8.11,14.42,15C907.7,1595,902,1598.87,894.76,1599.88Zm59.16,40.62v66.26H1124v5.07H946.53V1640.5c-10-1.4-16.46-8.11-14.42-15s11.81-11.3,21.81-9.9,16.46,8.1,14.42,15C966.86,1635.59,961.18,1639.48,953.92,1640.5ZM480.66,1884.2v188.1h59.16V2103c10,1.4,16.45,8.1,14.41,15s-11.81,11.3-21.81,9.9-16.46-8.11-14.41-15c1.48-5,7.15-8.88,14.41-9.9v-25.64H473.26V1884.2c-10-1.4-16.45-8.11-14.41-15s11.8-11.3,21.81-9.89,16.46,8.1,14.41,15c-1.48,5-7.15,8.88-14.41,9.9Zm-21.82-55.6c2.05-6.86,11.81-11.29,21.81-9.89s16.46,8.1,14.42,15-11.81,11.3-21.81,9.9c-7.26-1-12.93-4.91-14.42-9.9H421.5v121.85H317.6c-2,6.87-11.8,11.3-21.81,9.9s-16.45-8.11-14.41-15,11.8-11.3,21.81-9.89c7.26,1,12.93,4.91,14.41,9.89h96.51V1828.6Zm-22.92,330c-2,6.87-11.81,11.3-21.81,9.9s-16.46-8.11-14.42-15,11.81-11.29,21.81-9.89c7.26,1,12.94,4.91,14.42,9.89H650.74v-188.1c-10-1.4-16.46-8.11-14.42-15s11.81-11.3,21.81-9.9,16.46,8.1,14.42,15c-1.48,5-7.16,8.88-14.42,9.9v193.18Zm-59.16-162.46c-2,6.87-11.81,11.3-21.81,9.89s-16.46-8.1-14.41-15,11.8-11.3,21.81-9.9c7.26,1,12.93,4.92,14.41,9.9H421.5v121.85h37.34c2.05-6.87,11.81-11.3,21.81-9.9s16.46,8.11,14.42,15-11.81,11.3-21.81,9.89c-7.26-1-12.93-4.91-14.42-9.89H414.11V1996.15ZM244,2265.48c10,1.41,16.45,8.11,14.41,15s-11.8,11.3-21.81,9.9-16.46-8.11-14.41-15c1.48-5,7.15-8.88,14.41-9.9v-25.64H184.87V2316h-7.4v-81.23H244ZM873,1991.07c2-6.87,11.81-11.3,21.81-9.9s16.46,8.11,14.42,15-11.81,11.3-21.82,9.89c-7.26-1-12.93-4.91-14.41-9.89H835.61v238.62h177.47V2316h-7.4v-76.16H828.21V1991.07Zm95.39-76.16c-2,6.87-11.81,11.3-21.81,9.9s-16.46-8.1-14.42-15,11.81-11.3,21.81-9.9c7.27,1,12.94,4.91,14.42,9.9h44.74v112c10,1.4,16.46,8.1,14.41,15s-11.8,11.3-21.81,9.9-16.45-8.11-14.41-15c1.48-5,7.15-8.88,14.41-9.89V1914.91Zm-236.63,243.7c-2,6.87-11.81,11.3-21.81,9.9s-16.46-8.11-14.42-15,11.81-11.29,21.81-9.89c7.26,1,12.94,4.91,14.42,9.89h37.34V1950.45h59.16v-35.54H672.55c-2,6.87-11.81,11.3-21.81,9.9s-16.46-8.1-14.42-15,11.81-11.3,21.82-9.9c7.26,1,12.93,4.91,14.41,9.9H835.61v45.69H776.45v203.08Zm318.71-533.09c2-6.87,11.81-11.3,21.81-9.89s16.46,8.1,14.42,15-11.81,11.3-21.81,9.9c-7.26-1-12.94-4.92-14.42-9.9h-44.74v-86.31h7.4v81.23ZM362.34,1803v111.94h-163c-2,6.87-11.81,11.3-21.81,9.9s-16.46-8.1-14.42-15,11.81-11.3,21.81-9.9c7.26,1,12.94,4.91,14.42,9.9H355V1803c-10-1.41-16.46-8.11-14.42-15s11.81-11.3,21.81-9.9,16.46,8.11,14.42,15C375.28,1798.05,369.6,1802,362.34,1803Zm-163-172.37c-2,6.87-11.81,11.3-21.81,9.9s-16.46-8.11-14.42-15,11.81-11.3,21.81-9.89c7.26,1,12.94,4.91,14.42,9.89h96.5v-81.23h7.39v86.31Zm222.21,9.9v71.33H303.18V1874.3H258.45c-2.05,6.87-11.81,11.3-21.81,9.9s-16.46-8.11-14.42-15,11.81-11.3,21.81-9.9c7.26,1,12.93,4.92,14.42,9.9h37.34V1706.76H414.11V1640.5c-10-1.4-16.46-8.11-14.42-15s11.81-11.3,21.81-9.9,16.46,8.1,14.42,15C434.43,1635.59,428.76,1639.48,421.5,1640.5Zm-44.74,112c-2,6.87-11.81,11.3-21.81,9.9s-16.46-8.11-14.41-15,11.8-11.3,21.81-9.9c7.26,1,12.93,4.92,14.41,9.9h96.5V1640.5c-10-1.4-16.45-8.11-14.41-15s11.8-11.3,21.81-9.9,16.46,8.1,14.41,15c-1.48,5-7.15,8.88-14.41,9.9v112ZM435.92,1590c-2,6.87-11.81,11.3-21.81,9.9s-16.46-8.1-14.42-15,11.81-11.3,21.81-9.9c7.26,1,12.94,4.91,14.42,9.9h103.9v111.95c10,1.4,16.45,8.1,14.41,15s-11.81,11.3-21.81,9.9-16.46-8.11-14.41-15c1.48-5,7.15-8.88,14.41-9.89V1590Zm377.87,685.4c2-6.86,11.81-11.3,21.81-9.89s16.46,8.1,14.42,15-11.81,11.3-21.81,9.9c-7.26-1-12.94-4.91-14.42-9.9H362.34V2316H355v-40.62Zm81-350.57v25.64h59.16v86.31H894.76v157.39h177.48V2316h-7.4V2199.23H887.37V2031.69h59.16v-76.16H887.37v-30.72c-10-1.4-16.46-8.1-14.42-15s11.81-11.3,21.81-9.9,16.46,8.11,14.42,15C907.7,1919.9,902,1923.8,894.76,1924.81ZM199.29,1590c-2,6.87-11.81,11.3-21.81,9.9s-16.46-8.1-14.42-15,11.81-11.3,21.81-9.9c7.26,1,12.94,4.91,14.42,9.9h37.34v-35.54H177.47v-5.08H244V1590Zm414.1,81.24c-2,6.86-11.8,11.3-21.81,9.89s-16.46-8.1-14.41-15,11.8-11.3,21.81-9.9c7.26,1,12.93,4.91,14.41,9.9h96.5V1544.29H894.76v5.08H717.29v121.85ZM435.92,1549.37c-2,6.87-11.81,11.3-21.81,9.9s-16.47-8.11-14.42-15h7.65c-2,4,1,8.32,6.78,9.71s12.11-.69,14.15-4.65a5.45,5.45,0,0,0,0-5.06H658.13v86.31H591.58v-30.72c-10-1.4-16.46-8.1-14.42-15S589,1573.61,599,1575s16.46,8.11,14.42,15c-1.48,5-7.16,8.88-14.42,9.89v25.64h51.77v-76.15Zm0,243.7c-2,6.86-11.81,11.29-21.81,9.89s-16.46-8.1-14.42-15,11.81-11.3,21.81-9.9c7.26,1,12.94,4.91,14.42,9.9h70.62l118.32-81.23H769.05V1599.88c-10-1.4-16.46-8.1-14.41-15s11.8-11.3,21.81-9.9,16.46,8.11,14.41,15c-1.48,5-7.15,8.88-14.41,9.89v111.95H627.92l-118.31,81.24Zm103.9,228.72c10,1.4,16.45,8.1,14.41,15s-11.81,11.3-21.81,9.9-16.46-8.11-14.41-15c1.48-5,7.15-8.88,14.41-9.89V1827.56l116.8-80.19h179V1599.88c-10-1.4-16.46-8.1-14.42-15s11.81-11.3,21.82-9.9,16.45,8.11,14.41,15c-1.48,5-7.15,8.88-14.41,9.89v152.57H652.25l-112.43,77.2ZM599,2103c10,1.4,16.46,8.1,14.42,15s-11.81,11.3-21.81,9.9-16.46-8.11-14.42-15c1.48-5,7.16-8.88,14.42-9.9V1850.41L682.5,1788h427.08c1.48-5,7.16-8.88,14.42-9.9v5.25c-5.78,1.4-8.82,5.75-6.78,9.71,1.11,2.18,3.61,3.89,6.78,4.66V1803c-7.26-1-12.94-4.92-14.42-9.9h-424L599,1852.49ZM66.55,1940.55c10,1.41,16.46,8.11,14.42,15s-11.81,11.3-21.81,9.9-16.46-8.11-14.42-15c1.48-5,7.16-8.88,14.42-9.9v-8.91l177.47-121.85V1666.14H355V1544.29h7.39v126.93H244v140.66L66.55,1933.72Zm118.32-259.43v110.45L7.39,1913.42V2072.3H103.9c2-6.87,11.8-11.3,21.81-9.9s16.45,8.11,14.41,15-11.8,11.3-21.81,9.9c-7.26-1-12.93-4.92-14.41-9.9H0V1911.33l177.47-121.84V1681.12c-10-1.41-16.45-8.11-14.41-15s11.8-11.3,21.81-9.9,16.46,8.11,14.41,15C197.8,1676.2,192.13,1680.1,184.87,1681.12Zm-59.16,40.61v49.53L0,1857.57v-7.16l118.32-81.23v-47.45c-10-1.4-16.46-8.1-14.42-15s11.81-11.3,21.81-9.9,16.46,8.11,14.42,15C138.64,1716.82,133,1720.72,125.71,1721.73Zm-81-96.21c2-6.87,11.81-11.3,21.81-9.89s16.46,8.1,14.41,15-11.8,11.3-21.81,9.9c-7.26-1-12.93-4.92-14.41-9.9h-10L0,1654.49v-7.14l31.76-21.83Zm982.76,45.7c-2,6.86-11.81,11.3-21.81,9.89s-16.46-8.1-14.42-15,11.81-11.3,21.81-9.9c7.26,1,12.94,4.91,14.42,9.9h69.1l27.4-18.81v7.16l-24.37,16.73Zm-59.16,406.16c-2,6.87-11.81,11.3-21.81,9.9s-16.46-8.11-14.42-15,11.81-11.3,21.81-9.9c7.27,1,12.94,4.92,14.42,9.9h96.5V1891l59.16-40.62v7.16l-51.76,35.54v184.27Zm-769.05,81.23c-2,6.87-11.81,11.3-21.81,9.9s-16.46-8.11-14.42-15,11.81-11.29,21.81-9.89c7.26,1,12.94,4.91,14.42,9.89h37.34v-57.34l-86.55-59.43H81c-2,6.87-11.8,11.3-21.81,9.9s-16.46-8.11-14.41-15,11.8-11.3,21.81-9.9c7.26,1,12.93,4.91,14.41,9.9h72.14L244,2094.11v64.5Zm555.34,35.54c2-6.87,11.81-11.3,21.81-9.9s16.46,8.11,14.42,15-11.81,11.3-21.81,9.9c-7.26-1-12.94-4.92-14.42-9.9H355V2055.55l-145.68-100H140.13c-2,6.87-11.81,11.3-21.81,9.9s-16.46-8.11-14.42-15,11.81-11.3,21.81-9.89c7.26,1,12.94,4.91,14.42,9.89h72.1l150.11,103.07v140.63Zm-555.34,5.08c-2,6.87-11.81,11.3-21.81,9.9s-16.46-8.11-14.42-15,11.81-11.3,21.81-9.9c7.26,1,12.94,4.92,14.42,9.9h96.5V2075.88l-116.13-79.73H81c-2,6.87-11.8,11.3-21.81,9.89s-16.46-8.1-14.41-15,11.8-11.3,21.81-9.9c7.26,1,12.93,4.92,14.41,9.9H182.69l120.49,82.73v125.43Zm-73.58-553.91v4.09l-90.92,62.42H0v-5.07H31.76l86.56-59.43v-103h7.39ZM7.39,2306.1c7.27,1,12.94,4.91,14.42,9.9H14.16c-2-4-8.37-6.05-14.15-4.65H0v-117.2H66.55V2316H59.16V2199.23H7.39Zm118.32-150V2316h-7.39V2158.61H0v-5.08H125.71ZM62.86,1590H0v-5.07H59.16v-40.62h7.39V1590Zm1009.38-5.07H1124V1590h-59.16v-45.69h7.4Zm-118.32,693V2316h-7.39v-35.54H894.76V2316h-7.39v-40.62h66.55ZM0,1778.09c10.05-1.38,19.83,3.11,21.83,10a8.76,8.76,0,0,1,.35,2.43c0,7-8.27,12.69-18.48,12.69A26.85,26.85,0,0,1,0,1803v-5.26c5.78,1.4,12.11-.69,14.14-4.66s-1-8.31-6.78-9.71a16.05,16.05,0,0,0-7.36,0Zm295.79,456.68h7.39V2316h-7.39ZM435.92,2316h-7.65c-2-4-8.37-6.05-14.15-4.66-3.17.77-5.67,2.48-6.78,4.66h-7.65c2-6.87,11.79-11.31,21.79-9.91C428.76,2307.1,434.44,2311,435.92,2316ZM21.81,1544.29c2,6.9-4.54,13.61-14.59,15a27.27,27.27,0,0,1-7.22,0V1554c5.77,1.41,12.11-.67,14.16-4.63a5.4,5.4,0,0,0,0-5.09Zm1087.77,0h7.65c-2,4,1,8.32,6.76,9.72h0v5.26c-10-1.4-16.46-8.11-14.42-15ZM1124,2306.1v5.25c-3.16.77-5.65,2.48-6.77,4.65h-7.65C1111.06,2311,1116.74,2307.12,1124,2306.1Zm-765.36-508c6.13,0,11.1-3.41,11.1-7.61s-5-7.62-11.1-7.62-11.09,3.41-11.09,7.62S352.52,1798.14,358.64,1798.14Zm0-40.61c6.13,0,11.1-3.41,11.1-7.62s-5-7.61-11.1-7.61-11.09,3.4-11.09,7.61S352.52,1757.53,358.64,1757.53Zm59.16,40.61c6.13,0,11.09-3.41,11.09-7.61s-5-7.62-11.09-7.62-11.09,3.41-11.09,7.62S411.68,1798.14,417.8,1798.14ZM477,1838.76c6.13,0,11.09-3.41,11.09-7.62s-5-7.61-11.09-7.61-11.09,3.41-11.09,7.61S470.83,1838.76,477,1838.76Zm0,40.61c6.13,0,11.09-3.4,11.09-7.61s-5-7.62-11.09-7.62-11.09,3.41-11.09,7.62S470.83,1879.37,477,1879.37Zm-177.47,81.24c6.12,0,11.09-3.41,11.09-7.62s-5-7.61-11.09-7.61-11.1,3.41-11.1,7.61S293.36,1960.61,299.49,1960.61Zm59.15,40.61c6.13,0,11.1-3.41,11.1-7.61s-5-7.62-11.1-7.62-11.09,3.41-11.09,7.62S352.52,2001.22,358.64,2001.22ZM477,2123.07c6.13,0,11.09-3.41,11.09-7.61s-5-7.62-11.09-7.62-11.09,3.41-11.09,7.62S470.83,2123.07,477,2123.07Zm-59.16,40.62c6.13,0,11.09-3.41,11.09-7.62s-5-7.61-11.09-7.61-11.09,3.41-11.09,7.61S411.68,2163.69,417.8,2163.69Zm118.32-40.62c6.12,0,11.09-3.41,11.09-7.61s-5-7.62-11.09-7.62-11.09,3.41-11.09,7.62S530,2123.07,536.12,2123.07Zm0-81.23c6.12,0,11.09-3.41,11.09-7.62s-5-7.61-11.09-7.61S525,2030,525,2034.22,530,2041.84,536.12,2041.84Zm59.16,81.23c6.12,0,11.09-3.41,11.09-7.61s-5-7.62-11.09-7.62-11.1,3.41-11.1,7.62S589.15,2123.07,595.28,2123.07Zm118.31,40.62c6.13,0,11.09-3.41,11.09-7.62s-5-7.61-11.09-7.61-11.09,3.41-11.09,7.61S707.47,2163.69,713.59,2163.69Zm0-40.62c6.13,0,11.09-3.41,11.09-7.61s-5-7.62-11.09-7.62-11.09,3.41-11.09,7.62S707.47,2123.07,713.59,2123.07Zm-59.16-162.46c6.13,0,11.1-3.41,11.1-7.62s-5-7.61-11.1-7.61-11.09,3.41-11.09,7.61S648.31,1960.61,654.43,1960.61Zm59.16,0c6.13,0,11.09-3.41,11.09-7.62s-5-7.61-11.09-7.61-11.09,3.41-11.09,7.61S707.47,1960.61,713.59,1960.61Zm59.16,243.7c6.13,0,11.09-3.41,11.09-7.62s-5-7.62-11.09-7.62-11.09,3.41-11.09,7.62S766.62,2204.31,772.75,2204.31Zm0,40.61c6.13,0,11.09-3.41,11.09-7.61s-5-7.62-11.09-7.62-11.09,3.41-11.09,7.62S766.62,2244.92,772.75,2244.92Zm59.16,40.62c6.12,0,11.09-3.41,11.09-7.62s-5-7.61-11.09-7.61h0c-6.13,0-11.09,3.41-11.09,7.61S825.78,2285.54,831.91,2285.54ZM891.07,1920c6.12,0,11.09-3.41,11.09-7.61s-5-7.62-11.09-7.62-11.1,3.41-11.1,7.62S884.94,1920,891.07,1920Zm0,81.23c6.12,0,11.09-3.41,11.09-7.61s-5-7.62-11.09-7.62-11.1,3.41-11.1,7.62S884.94,2001.22,891.07,2001.22ZM950.22,1920c6.13,0,11.1-3.41,11.1-7.61s-5-7.62-11.1-7.62-11.09,3.41-11.09,7.62S944.1,1920,950.22,1920Zm59.16-40.62c6.13,0,11.09-3.4,11.09-7.61s-5-7.62-11.09-7.62-11.09,3.41-11.09,7.62S1003.26,1879.37,1009.38,1879.37Zm-355,0c6.13,0,11.1-3.4,11.1-7.61s-5-7.62-11.1-7.62-11.09,3.41-11.09,7.62S648.31,1879.37,654.43,1879.37Zm0,40.62c6.13,0,11.1-3.41,11.1-7.61s-5-7.62-11.1-7.62-11.09,3.41-11.09,7.62S648.31,1920,654.43,1920Zm59.16-81.23c6.13,0,11.09-3.41,11.09-7.62s-5-7.61-11.09-7.61-11.09,3.41-11.09,7.61S707.47,1838.76,713.59,1838.76Zm354.95,0c6.13,0,11.09-3.41,11.09-7.62s-5-7.61-11.09-7.61-11.09,3.41-11.09,7.61S1062.41,1838.76,1068.54,1838.76Zm-59.16-162.47c6.13,0,11.09-3.41,11.09-7.61s-5-7.62-11.09-7.62-11.09,3.41-11.09,7.62S1003.26,1676.29,1009.38,1676.29Zm59.16-40.61c6.13,0,11.09-3.41,11.09-7.62s-5-7.61-11.09-7.61-11.09,3.41-11.09,7.61S1062.41,1635.68,1068.54,1635.68Zm-118.32,0c6.13,0,11.1-3.41,11.1-7.62s-5-7.61-11.1-7.61-11.09,3.41-11.09,7.61S944.1,1635.68,950.22,1635.68Zm0-40.62c6.13,0,11.1-3.41,11.1-7.61s-5-7.62-11.1-7.62-11.09,3.41-11.09,7.62S944.1,1595.06,950.22,1595.06Zm-59.15,0c6.12,0,11.09-3.41,11.09-7.61s-5-7.62-11.09-7.62-11.1,3.41-11.1,7.62S884.94,1595.06,891.07,1595.06Zm-59.16,0c6.12,0,11.09-3.41,11.09-7.61s-5-7.62-11.09-7.62h0c-6.13,0-11.09,3.41-11.09,7.62S825.78,1595.06,831.91,1595.06Zm-59.16,0c6.13,0,11.09-3.41,11.09-7.61s-5-7.62-11.09-7.62-11.09,3.41-11.09,7.62S766.62,1595.06,772.75,1595.06Zm-591.58,40.62c6.13,0,11.09-3.41,11.09-7.62s-5-7.61-11.09-7.61-11.09,3.41-11.09,7.61S175.05,1635.68,181.17,1635.68Zm-118.31,0c6.12,0,11.09-3.41,11.09-7.62s-5-7.61-11.09-7.61-11.1,3.41-11.1,7.61S56.73,1635.68,62.86,1635.68Zm118.31,40.61c6.13,0,11.09-3.41,11.09-7.61s-5-7.62-11.09-7.62-11.09,3.41-11.09,7.62S175.05,1676.29,181.17,1676.29ZM122,1716.91c6.13,0,11.1-3.41,11.1-7.62s-5-7.61-11.1-7.61-11.09,3.41-11.09,7.61S115.89,1716.91,122,1716.91Zm59.16-121.85c6.13,0,11.09-3.41,11.09-7.61s-5-7.62-11.09-7.62-11.09,3.41-11.09,7.62S175.05,1595.06,181.17,1595.06Zm0,609.25c6.13,0,11.09-3.41,11.09-7.62s-5-7.62-11.09-7.62-11.09,3.41-11.09,7.62S175.05,2204.31,181.17,2204.31Zm59.16,81.23c6.12,0,11.09-3.41,11.09-7.62s-5-7.61-11.09-7.61-11.09,3.41-11.09,7.61S234.2,2285.54,240.33,2285.54Zm-59.16-162.47c6.13,0,11.09-3.41,11.09-7.61s-5-7.62-11.09-7.62-11.09,3.41-11.09,7.62S175.05,2123.07,181.17,2123.07Zm0,40.62c6.13,0,11.09-3.41,11.09-7.62s-5-7.61-11.09-7.61-11.09,3.41-11.09,7.61S175.05,2163.69,181.17,2163.69ZM122,2082.46c6.13,0,11.1-3.41,11.1-7.62s-5-7.61-11.1-7.61-11.09,3.4-11.09,7.61S115.89,2082.46,122,2082.46ZM417.8,1635.68c6.13,0,11.09-3.41,11.09-7.62s-5-7.61-11.09-7.61-11.09,3.41-11.09,7.61S411.68,1635.68,417.8,1635.68Zm59.16,0c6.13,0,11.09-3.41,11.09-7.62s-5-7.61-11.09-7.61-11.09,3.41-11.09,7.61S470.83,1635.68,477,1635.68Zm-59.16-40.62c6.13,0,11.09-3.41,11.09-7.61s-5-7.62-11.09-7.62-11.09,3.41-11.09,7.62S411.68,1595.06,417.8,1595.06Zm118.32,121.85c6.12,0,11.09-3.41,11.09-7.62s-5-7.61-11.09-7.61-11.09,3.41-11.09,7.61S530,1716.91,536.12,1716.91Zm59.16-40.62c6.12,0,11.09-3.41,11.09-7.61s-5-7.62-11.09-7.62-11.1,3.41-11.1,7.62S589.15,1676.29,595.28,1676.29Zm0-81.23c6.12,0,11.09-3.41,11.09-7.61s-5-7.62-11.09-7.62-11.1,3.41-11.1,7.62S589.15,1595.06,595.28,1595.06Zm414.1,446.78c6.13,0,11.09-3.41,11.09-7.62s-5-7.61-11.09-7.61-11.09,3.41-11.09,7.61S1003.26,2041.84,1009.38,2041.84Zm-59.16,40.62c6.13,0,11.1-3.41,11.1-7.62s-5-7.61-11.1-7.61-11.09,3.4-11.09,7.61S944.1,2082.46,950.22,2082.46Zm0,40.61c6.13,0,11.1-3.41,11.1-7.61s-5-7.62-11.1-7.62-11.09,3.41-11.09,7.62S944.1,2123.07,950.22,2123.07Zm0,40.62c6.13,0,11.1-3.41,11.1-7.62s-5-7.61-11.1-7.61-11.09,3.41-11.09,7.61S944.1,2163.69,950.22,2163.69ZM62.86,2001.22c6.12,0,11.09-3.41,11.09-7.61S69,1986,62.86,1986s-11.1,3.41-11.1,7.62S56.73,2001.22,62.86,2001.22Zm0,40.62c6.12,0,11.09-3.41,11.09-7.62s-5-7.61-11.09-7.61-11.1,3.41-11.1,7.61S56.73,2041.84,62.86,2041.84Zm0-81.23C69,1960.61,74,1957.2,74,1953s-5-7.61-11.09-7.61-11.1,3.41-11.1,7.61S56.73,1960.61,62.86,1960.61Zm59.15,0c6.13,0,11.1-3.41,11.1-7.62s-5-7.61-11.1-7.61-11.09,3.41-11.09,7.61S115.89,1960.61,122,1960.61ZM62.86,1757.53c6.12,0,11.09-3.41,11.09-7.62s-5-7.61-11.09-7.61-11.1,3.4-11.1,7.61S56.73,1757.53,62.86,1757.53ZM181.17,1920c6.13,0,11.09-3.41,11.09-7.61s-5-7.62-11.09-7.62-11.09,3.41-11.09,7.62S175.05,1920,181.17,1920Zm59.16-40.62c6.12,0,11.09-3.4,11.09-7.61s-5-7.62-11.09-7.62-11.09,3.41-11.09,7.62S234.2,1879.37,240.33,1879.37Z"/><path class="cls-1" d="M163.05,1340.77c2-6.87,11.81-11.3,21.81-9.89s16.46,8.1,14.42,15-11.81,11.3-21.81,9.9c-7.26-1-12.93-4.92-14.42-9.9H0v-5.08Zm591.58,121.85c2-6.87,11.81-11.3,21.81-9.9s16.46,8.11,14.42,15-11.81,11.3-21.81,9.9c-7.26-1-12.94-4.92-14.42-9.9H303.18v-5.08Zm213.71-116.77c-2,6.87-11.81,11.3-21.81,9.9s-16.46-8.11-14.42-15,11.81-11.3,21.81-9.89c7.27,1,12.94,4.91,14.42,9.89H1124v5.08Zm0,40.62c-2,6.86-11.81,11.3-21.81,9.89s-16.46-8.1-14.42-15,11.81-11.3,21.81-9.9c7.27,1,12.94,4.91,14.42,9.9H1124v5.08Zm22.92-289.39c2-6.87,11.81-11.3,21.82-9.9s16.45,8.1,14.41,15-11.81,11.3-21.81,9.9c-7.26-1-12.93-4.91-14.42-9.9H672.55c-2,6.87-11.81,11.3-21.81,9.9s-16.46-8.11-14.42-15,11.81-11.3,21.82-9.9c7.26,1,12.93,4.91,14.41,9.9ZM44.74,975.23c2-6.87,11.81-11.3,21.81-9.9S83,973.44,81,980.3s-11.8,11.3-21.81,9.9c-7.26-1-12.93-4.91-14.41-9.9H0v-5.07Zm687,86.31c-2,6.86-11.81,11.3-21.81,9.89s-16.46-8.1-14.42-15,11.81-11.3,21.81-9.9c7.26,1,12.94,4.91,14.42,9.9h318.71c2-6.87,11.81-11.3,21.81-9.9s16.46,8.11,14.42,15-11.81,11.3-21.81,9.89c-7.26-1-12.94-4.91-14.42-9.89ZM953.92,802.86c10,1.4,16.46,8.11,14.42,15s-11.81,11.3-21.81,9.89-16.46-8.1-14.42-15c1.48-5,7.16-8.88,14.42-9.9V772.15h7.39Zm-236.63,528c10,1.41,16.46,8.11,14.42,15s-11.81,11.3-21.82,9.9-16.45-8.11-14.41-15c1.48-5,7.15-8.88,14.41-9.9V1193.29c-10-1.41-16.45-8.11-14.41-15s11.81-11.3,21.81-9.9,16.46,8.11,14.42,15c-1.49,5-7.16,8.88-14.42,9.9ZM894.76,827.74V975.23H1124v5.07H887.37V827.74c-10-1.4-16.46-8.11-14.42-15s11.81-11.3,21.81-9.89,16.46,8.1,14.42,15C907.7,822.83,902,826.72,894.76,827.74Zm59.16,40.62v66.25H1124v5.08H946.53V868.36c-10-1.41-16.46-8.11-14.42-15s11.81-11.3,21.81-9.9,16.46,8.11,14.42,15C966.86,863.44,961.18,867.34,953.92,868.36ZM480.66,1112.05v188.11h59.16v30.71c10,1.41,16.45,8.11,14.41,15s-11.81,11.3-21.81,9.9-16.46-8.11-14.41-15c1.48-5,7.15-8.88,14.41-9.9v-25.64H473.26V1112.05c-10-1.4-16.45-8.1-14.41-15s11.8-11.3,21.81-9.9,16.46,8.11,14.41,15c-1.48,5-7.15,8.88-14.41,9.89Zm-21.82-55.59c2.05-6.87,11.81-11.3,21.81-9.9s16.46,8.11,14.42,15-11.81,11.3-21.81,9.89c-7.26-1-12.93-4.91-14.42-9.89H421.5v121.85H317.6c-2,6.86-11.8,11.29-21.81,9.89s-16.45-8.1-14.41-15,11.8-11.3,21.81-9.9c7.26,1,12.93,4.91,14.41,9.9h96.51V1056.46Zm-22.92,330c-2,6.86-11.81,11.3-21.81,9.89s-16.46-8.1-14.42-15,11.81-11.3,21.81-9.9c7.26,1,12.94,4.91,14.42,9.9H650.74v-188.1c-10-1.41-16.46-8.11-14.42-15s11.81-11.3,21.81-9.9,16.46,8.11,14.42,15c-1.48,5-7.16,8.88-14.42,9.9v193.18ZM376.76,1224c-2,6.87-11.81,11.3-21.81,9.9s-16.46-8.11-14.41-15,11.8-11.3,21.81-9.89c7.26,1,12.93,4.91,14.41,9.89H421.5v121.85h37.34c2.05-6.87,11.81-11.3,21.81-9.89s16.46,8.1,14.42,15-11.81,11.3-21.81,9.9c-7.26-1-12.93-4.92-14.42-9.9H414.11V1224ZM244,1493.34c10,1.4,16.45,8.1,14.41,15s-11.8,11.3-21.81,9.9-16.46-8.11-14.41-15c1.48-5,7.15-8.88,14.41-9.9V1467.7H184.87v76.15h-7.4v-81.23H244ZM873,1218.92c2-6.86,11.81-11.3,21.81-9.89s16.46,8.1,14.42,15-11.81,11.3-21.82,9.9c-7.26-1-12.93-4.91-14.41-9.9H835.61v238.62h177.47v81.23h-7.4V1467.7H828.21V1218.92Zm95.39-76.15c-2,6.87-11.81,11.3-21.81,9.9s-16.46-8.11-14.42-15,11.81-11.3,21.81-9.9c7.27,1,12.94,4.92,14.42,9.9h44.74v112c10,1.4,16.46,8.11,14.41,15s-11.8,11.29-21.81,9.89-16.45-8.1-14.41-15c1.48-5,7.15-8.88,14.41-9.9V1142.77Zm-236.63,243.7c-2,6.86-11.81,11.3-21.81,9.89s-16.46-8.1-14.42-15,11.81-11.3,21.81-9.9c7.26,1,12.94,4.91,14.42,9.9h37.34V1178.31h59.16v-35.54H672.55c-2,6.87-11.81,11.3-21.81,9.9s-16.46-8.11-14.42-15,11.81-11.3,21.82-9.9c7.26,1,12.93,4.92,14.41,9.9H835.61v45.7H776.45v203.08Zm318.71-533.09c2-6.87,11.81-11.3,21.81-9.9s16.46,8.11,14.42,15-11.81,11.3-21.81,9.9c-7.26-1-12.94-4.91-14.42-9.9h-44.74v-86.3h7.4v81.23ZM362.34,1030.82v112h-163c-2,6.87-11.81,11.3-21.81,9.9s-16.46-8.11-14.42-15,11.81-11.3,21.81-9.9c7.26,1,12.94,4.92,14.42,9.9H355V1030.82c-10-1.4-16.46-8.11-14.42-15s11.81-11.3,21.81-9.9,16.46,8.1,14.42,15C375.28,1025.91,369.6,1029.8,362.34,1030.82Zm-163-172.37c-2,6.87-11.81,11.3-21.81,9.9s-16.46-8.1-14.42-15,11.81-11.3,21.81-9.9c7.26,1,12.94,4.91,14.42,9.9h96.5V772.15h7.39v86.3Zm222.21,9.91v71.33H303.18v162.46H258.45c-2.05,6.87-11.81,11.3-21.81,9.9s-16.46-8.11-14.42-15,11.81-11.3,21.81-9.9c7.26,1,12.93,4.91,14.42,9.9h37.34V934.61H414.11V868.36c-10-1.41-16.46-8.11-14.42-15s11.81-11.3,21.81-9.9,16.46,8.11,14.42,15C434.43,863.44,428.76,867.34,421.5,868.36ZM376.76,980.3c-2,6.87-11.81,11.3-21.81,9.9s-16.46-8.1-14.41-15,11.8-11.3,21.81-9.9c7.26,1,12.93,4.91,14.41,9.9h96.5V868.36c-10-1.41-16.45-8.11-14.41-15s11.8-11.3,21.81-9.9,16.46,8.11,14.41,15c-1.48,5-7.15,8.88-14.41,9.9V980.3Zm59.16-162.46c-2,6.87-11.81,11.3-21.81,9.9s-16.46-8.11-14.42-15,11.81-11.3,21.81-9.9c7.26,1,12.94,4.92,14.42,9.9h103.9v112c10,1.4,16.45,8.11,14.41,15s-11.81,11.3-21.81,9.9-16.46-8.1-14.41-15c1.48-5,7.15-8.88,14.41-9.9V817.84Zm377.87,685.4c2-6.87,11.81-11.3,21.81-9.9s16.46,8.11,14.42,15-11.81,11.3-21.81,9.89c-7.26-1-12.94-4.91-14.42-9.89H362.34v35.53H355v-40.61Zm81-350.57v25.64h59.16v86.31H894.76V1422h177.48v121.84h-7.4V1427.08H887.37V1259.54h59.16v-76.15H887.37v-30.72c-10-1.4-16.46-8.11-14.42-15s11.81-11.3,21.81-9.89,16.46,8.1,14.42,15C907.7,1147.76,902,1151.65,894.76,1152.67ZM199.29,817.84c-2,6.87-11.81,11.3-21.81,9.9s-16.46-8.11-14.42-15,11.81-11.3,21.81-9.9c7.26,1,12.94,4.92,14.42,9.9h37.34V777.22H177.47v-5.07H244v45.69Zm414.1,81.23c-2,6.87-11.8,11.3-21.81,9.9s-16.46-8.11-14.41-15S589,882.69,599,884.1c7.26,1,12.93,4.91,14.41,9.89h96.5V772.15H894.76v5.07H717.29V899.07ZM435.92,777.22c-2,6.87-11.81,11.3-21.81,9.9s-16.47-8.1-14.42-15h7.65c-2,4,1,8.31,6.78,9.71s12.11-.69,14.15-4.66a5.43,5.43,0,0,0,0-5.05H658.13v86.3H591.58V827.74c-10-1.4-16.46-8.11-14.42-15S589,801.46,599,802.87s16.46,8.1,14.42,15c-1.48,5-7.16,8.88-14.42,9.9v25.64h51.77V777.22Zm0,243.7c-2,6.87-11.81,11.3-21.81,9.9s-16.46-8.11-14.42-15,11.81-11.3,21.81-9.89c7.26,1,12.94,4.91,14.42,9.89h70.62l118.32-81.23H769.05V827.74c-10-1.4-16.46-8.11-14.41-15s11.8-11.3,21.81-9.89,16.46,8.1,14.41,15c-1.48,5-7.15,8.88-14.41,9.9v112H627.92l-118.31,81.23Zm103.9,228.72c10,1.4,16.45,8.11,14.41,15s-11.81,11.29-21.81,9.89-16.46-8.1-14.41-15c1.48-5,7.15-8.88,14.41-9.9V1055.42l116.8-80.19h179V827.74c-10-1.4-16.46-8.11-14.42-15s11.81-11.3,21.82-9.89,16.45,8.1,14.41,15c-1.48,5-7.15,8.88-14.41,9.9V980.3H652.25l-112.43,77.2ZM599,1330.87c10,1.41,16.46,8.11,14.42,15s-11.81,11.3-21.81,9.9-16.46-8.11-14.42-15c1.48-5,7.16-8.88,14.42-9.9v-252.6l90.92-62.43h427.08c1.48-5,7.16-8.88,14.42-9.9v5.26c-5.78,1.39-8.82,5.74-6.78,9.71,1.11,2.18,3.61,3.89,6.78,4.66v5.25c-7.26-1-12.94-4.91-14.42-9.9h-424L599,1080.35ZM66.55,1168.41c10,1.4,16.46,8.1,14.42,15s-11.81,11.3-21.81,9.9-16.46-8.11-14.42-15c1.48-5,7.16-8.88,14.42-9.9v-8.91l177.47-121.85V894H355V772.15h7.39V899.07H244v140.66L66.55,1161.58ZM184.87,909v110.45L7.39,1141.27v158.89H103.9c2-6.87,11.8-11.3,21.81-9.9s16.45,8.11,14.41,15-11.8,11.3-21.81,9.9c-7.26-1-12.93-4.91-14.41-9.9H0v-166l177.47-121.85V909c-10-1.4-16.45-8.1-14.41-15s11.8-11.3,21.81-9.9,16.46,8.11,14.41,15C197.8,904.06,192.13,908,184.87,909Zm-59.16,40.62v49.52L0,1085.42v-7.15L118.32,997V949.59c-10-1.4-16.46-8.11-14.42-15s11.81-11.3,21.81-9.89,16.46,8.1,14.42,15C138.64,944.67,133,948.57,125.71,949.59Zm-81-96.21c2-6.87,11.81-11.3,21.81-9.9S83,851.59,81,858.45s-11.8,11.3-21.81,9.9c-7.26-1-12.93-4.91-14.41-9.9h-10L0,882.34v-7.13l31.76-21.83Zm982.76,45.69c-2,6.87-11.81,11.3-21.81,9.9s-16.46-8.11-14.42-15,11.81-11.3,21.81-9.89c7.26,1,12.94,4.91,14.42,9.89h69.1l27.4-18.81v7.16l-24.37,16.73Zm-59.16,406.16c-2,6.87-11.81,11.3-21.81,9.9s-16.46-8.1-14.42-15,11.81-11.3,21.81-9.9c7.27,1,12.94,4.91,14.42,9.9h96.5V1118.88l59.16-40.61v7.15L1072.24,1121v184.27Zm-769.05,81.24c-2,6.86-11.81,11.3-21.81,9.89s-16.46-8.1-14.42-15,11.81-11.3,21.81-9.9c7.26,1,12.94,4.91,14.42,9.9h37.34V1324l-86.55-59.42H81c-2,6.87-11.8,11.3-21.81,9.9s-16.46-8.11-14.41-15,11.8-11.3,21.81-9.9c7.26,1,12.93,4.92,14.41,9.9h72.14L244,1322v64.51ZM754.63,1422c2-6.87,11.81-11.3,21.81-9.9s16.46,8.1,14.42,15-11.81,11.3-21.81,9.9c-7.26-1-12.94-4.91-14.42-9.9H355V1283.4l-145.68-100H140.13c-2,6.86-11.81,11.29-21.81,9.89s-16.46-8.1-14.42-15,11.81-11.3,21.81-9.9c7.26,1,12.94,4.91,14.42,9.9h72.1l150.11,103.06V1422Zm-555.34,5.07c-2,6.87-11.81,11.3-21.81,9.9s-16.46-8.11-14.42-15,11.81-11.3,21.81-9.9c7.26,1,12.94,4.91,14.42,9.9h96.5V1303.74L179.66,1224H81c-2,6.87-11.8,11.3-21.81,9.9s-16.46-8.11-14.41-15,11.8-11.3,21.81-9.89c7.26,1,12.93,4.91,14.41,9.89H182.69l120.49,82.73v125.43Zm-73.58-553.9v4.09L34.79,939.69H0v-5.08H31.76l86.56-59.43v-103h7.39ZM7.39,1534c7.27,1,12.94,4.92,14.42,9.9H14.16c-2-4-8.37-6-14.15-4.64H0V1422H66.55v121.84H59.16V1427.08H7.39Zm118.32-150v159.92h-7.39V1386.47H0v-5.08H125.71ZM62.86,817.84H0v-5.08H59.16V772.15h7.39v45.69Zm1009.38-5.08H1124v5.08h-59.16V772.15h7.4Zm-118.32,693v38.07h-7.39v-35.53H894.76v35.53h-7.39v-40.61h66.55ZM0,1005.94c10.05-1.37,19.83,3.11,21.83,10a8.81,8.81,0,0,1,.35,2.43c0,7-8.27,12.7-18.48,12.7a26.85,26.85,0,0,1-3.7-.26v-5.25c5.78,1.39,12.11-.69,14.14-4.66s-1-8.32-6.78-9.71a15.78,15.78,0,0,0-7.36,0Zm295.79,456.68h7.39v81.23h-7.39Zm140.13,81.23h-7.65c-2-4-8.37-6-14.15-4.65-3.17.76-5.67,2.48-6.78,4.65h-7.65c2-6.87,11.79-11.3,21.79-9.91C428.76,1535,434.44,1538.86,435.92,1543.85ZM21.81,772.15c2,6.9-4.54,13.6-14.59,15a26.45,26.45,0,0,1-7.22,0v-5.25c5.77,1.4,12.11-.67,14.16-4.64a5.38,5.38,0,0,0,0-5.08Zm1087.77,0h7.65c-2,4,1,8.31,6.76,9.72h0v5.25c-10-1.4-16.46-8.1-14.42-15ZM1124,1534v5.26c-3.16.77-5.65,2.47-6.77,4.64h-7.65C1111.06,1538.87,1116.74,1535,1124,1534ZM358.64,1026c6.13,0,11.1-3.41,11.1-7.62s-5-7.61-11.1-7.61-11.09,3.41-11.09,7.61S352.52,1026,358.64,1026Zm0-40.62c6.13,0,11.1-3.41,11.1-7.61s-5-7.62-11.1-7.62-11.09,3.41-11.09,7.62S352.52,985.38,358.64,985.38ZM417.8,1026c6.13,0,11.09-3.41,11.09-7.62s-5-7.61-11.09-7.61-11.09,3.41-11.09,7.61S411.68,1026,417.8,1026ZM477,1066.61c6.13,0,11.09-3.41,11.09-7.61s-5-7.62-11.09-7.62-11.09,3.41-11.09,7.62S470.83,1066.61,477,1066.61Zm0,40.62c6.13,0,11.09-3.41,11.09-7.62s-5-7.61-11.09-7.61-11.09,3.41-11.09,7.61S470.83,1107.23,477,1107.23Zm-177.47,81.23c6.12,0,11.09-3.41,11.09-7.61s-5-7.62-11.09-7.62-11.1,3.41-11.1,7.62S293.36,1188.46,299.49,1188.46Zm59.15,40.62c6.13,0,11.1-3.41,11.1-7.62s-5-7.61-11.1-7.61-11.09,3.41-11.09,7.61S352.52,1229.08,358.64,1229.08ZM477,1350.93c6.13,0,11.09-3.41,11.09-7.62s-5-7.61-11.09-7.61-11.09,3.41-11.09,7.61S470.83,1350.93,477,1350.93Zm-59.16,40.61c6.13,0,11.09-3.41,11.09-7.61s-5-7.62-11.09-7.62-11.09,3.41-11.09,7.62S411.68,1391.54,417.8,1391.54Zm118.32-40.61c6.12,0,11.09-3.41,11.09-7.62s-5-7.61-11.09-7.61-11.09,3.41-11.09,7.61S530,1350.93,536.12,1350.93Zm0-81.24c6.12,0,11.09-3.4,11.09-7.61s-5-7.62-11.09-7.62-11.09,3.41-11.09,7.62S530,1269.69,536.12,1269.69Zm59.16,81.24c6.12,0,11.09-3.41,11.09-7.62s-5-7.61-11.09-7.61-11.1,3.41-11.1,7.61S589.15,1350.93,595.28,1350.93Zm118.31,40.61c6.13,0,11.09-3.41,11.09-7.61s-5-7.62-11.09-7.62-11.09,3.41-11.09,7.62S707.47,1391.54,713.59,1391.54Zm0-40.61c6.13,0,11.09-3.41,11.09-7.62s-5-7.61-11.09-7.61-11.09,3.41-11.09,7.61S707.47,1350.93,713.59,1350.93Zm-59.16-162.47c6.13,0,11.1-3.41,11.1-7.61s-5-7.62-11.1-7.62-11.09,3.41-11.09,7.62S648.31,1188.46,654.43,1188.46Zm59.16,0c6.13,0,11.09-3.41,11.09-7.61s-5-7.62-11.09-7.62-11.09,3.41-11.09,7.62S707.47,1188.46,713.59,1188.46Zm59.16,243.7c6.13,0,11.09-3.41,11.09-7.62s-5-7.61-11.09-7.61-11.09,3.41-11.09,7.61S766.62,1432.16,772.75,1432.16Zm0,40.62c6.13,0,11.09-3.41,11.09-7.62s-5-7.61-11.09-7.61-11.09,3.4-11.09,7.61S766.62,1472.78,772.75,1472.78Zm59.16,40.61c6.12,0,11.09-3.41,11.09-7.61s-5-7.62-11.09-7.62h0c-6.13,0-11.09,3.41-11.09,7.62S825.78,1513.39,831.91,1513.39Zm59.16-365.54c6.12,0,11.09-3.41,11.09-7.62s-5-7.62-11.09-7.62S880,1136,880,1140.23,884.94,1147.85,891.07,1147.85Zm0,81.23c6.12,0,11.09-3.41,11.09-7.62s-5-7.61-11.09-7.61-11.1,3.41-11.1,7.61S884.94,1229.08,891.07,1229.08Zm59.15-81.23c6.13,0,11.1-3.41,11.1-7.62s-5-7.62-11.1-7.62-11.09,3.41-11.09,7.62S944.1,1147.85,950.22,1147.85Zm59.16-40.62c6.13,0,11.09-3.41,11.09-7.62s-5-7.61-11.09-7.61-11.09,3.41-11.09,7.61S1003.26,1107.23,1009.38,1107.23Zm-355,0c6.13,0,11.1-3.41,11.1-7.62s-5-7.61-11.1-7.61-11.09,3.41-11.09,7.61S648.31,1107.23,654.43,1107.23Zm0,40.62c6.13,0,11.1-3.41,11.1-7.62s-5-7.62-11.1-7.62-11.09,3.41-11.09,7.62S648.31,1147.85,654.43,1147.85Zm59.16-81.24c6.13,0,11.09-3.41,11.09-7.61s-5-7.62-11.09-7.62-11.09,3.41-11.09,7.62S707.47,1066.61,713.59,1066.61Zm354.95,0c6.13,0,11.09-3.41,11.09-7.61s-5-7.62-11.09-7.62-11.09,3.41-11.09,7.62S1062.41,1066.61,1068.54,1066.61Zm-59.16-162.46c6.13,0,11.09-3.41,11.09-7.62s-5-7.61-11.09-7.61-11.09,3.41-11.09,7.61S1003.26,904.15,1009.38,904.15Zm59.16-40.62c6.13,0,11.09-3.41,11.09-7.61s-5-7.62-11.09-7.62-11.09,3.41-11.09,7.62S1062.41,863.53,1068.54,863.53Zm-118.32,0c6.13,0,11.1-3.41,11.1-7.61s-5-7.62-11.1-7.62-11.09,3.41-11.09,7.62S944.1,863.53,950.22,863.53Zm0-40.61c6.13,0,11.1-3.41,11.1-7.62s-5-7.62-11.1-7.62-11.09,3.41-11.09,7.62S944.1,822.92,950.22,822.92Zm-59.15,0c6.12,0,11.09-3.41,11.09-7.62s-5-7.62-11.09-7.62S880,811.09,880,815.3,884.94,822.92,891.07,822.92Zm-59.16,0c6.12,0,11.09-3.41,11.09-7.62s-5-7.62-11.09-7.62h0c-6.13,0-11.09,3.41-11.09,7.62S825.78,822.92,831.91,822.92Zm-59.16,0c6.13,0,11.09-3.41,11.09-7.62s-5-7.62-11.09-7.62-11.09,3.41-11.09,7.62S766.62,822.92,772.75,822.92ZM181.17,863.53c6.13,0,11.09-3.41,11.09-7.61s-5-7.62-11.09-7.62-11.09,3.41-11.09,7.62S175.05,863.53,181.17,863.53Zm-118.31,0c6.12,0,11.09-3.41,11.09-7.61s-5-7.62-11.09-7.62-11.1,3.41-11.1,7.62S56.73,863.53,62.86,863.53Zm118.31,40.62c6.13,0,11.09-3.41,11.09-7.62s-5-7.61-11.09-7.61-11.09,3.41-11.09,7.61S175.05,904.15,181.17,904.15ZM122,944.76c6.13,0,11.1-3.41,11.1-7.61s-5-7.62-11.1-7.62-11.09,3.41-11.09,7.62S115.89,944.76,122,944.76Zm59.16-121.84c6.13,0,11.09-3.41,11.09-7.62s-5-7.62-11.09-7.62-11.09,3.41-11.09,7.62S175.05,822.92,181.17,822.92Zm0,609.24c6.13,0,11.09-3.41,11.09-7.62s-5-7.61-11.09-7.61-11.09,3.41-11.09,7.61S175.05,1432.16,181.17,1432.16Zm59.16,81.23c6.12,0,11.09-3.41,11.09-7.61s-5-7.62-11.09-7.62-11.09,3.41-11.09,7.62S234.2,1513.39,240.33,1513.39Zm-59.16-162.46c6.13,0,11.09-3.41,11.09-7.62s-5-7.61-11.09-7.61-11.09,3.41-11.09,7.61S175.05,1350.93,181.17,1350.93Zm0,40.61c6.13,0,11.09-3.41,11.09-7.61s-5-7.62-11.09-7.62-11.09,3.41-11.09,7.62S175.05,1391.54,181.17,1391.54ZM122,1310.31c6.13,0,11.1-3.41,11.1-7.61s-5-7.62-11.1-7.62-11.09,3.41-11.09,7.62S115.89,1310.31,122,1310.31ZM417.8,863.53c6.13,0,11.09-3.41,11.09-7.61s-5-7.62-11.09-7.62-11.09,3.41-11.09,7.62S411.68,863.53,417.8,863.53Zm59.16,0c6.13,0,11.09-3.41,11.09-7.61s-5-7.62-11.09-7.62-11.09,3.41-11.09,7.62S470.83,863.53,477,863.53ZM417.8,822.92c6.13,0,11.09-3.41,11.09-7.62s-5-7.62-11.09-7.62-11.09,3.41-11.09,7.62S411.68,822.92,417.8,822.92ZM536.12,944.76c6.12,0,11.09-3.41,11.09-7.61s-5-7.62-11.09-7.62S525,932.94,525,937.15,530,944.76,536.12,944.76Zm59.16-40.61c6.12,0,11.09-3.41,11.09-7.62s-5-7.61-11.09-7.61-11.1,3.41-11.1,7.61S589.15,904.15,595.28,904.15Zm0-81.23c6.12,0,11.09-3.41,11.09-7.62s-5-7.62-11.09-7.62-11.1,3.41-11.1,7.62S589.15,822.92,595.28,822.92Zm414.1,446.77c6.13,0,11.09-3.4,11.09-7.61s-5-7.62-11.09-7.62-11.09,3.41-11.09,7.62S1003.26,1269.69,1009.38,1269.69Zm-59.16,40.62c6.13,0,11.1-3.41,11.1-7.61s-5-7.62-11.1-7.62-11.09,3.41-11.09,7.62S944.1,1310.31,950.22,1310.31Zm0,40.62c6.13,0,11.1-3.41,11.1-7.62s-5-7.61-11.1-7.61-11.09,3.41-11.09,7.61S944.1,1350.93,950.22,1350.93Zm0,40.61c6.13,0,11.1-3.41,11.1-7.61s-5-7.62-11.1-7.62-11.09,3.41-11.09,7.62S944.1,1391.54,950.22,1391.54ZM62.86,1229.08c6.12,0,11.09-3.41,11.09-7.62s-5-7.61-11.09-7.61-11.1,3.41-11.1,7.61S56.73,1229.08,62.86,1229.08Zm0,40.61c6.12,0,11.09-3.4,11.09-7.61s-5-7.62-11.09-7.62-11.1,3.41-11.1,7.62S56.73,1269.69,62.86,1269.69Zm0-81.23c6.12,0,11.09-3.41,11.09-7.61s-5-7.62-11.09-7.62-11.1,3.41-11.1,7.62S56.73,1188.46,62.86,1188.46Zm59.15,0c6.13,0,11.1-3.41,11.1-7.61s-5-7.62-11.1-7.62-11.09,3.41-11.09,7.62S115.89,1188.46,122,1188.46ZM62.86,985.38C69,985.38,74,982,74,977.77s-5-7.62-11.09-7.62-11.1,3.41-11.1,7.62S56.73,985.38,62.86,985.38Zm118.31,162.47c6.13,0,11.09-3.41,11.09-7.62s-5-7.62-11.09-7.62-11.09,3.41-11.09,7.62S175.05,1147.85,181.17,1147.85Zm59.16-40.62c6.12,0,11.09-3.41,11.09-7.62s-5-7.61-11.09-7.61-11.09,3.41-11.09,7.61S234.2,1107.23,240.33,1107.23Z"/><path class="cls-1" d="M163.05,2884.88c2-6.86,11.81-11.3,21.81-9.89s16.46,8.1,14.42,15-11.81,11.3-21.81,9.9c-7.26-1-12.93-4.91-14.42-9.9H0v-5.08Zm591.58,121.85c2-6.87,11.81-11.3,21.81-9.89s16.46,8.1,14.42,15-11.81,11.3-21.81,9.9c-7.26-1-12.94-4.92-14.42-9.9H303.18v-5.08ZM968.34,2890c-2,6.87-11.81,11.3-21.81,9.9s-16.46-8.11-14.42-15,11.81-11.3,21.81-9.89c7.27,1,12.94,4.91,14.42,9.89H1124V2890Zm0,40.62c-2,6.87-11.81,11.3-21.81,9.9s-16.46-8.11-14.42-15,11.81-11.3,21.81-9.9c7.27,1,12.94,4.92,14.42,9.9H1124v5.08Zm22.92-289.39c2-6.87,11.81-11.3,21.82-9.9s16.45,8.11,14.41,15-11.81,11.3-21.81,9.9c-7.26-1-12.93-4.91-14.42-9.9H672.55c-2,6.87-11.81,11.3-21.81,9.9s-16.46-8.11-14.42-15,11.81-11.3,21.82-9.9c7.26,1,12.93,4.91,14.41,9.9ZM44.74,2519.34c2-6.87,11.81-11.3,21.81-9.9s16.46,8.11,14.41,15-11.8,11.3-21.81,9.9c-7.26-1-12.93-4.91-14.41-9.9H0v-5.07Zm687,86.31c-2,6.87-11.81,11.3-21.81,9.89s-16.46-8.1-14.42-15,11.81-11.3,21.81-9.9c7.26,1,12.94,4.92,14.42,9.9h318.71c2-6.87,11.81-11.3,21.81-9.9s16.46,8.11,14.42,15-11.81,11.3-21.81,9.89c-7.26-1-12.94-4.91-14.42-9.89ZM953.92,2347c10,1.4,16.46,8.11,14.42,15s-11.81,11.3-21.81,9.89-16.46-8.1-14.42-15c1.48-5,7.16-8.88,14.42-9.9v-30.71h7.39ZM717.29,2875c10,1.41,16.46,8.11,14.42,15s-11.81,11.3-21.82,9.9-16.45-8.11-14.41-15c1.48-5,7.15-8.88,14.41-9.9V2737.4c-10-1.41-16.45-8.11-14.41-15s11.81-11.3,21.81-9.9,16.46,8.11,14.42,15c-1.49,5-7.16,8.88-14.42,9.9Zm177.47-503.13v147.49H1124v5.07H887.37V2371.85c-10-1.4-16.46-8.11-14.42-15s11.81-11.29,21.81-9.89,16.46,8.1,14.42,15C907.7,2366.94,902,2370.83,894.76,2371.85Zm59.16,40.62v66.25H1124v5.08H946.53v-71.33c-10-1.41-16.46-8.11-14.42-15s11.81-11.3,21.81-9.9,16.46,8.11,14.42,15C966.86,2407.55,961.18,2411.45,953.92,2412.47ZM480.66,2656.16v188.11h59.16V2875c10,1.41,16.45,8.11,14.41,15s-11.81,11.3-21.81,9.9-16.46-8.11-14.41-15c1.48-5,7.15-8.88,14.41-9.9v-25.64H473.26V2656.16c-10-1.4-16.45-8.1-14.41-15s11.8-11.3,21.81-9.9,16.46,8.11,14.41,15c-1.48,5-7.15,8.88-14.41,9.89Zm-21.82-55.59c2.05-6.87,11.81-11.3,21.81-9.9s16.46,8.11,14.42,15-11.81,11.3-21.81,9.89c-7.26-1-12.93-4.91-14.42-9.89H421.5V2727.5H317.6c-2,6.86-11.8,11.3-21.81,9.89s-16.45-8.1-14.41-15,11.8-11.3,21.81-9.9c7.26,1,12.93,4.91,14.41,9.9h96.51V2600.57Zm-22.92,330c-2,6.87-11.81,11.3-21.81,9.9s-16.46-8.11-14.42-15,11.81-11.3,21.81-9.9c7.26,1,12.94,4.92,14.42,9.9H650.74V2737.4c-10-1.41-16.46-8.11-14.42-15s11.81-11.3,21.81-9.9,16.46,8.11,14.42,15c-1.48,5-7.16,8.88-14.42,9.9v193.18Zm-59.16-162.47c-2,6.87-11.81,11.3-21.81,9.9s-16.46-8.11-14.41-15,11.8-11.3,21.81-9.9c7.26,1,12.93,4.91,14.41,9.9H421.5v121.84h37.34c2.05-6.86,11.81-11.3,21.81-9.89s16.46,8.1,14.42,15-11.81,11.3-21.81,9.9c-7.26-1-12.93-4.91-14.42-9.9H414.11V2768.11ZM244,3037.45c10,1.4,16.45,8.11,14.41,15s-11.8,11.3-21.81,9.9-16.46-8.11-14.41-15c1.48-5,7.15-8.88,14.41-9.9v-25.64H184.87V3088h-7.4v-81.24H244ZM873,2763c2-6.87,11.81-11.3,21.81-9.9s16.46,8.1,14.42,15-11.81,11.3-21.82,9.9c-7.26-1-12.93-4.91-14.41-9.9H835.61v238.62h177.47V3088h-7.4v-76.16H828.21V2763Zm95.39-76.16c-2,6.87-11.81,11.3-21.81,9.9s-16.46-8.11-14.42-15,11.81-11.3,21.81-9.9c7.27,1,12.94,4.92,14.42,9.9h44.74v111.95c10,1.4,16.46,8.11,14.41,15s-11.8,11.3-21.81,9.89-16.45-8.1-14.41-15c1.48-5,7.15-8.88,14.41-9.9V2686.88Zm-236.63,243.7c-2,6.87-11.81,11.3-21.81,9.9s-16.46-8.11-14.42-15,11.81-11.3,21.81-9.9c7.26,1,12.94,4.92,14.42,9.9h37.34V2722.42h59.16v-35.54H672.55c-2,6.87-11.81,11.3-21.81,9.9s-16.46-8.11-14.42-15,11.81-11.3,21.82-9.9c7.26,1,12.93,4.92,14.41,9.9H835.61v45.7H776.45v203.08Zm318.71-533.09c2-6.87,11.81-11.3,21.81-9.9s16.46,8.11,14.42,15-11.81,11.3-21.81,9.89c-7.26-1-12.94-4.91-14.42-9.89h-44.74v-86.31h7.4v81.23ZM362.34,2574.93v112h-163c-2,6.87-11.81,11.3-21.81,9.9s-16.46-8.11-14.42-15,11.81-11.3,21.81-9.9c7.26,1,12.94,4.92,14.42,9.9H355V2574.93c-10-1.4-16.46-8.11-14.42-15s11.81-11.3,21.81-9.9,16.46,8.11,14.42,15C375.28,2570,369.6,2573.91,362.34,2574.93Zm-163-172.36c-2,6.86-11.81,11.3-21.81,9.89s-16.46-8.1-14.42-15,11.81-11.3,21.81-9.9c7.26,1,12.94,4.91,14.42,9.9h96.5v-81.23h7.39v86.31Zm222.21,9.9v71.33H303.18v162.46H258.45c-2.05,6.87-11.81,11.3-21.81,9.9s-16.46-8.11-14.42-15,11.81-11.3,21.81-9.9c7.26,1,12.93,4.91,14.42,9.9h37.34V2478.72H414.11v-66.25c-10-1.41-16.46-8.11-14.42-15s11.81-11.3,21.81-9.9,16.46,8.11,14.42,15C434.43,2407.55,428.76,2411.45,421.5,2412.47Zm-44.74,111.94c-2,6.87-11.81,11.3-21.81,9.9s-16.46-8.1-14.41-15,11.8-11.3,21.81-9.9c7.26,1,12.93,4.91,14.41,9.9h96.5V2412.47c-10-1.41-16.45-8.11-14.41-15s11.8-11.3,21.81-9.9,16.46,8.11,14.41,15c-1.48,5-7.15,8.88-14.41,9.9v111.94ZM435.92,2362c-2,6.87-11.81,11.3-21.81,9.9s-16.46-8.11-14.42-15,11.81-11.3,21.81-9.9c7.26,1,12.94,4.92,14.42,9.9h103.9v112c10,1.4,16.45,8.11,14.41,15s-11.81,11.3-21.81,9.89-16.46-8.1-14.41-15c1.48-5,7.15-8.88,14.41-9.9V2362Zm377.87,685.4c2-6.87,11.81-11.3,21.81-9.9s16.46,8.11,14.42,15-11.81,11.3-21.81,9.89c-7.26-1-12.94-4.91-14.42-9.89H362.34V3088H355v-40.62Zm81-350.57v25.64h59.16v86.31H894.76v157.39h177.48V3088h-7.4V2971.19H887.37V2803.65h59.16V2727.5H887.37v-30.72c-10-1.4-16.46-8.11-14.42-15s11.81-11.3,21.81-9.9,16.46,8.1,14.42,15C907.7,2691.87,902,2695.76,894.76,2696.78ZM199.29,2362c-2,6.87-11.81,11.3-21.81,9.9s-16.46-8.11-14.42-15,11.81-11.3,21.81-9.9c7.26,1,12.94,4.92,14.42,9.9h37.34v-35.54H177.47v-5.07H244V2362Zm414.1,81.23c-2,6.87-11.8,11.3-21.81,9.9s-16.46-8.11-14.41-15,11.8-11.29,21.81-9.89c7.26,1,12.93,4.91,14.41,9.89h96.5V2316.26H894.76v5.07H717.29v121.85ZM435.92,2321.33c-2,6.87-11.81,11.31-21.81,9.9s-16.47-8.1-14.42-15h7.65c-2,4,1,8.31,6.78,9.71s12.11-.69,14.15-4.66a5.43,5.43,0,0,0,0-5H658.13v86.31H591.58v-30.72c-10-1.4-16.46-8.11-14.42-15S589,2345.58,599,2347s16.46,8.1,14.42,15c-1.48,5-7.16,8.88-14.42,9.9v25.64h51.77v-76.16Zm0,243.7c-2,6.87-11.81,11.3-21.81,9.9s-16.46-8.11-14.42-15,11.81-11.3,21.81-9.89c7.26,1,12.94,4.91,14.42,9.89h70.62l118.32-81.23H769.05V2371.85c-10-1.4-16.46-8.11-14.41-15s11.8-11.29,21.81-9.89,16.46,8.1,14.41,15c-1.48,5-7.15,8.88-14.41,9.9v112H627.92L509.61,2565Zm103.9,228.72c10,1.4,16.45,8.11,14.41,15s-11.81,11.3-21.81,9.89-16.46-8.1-14.41-15c1.48-5,7.15-8.88,14.41-9.9V2599.53l116.8-80.19h179V2371.85c-10-1.4-16.46-8.11-14.42-15s11.81-11.29,21.82-9.89,16.45,8.1,14.41,15c-1.48,5-7.15,8.88-14.41,9.9v152.56H652.25l-112.43,77.2ZM599,2875c10,1.41,16.46,8.11,14.42,15s-11.81,11.3-21.81,9.9-16.46-8.11-14.42-15c1.48-5,7.16-8.88,14.42-9.9v-252.6L682.5,2560h427.08c1.48-5,7.16-8.88,14.42-9.9v5.26c-5.78,1.39-8.82,5.74-6.78,9.71,1.11,2.18,3.61,3.89,6.78,4.66v5.25c-7.26-1-12.94-4.91-14.42-9.9h-424L599,2624.46ZM66.55,2712.52c10,1.4,16.46,8.11,14.42,15s-11.81,11.3-21.81,9.9-16.46-8.11-14.42-15c1.48-5,7.16-8.88,14.42-9.9v-8.91l177.47-121.85V2438.1H355V2316.26h7.39v126.92H244v140.66L66.55,2705.69Zm118.32-259.44v110.45L7.39,2685.38v158.89H103.9c2-6.87,11.8-11.3,21.81-9.9s16.45,8.11,14.41,15-11.8,11.3-21.81,9.9c-7.26-1-12.93-4.91-14.41-9.9H0v-166l177.47-121.85V2453.08c-10-1.4-16.45-8.1-14.41-15s11.8-11.3,21.81-9.9,16.46,8.11,14.41,15C197.8,2448.17,192.13,2452.06,184.87,2453.08Zm-59.16,40.62v49.52L0,2629.53v-7.15l118.32-81.24V2493.7c-10-1.4-16.46-8.11-14.42-15s11.81-11.3,21.81-9.89,16.46,8.1,14.42,15C138.64,2488.79,133,2492.68,125.71,2493.7Zm-81-96.21c2-6.87,11.81-11.3,21.81-9.9s16.46,8.11,14.41,15-11.8,11.3-21.81,9.89c-7.26-1-12.93-4.91-14.41-9.89h-10L0,2426.45v-7.13l31.76-21.83Zm982.76,45.69c-2,6.87-11.81,11.3-21.81,9.9s-16.46-8.11-14.42-15,11.81-11.29,21.81-9.89c7.26,1,12.94,4.91,14.42,9.89h69.1l27.4-18.81v7.16l-24.37,16.73Zm-59.16,406.16c-2,6.87-11.81,11.3-21.81,9.9s-16.46-8.1-14.42-15,11.81-11.3,21.81-9.9c7.27,1,12.94,4.91,14.42,9.9h96.5V2663l59.16-40.61v7.15l-51.76,35.54v184.27Zm-769.05,81.24c-2,6.87-11.81,11.3-21.81,9.9s-16.46-8.11-14.42-15,11.81-11.3,21.81-9.9c7.26,1,12.94,4.92,14.42,9.9h37.34v-57.34l-86.55-59.43H81c-2,6.87-11.8,11.3-21.81,9.9s-16.46-8.11-14.41-15,11.8-11.3,21.81-9.9c7.26,1,12.93,4.92,14.41,9.9h72.14L244,2866.07v64.51Zm555.34,35.54c2-6.87,11.81-11.3,21.81-9.9s16.46,8.11,14.42,15-11.81,11.3-21.81,9.9c-7.26-1-12.94-4.91-14.42-9.9H355V2827.51l-145.68-100H140.13c-2,6.86-11.81,11.3-21.81,9.89s-16.46-8.1-14.42-15,11.81-11.3,21.81-9.9c7.26,1,12.94,4.91,14.42,9.9h72.1l150.11,103.06v140.64Zm-555.34,5.07c-2,6.87-11.81,11.3-21.81,9.9s-16.46-8.11-14.42-15,11.81-11.3,21.81-9.9c7.26,1,12.94,4.91,14.42,9.9h96.5V2847.85l-116.13-79.74H81c-2,6.87-11.8,11.3-21.81,9.9s-16.46-8.11-14.41-15,11.8-11.3,21.81-9.9c7.26,1,12.93,4.91,14.41,9.9H182.69l120.49,82.73v125.42Zm-73.58-553.9v4.09L34.79,2483.8H0v-5.08H31.76l86.56-59.43v-103h7.39ZM7.39,3078.07c7.27,1,12.94,4.91,14.42,9.9H14.16c-2-4-8.37-6-14.15-4.65H0v-117.2H66.55V3088H59.16V2971.19H7.39Zm118.32-150V3088h-7.39V2930.58H0v-5.08H125.71ZM62.86,2362H0v-5.08H59.16v-40.61h7.39V2362Zm1009.38-5.08H1124V2362h-59.16v-45.69h7.4Zm-118.32,693V3088h-7.39v-35.54H894.76V3088h-7.39v-40.62h66.55ZM0,2550.05c10.05-1.37,19.83,3.11,21.83,10a8.81,8.81,0,0,1,.35,2.43c0,7-8.27,12.7-18.48,12.7a26.85,26.85,0,0,1-3.7-.26v-5.25c5.78,1.39,12.11-.69,14.14-4.66s-1-8.32-6.78-9.71a15.78,15.78,0,0,0-7.36,0Zm295.79,456.68h7.39V3088h-7.39ZM435.92,3088h-7.65c-2-4-8.37-6.06-14.15-4.66-3.17.76-5.67,2.48-6.78,4.66h-7.65c2-6.87,11.79-11.31,21.79-9.92C428.76,3079.07,434.44,3083,435.92,3088ZM21.81,2316.26c2,6.9-4.54,13.61-14.59,15a26.45,26.45,0,0,1-7.22,0V2326c5.77,1.4,12.11-.67,14.16-4.63a5.4,5.4,0,0,0,0-5.09Zm1087.77,0h7.65c-2,4,1,8.31,6.76,9.72h0v5.25c-10-1.4-16.46-8.1-14.42-15ZM1124,3078.07v5.25c-3.16.77-5.65,2.47-6.77,4.65h-7.65C1111.06,3083,1116.74,3079.08,1124,3078.07Zm-765.36-508c6.13,0,11.1-3.41,11.1-7.62s-5-7.61-11.1-7.61-11.09,3.41-11.09,7.61S352.52,2570.11,358.64,2570.11Zm0-40.62c6.13,0,11.1-3.41,11.1-7.61s-5-7.62-11.1-7.62-11.09,3.41-11.09,7.62S352.52,2529.49,358.64,2529.49Zm59.16,40.62c6.13,0,11.09-3.41,11.09-7.62s-5-7.61-11.09-7.61-11.09,3.41-11.09,7.61S411.68,2570.11,417.8,2570.11ZM477,2610.72c6.13,0,11.09-3.41,11.09-7.61s-5-7.62-11.09-7.62-11.09,3.41-11.09,7.62S470.83,2610.72,477,2610.72Zm0,40.62c6.13,0,11.09-3.41,11.09-7.62s-5-7.61-11.09-7.61-11.09,3.41-11.09,7.61S470.83,2651.34,477,2651.34Zm-177.47,81.23c6.12,0,11.09-3.41,11.09-7.61s-5-7.62-11.09-7.62-11.1,3.41-11.1,7.62S293.36,2732.57,299.49,2732.57Zm59.15,40.62c6.13,0,11.1-3.41,11.1-7.62s-5-7.61-11.1-7.61-11.09,3.41-11.09,7.61S352.52,2773.19,358.64,2773.19ZM477,2895c6.13,0,11.09-3.41,11.09-7.62s-5-7.61-11.09-7.61-11.09,3.41-11.09,7.61S470.83,2895,477,2895Zm-59.16,40.61c6.13,0,11.09-3.41,11.09-7.61s-5-7.62-11.09-7.62-11.09,3.41-11.09,7.62S411.68,2935.65,417.8,2935.65ZM536.12,2895c6.12,0,11.09-3.41,11.09-7.62s-5-7.61-11.09-7.61-11.09,3.41-11.09,7.61S530,2895,536.12,2895Zm0-81.23c6.12,0,11.09-3.41,11.09-7.62s-5-7.62-11.09-7.62S525,2802,525,2806.19,530,2813.81,536.12,2813.81ZM595.28,2895c6.12,0,11.09-3.41,11.09-7.62s-5-7.61-11.09-7.61-11.1,3.41-11.1,7.61S589.15,2895,595.28,2895Zm118.31,40.61c6.13,0,11.09-3.41,11.09-7.61s-5-7.62-11.09-7.62-11.09,3.41-11.09,7.62S707.47,2935.65,713.59,2935.65Zm0-40.61c6.13,0,11.09-3.41,11.09-7.62s-5-7.61-11.09-7.61-11.09,3.41-11.09,7.61S707.47,2895,713.59,2895Zm-59.16-162.47c6.13,0,11.1-3.41,11.1-7.61s-5-7.62-11.1-7.62-11.09,3.41-11.09,7.62S648.31,2732.57,654.43,2732.57Zm59.16,0c6.13,0,11.09-3.41,11.09-7.61s-5-7.62-11.09-7.62-11.09,3.41-11.09,7.62S707.47,2732.57,713.59,2732.57Zm59.16,243.7c6.13,0,11.09-3.41,11.09-7.61s-5-7.62-11.09-7.62-11.09,3.41-11.09,7.62S766.62,2976.27,772.75,2976.27Zm0,40.62c6.13,0,11.09-3.41,11.09-7.62s-5-7.61-11.09-7.61-11.09,3.41-11.09,7.61S766.62,3016.89,772.75,3016.89Zm59.16,40.61c6.12,0,11.09-3.41,11.09-7.61s-5-7.62-11.09-7.62h0c-6.13,0-11.09,3.41-11.09,7.62S825.78,3057.5,831.91,3057.5ZM891.07,2692c6.12,0,11.09-3.41,11.09-7.62s-5-7.61-11.09-7.61-11.1,3.41-11.1,7.61S884.94,2692,891.07,2692Zm0,81.23c6.12,0,11.09-3.41,11.09-7.62s-5-7.61-11.09-7.61-11.1,3.41-11.1,7.61S884.94,2773.19,891.07,2773.19ZM950.22,2692c6.13,0,11.1-3.41,11.1-7.62s-5-7.61-11.1-7.61-11.09,3.41-11.09,7.61S944.1,2692,950.22,2692Zm59.16-40.62c6.13,0,11.09-3.41,11.09-7.62s-5-7.61-11.09-7.61-11.09,3.41-11.09,7.61S1003.26,2651.34,1009.38,2651.34Zm-355,0c6.13,0,11.1-3.41,11.1-7.62s-5-7.61-11.1-7.61-11.09,3.41-11.09,7.61S648.31,2651.34,654.43,2651.34Zm0,40.62c6.13,0,11.1-3.41,11.1-7.62s-5-7.61-11.1-7.61-11.09,3.41-11.09,7.61S648.31,2692,654.43,2692Zm59.16-81.24c6.13,0,11.09-3.41,11.09-7.61s-5-7.62-11.09-7.62-11.09,3.41-11.09,7.62S707.47,2610.72,713.59,2610.72Zm354.95,0c6.13,0,11.09-3.41,11.09-7.61s-5-7.62-11.09-7.62-11.09,3.41-11.09,7.62S1062.41,2610.72,1068.54,2610.72Zm-59.16-162.46c6.13,0,11.09-3.41,11.09-7.62s-5-7.61-11.09-7.61-11.09,3.41-11.09,7.61S1003.26,2448.26,1009.38,2448.26Zm59.16-40.62c6.13,0,11.09-3.41,11.09-7.61s-5-7.62-11.09-7.62-11.09,3.41-11.09,7.62S1062.41,2407.64,1068.54,2407.64Zm-118.32,0c6.13,0,11.1-3.41,11.1-7.61s-5-7.62-11.1-7.62-11.09,3.41-11.09,7.62S944.1,2407.64,950.22,2407.64Zm0-40.61c6.13,0,11.1-3.41,11.1-7.62s-5-7.61-11.1-7.61-11.09,3.4-11.09,7.61S944.1,2367,950.22,2367Zm-59.15,0c6.12,0,11.09-3.41,11.09-7.62s-5-7.61-11.09-7.61-11.1,3.4-11.1,7.61S884.94,2367,891.07,2367Zm-59.16,0c6.12,0,11.09-3.41,11.09-7.62s-5-7.61-11.09-7.61h0c-6.13,0-11.09,3.4-11.09,7.61S825.78,2367,831.91,2367Zm-59.16,0c6.13,0,11.09-3.41,11.09-7.62s-5-7.61-11.09-7.61-11.09,3.4-11.09,7.61S766.62,2367,772.75,2367Zm-591.58,40.61c6.13,0,11.09-3.41,11.09-7.61s-5-7.62-11.09-7.62-11.09,3.41-11.09,7.62S175.05,2407.64,181.17,2407.64Zm-118.31,0c6.12,0,11.09-3.41,11.09-7.61s-5-7.62-11.09-7.62-11.1,3.41-11.1,7.62S56.73,2407.64,62.86,2407.64Zm118.31,40.62c6.13,0,11.09-3.41,11.09-7.62s-5-7.61-11.09-7.61-11.09,3.41-11.09,7.61S175.05,2448.26,181.17,2448.26ZM122,2488.88c6.13,0,11.1-3.41,11.1-7.62s-5-7.62-11.1-7.62-11.09,3.41-11.09,7.62S115.89,2488.88,122,2488.88ZM181.17,2367c6.13,0,11.09-3.41,11.09-7.62s-5-7.61-11.09-7.61-11.09,3.4-11.09,7.61S175.05,2367,181.17,2367Zm0,609.24c6.13,0,11.09-3.41,11.09-7.61s-5-7.62-11.09-7.62-11.09,3.41-11.09,7.62S175.05,2976.27,181.17,2976.27Zm59.16,81.23c6.12,0,11.09-3.41,11.09-7.61s-5-7.62-11.09-7.62-11.09,3.41-11.09,7.62S234.2,3057.5,240.33,3057.5ZM181.17,2895c6.13,0,11.09-3.41,11.09-7.62s-5-7.61-11.09-7.61-11.09,3.41-11.09,7.61S175.05,2895,181.17,2895Zm0,40.61c6.13,0,11.09-3.41,11.09-7.61s-5-7.62-11.09-7.62-11.09,3.41-11.09,7.62S175.05,2935.65,181.17,2935.65ZM122,2854.42c6.13,0,11.1-3.41,11.1-7.61s-5-7.62-11.1-7.62-11.09,3.41-11.09,7.62S115.89,2854.42,122,2854.42ZM417.8,2407.64c6.13,0,11.09-3.41,11.09-7.61s-5-7.62-11.09-7.62-11.09,3.41-11.09,7.62S411.68,2407.64,417.8,2407.64Zm59.16,0c6.13,0,11.09-3.41,11.09-7.61s-5-7.62-11.09-7.62-11.09,3.41-11.09,7.62S470.83,2407.64,477,2407.64ZM417.8,2367c6.13,0,11.09-3.41,11.09-7.62s-5-7.61-11.09-7.61-11.09,3.4-11.09,7.61S411.68,2367,417.8,2367Zm118.32,121.85c6.12,0,11.09-3.41,11.09-7.62s-5-7.62-11.09-7.62-11.09,3.41-11.09,7.62S530,2488.88,536.12,2488.88Zm59.16-40.62c6.12,0,11.09-3.41,11.09-7.62s-5-7.61-11.09-7.61-11.1,3.41-11.1,7.61S589.15,2448.26,595.28,2448.26Zm0-81.23c6.12,0,11.09-3.41,11.09-7.62s-5-7.61-11.09-7.61-11.1,3.4-11.1,7.61S589.15,2367,595.28,2367Zm414.1,446.78c6.13,0,11.09-3.41,11.09-7.62s-5-7.62-11.09-7.62-11.09,3.41-11.09,7.62S1003.26,2813.81,1009.38,2813.81Zm-59.16,40.61c6.13,0,11.1-3.41,11.1-7.61s-5-7.62-11.1-7.62-11.09,3.41-11.09,7.62S944.1,2854.42,950.22,2854.42Zm0,40.62c6.13,0,11.1-3.41,11.1-7.62s-5-7.61-11.1-7.61-11.09,3.41-11.09,7.61S944.1,2895,950.22,2895Zm0,40.61c6.13,0,11.1-3.41,11.1-7.61s-5-7.62-11.1-7.62-11.09,3.41-11.09,7.62S944.1,2935.65,950.22,2935.65ZM62.86,2773.19c6.12,0,11.09-3.41,11.09-7.62S69,2758,62.86,2758s-11.1,3.41-11.1,7.61S56.73,2773.19,62.86,2773.19Zm0,40.62c6.12,0,11.09-3.41,11.09-7.62s-5-7.62-11.09-7.62-11.1,3.41-11.1,7.62S56.73,2813.81,62.86,2813.81Zm0-81.24c6.12,0,11.09-3.41,11.09-7.61s-5-7.62-11.09-7.62-11.1,3.41-11.1,7.62S56.73,2732.57,62.86,2732.57Zm59.15,0c6.13,0,11.1-3.41,11.1-7.61s-5-7.62-11.1-7.62-11.09,3.41-11.09,7.62S115.89,2732.57,122,2732.57ZM62.86,2529.49c6.12,0,11.09-3.41,11.09-7.61s-5-7.62-11.09-7.62-11.1,3.41-11.1,7.62S56.73,2529.49,62.86,2529.49ZM181.17,2692c6.13,0,11.09-3.41,11.09-7.62s-5-7.61-11.09-7.61-11.09,3.41-11.09,7.61S175.05,2692,181.17,2692Zm59.16-40.62c6.12,0,11.09-3.41,11.09-7.62s-5-7.61-11.09-7.61-11.09,3.41-11.09,7.61S234.2,2651.34,240.33,2651.34Z"/></svg>