<svg id="Layer_1" data-name="Layer 1" preserveAspectRatio="none" xmlns="http://www.w3.org/2000/svg" viewBox="0 0 2160.14 1080"><defs><style>.cls-1{fill:#fa0;}.cls-2{fill:#ffb100;}.cls-3{fill:#ffb800;}.cls-4{fill:#ffbf00;}.cls-5{fill:#ffc500;}.cls-6{fill:#fc0;}.cls-7{fill:#ffd624;}.cls-8{fill:#ffe038;}.cls-9{fill:#ffeb49;}.cls-10{fill:#fff558;}.cls-11{fill:#ff6;}</style></defs><rect class="cls-1" width="2160" height="1080"/><path class="cls-2" d="M536.09,952.83C388.54,923.4,234.5,909.36,83.44,926.64,14.32,934.33-53.86,949.05-120,971.73V1080H1019.12c-156.46-44.82-311.58-91.93-469.26-124.47C545.27,954.58,540.68,953.78,536.09,952.83Z" transform="translate(120.01)"/><path class="cls-3" d="M2040,0H-120V971.73A951.23,951.23,0,0,1,83.44,926.5c151.06-17.14,305.1-3.24,452.65,26.2,4.59.94,9.18,1.89,13.77,2.7,157.68,32.4,312.8,79.65,469.26,124.47H2040Z" transform="translate(120.01)"/><path class="cls-4" d="M525.83,784.35c4.32,1.08,8.64,2.3,12.83,3.38C803.53,858.6,1063.4,968,1339.88,1026.13c235.17,49.41,471.83,39.42,700.11-13.77V0H-120V776.12A834.52,834.52,0,0,1,97.48,734.4C242.33,725.49,387.19,748.17,525.83,784.35Z" transform="translate(120.01)"/><path class="cls-5" d="M-120,0V579.69c75.06-24.84,153.23-36.85,231.39-37.4,138.78-1.08,274.32,30.65,404.06,73.58,4,1.35,8,2.7,12,4,247.86,83.7,493.7,197.23,759.24,259.33,252,59,508,46.45,753.17-17V0Z" transform="translate(120.01)"/><path class="cls-6" d="M125.42,350.19c132.57,8.1,259.07,47.52,379.76,97.33,3.78,1.49,7.42,3.11,11.2,4.59,230.85,96.67,462.65,214,717.26,280.4,268.38,69.93,544.59,55.08,806.35-20V0H-120V382.32A652.63,652.63,0,0,1,125.42,350.19Z" transform="translate(120.01)"/><path class="cls-7" d="M2040,0H-120V184c84.11-28.22,172.4-37.13,259.47-25.92,126.36,16.33,243.68,64.39,355.46,121,3.51,1.75,6.88,3.51,10.39,5.26C719.15,393.8,936.91,515,1180.72,585.63c284.17,82.35,581.58,66.15,859.41-22.41V0Z" transform="translate(120.01)"/><path class="cls-8" d="M494.11,116.51c196.83,122.44,400.54,247,633.42,322.24,281.61,91,582.25,82.08,861.16-7.15,17.28-5.54,34.29-11.34,51.44-17.42V0H268.93c75.6,28.75,146.74,68.31,215.59,110.7C487.76,112.59,490.87,114.62,494.11,116.51Z" transform="translate(120.01)"/><path class="cls-9" d="M2040,0H552.29C711.73,115.83,881,222.07,1074.47,291.87c258.93,93.42,540,100.84,803.25,28.49a1319.41,1319.41,0,0,0,162.41-56.3V0Z" transform="translate(120.01)"/><path class="cls-10" d="M1766.62,209a1162.66,1162.66,0,0,0,187.11-59.13c29.29-12,58-25.38,86.26-39.83V0H748.58c84.92,56.3,175.1,105.57,272.84,145C1257.53,240.44,1519.16,264.74,1766.62,209Z" transform="translate(120.01)"/><path class="cls-11" d="M1655.65,97.74A990.69,990.69,0,0,0,1948.33,0h-976C1185.17,95.85,1425.34,136.35,1655.65,97.74Z" transform="translate(120.01)"/></svg>