<?xml version="1.0" encoding="utf-8"?>
<!-- Generator: Adobe Illustrator 25.2.3, SVG Export Plug-In . SVG Version: 6.00 Build 0)  -->
<svg version="1.1" id="Layer_1" xmlns="http://www.w3.org/2000/svg" xmlns:xlink="http://www.w3.org/1999/xlink" x="0px" y="0px"
	 viewBox="0 0 2164 1722" style="enable-background:new 0 0 2164 1722;" xml:space="preserve">
<style type="text/css">
	.st0{fill:#FFB100;}
	.st1{fill:#FFB800;}
	.st2{fill:#FFBF00;}
	.st3{fill:#FFC500;}
	.st4{fill:#FFCC00;}
	.st5{fill:#FFD624;}
	.st6{fill:#FFE038;}
	.st7{fill:#FFEB49;}
	.st8{fill:#FFF558;}
	.st9{fill:#FFFF66;}
</style>
<g>
	<path class="st0" d="M657.3,1519.2c-147.8-46.9-302.1-69.3-453.5-41.8c-69.2,12.3-137.5,35.7-203.8,71.9V1722h1141.2
		c-156.7-71.5-312.1-146.6-470.1-198.5C666.5,1522,661.9,1520.7,657.3,1519.2z"/>
	<path class="st1" d="M2163.9,0H0v1549.4c66.3-36.2,134.6-59.8,203.8-72.1c151.3-27.3,305.6-5.2,453.5,41.8c4.6,1.5,9.2,3,13.8,4.3
		c158,51.7,313.4,127,470.1,198.5h1022.7V0z"/>
	<path class="st2" d="M647,1250.6c4.3,1.7,8.7,3.7,12.8,5.4c265.3,113,525.7,287.4,802.7,380.1c235.6,78.8,472.7,62.9,701.4-22V0H0
		v1237.5c70.7-37.9,144-59.6,217.9-66.5C363,1156.8,508.1,1192.9,647,1250.6z"/>
	<path class="st3" d="M0,0v924.3c75.2-39.6,153.5-58.8,231.8-59.6c139-1.7,274.8,48.9,404.8,117.3c4.1,2.2,8,4.3,12,6.5
		c248.3,133.5,494.6,314.5,760.6,413.5c252.5,94.1,508.9,74,754.5-27.1V0H0z"/>
	<path class="st4" d="M245.9,558.4c132.8,12.9,259.5,75.8,380.4,155.2c3.8,2.4,7.4,5,11.2,7.3C868.8,875,1101,1062,1356.1,1167.9
		c268.9,111.5,545.6,87.8,807.8-31.9V0H0v609.6C79.8,567.4,163.1,550.4,245.9,558.4z"/>
	<path class="st5" d="M2163.9,0H0v293.4c84.3-45,172.7-59.2,259.9-41.3C386.5,278.1,504,354.7,616,444.9c3.5,2.8,6.9,5.6,10.4,8.4
		c214.2,174.6,432.4,367.9,676.6,480.4c284.7,131.3,582.6,105.5,860.9-35.7V0H2163.9z"/>
	<path class="st6" d="M615.2,185.8c197.2,195.2,401.3,393.9,634.6,513.8c282.1,145.1,583.3,130.9,862.7-11.4
		c17.3-8.8,34.4-18.1,51.5-27.8V0H389.6c75.7,45.8,147,108.9,216,176.5C608.9,179.5,612,182.7,615.2,185.8z"/>
	<path class="st7" d="M2163.9,0H673.5c159.7,184.7,329.3,354.1,523.1,465.4c259.4,149,541,160.8,804.7,45.4
		c55.2-24.1,109.7-54.2,162.7-89.8V0H2163.9z"/>
	<path class="st8" d="M1890,333.2c63.8-22.8,126.6-54.5,187.4-94.3c29.3-19.2,58.2-40.5,86.4-63.5V0H870.1
		c85.1,89.8,175.4,168.3,273.3,231.2C1380,383.4,1642.1,422.1,1890,333.2z"/>
	<path class="st9" d="M1778.8,155.8C1880.7,128.7,1980.2,76,2072,0h-977.8C1307.5,152.8,1548.1,217.4,1778.8,155.8z"/>
</g>
</svg>
