<svg id="Layer_1" data-name="Layer 1" xmlns="http://www.w3.org/2000/svg" viewBox="0 0 2048 3500"><defs><style>.cls-1{fill:#fa0;}.cls-2{fill:#ffb100;}.cls-3{fill:#ffb800;}.cls-4{fill:#ffbf00;}.cls-5{fill:#ffc500;}.cls-6{fill:#fc0;}.cls-7{fill:#ffd624;}.cls-8{fill:#ffe038;}.cls-9{fill:#ffeb49;}.cls-10{fill:#fff558;}.cls-11{fill:#ff6;}</style></defs><rect class="cls-1" x="-0.81" y="0.43" width="2048.81" height="4097.62"/><path class="cls-2" d="M1806.75,2853.39c-55.83,279.92-82.46,572.13-49.68,858.71,14.6,131.13,42.51,260.46,85.54,386H2048v-2161c-85,296.83-174.4,591.09-236.13,890.21C1810.08,2836,1808.55,2844.69,1806.75,2853.39Z"/><path class="cls-3" d="M-.81.43V4098.05H1842.61c-43-125.49-71.2-254.82-85.8-386-32.52-286.58-6.14-578.79,49.69-858.71,1.79-8.7,3.58-17.41,5.12-26.12,61.46-299.12,151.1-593.38,236.12-890.21V.43Z"/><path class="cls-4" d="M1487.14,2872.86c2-8.2,4.35-16.39,6.4-24.33,134.45-502.47,341.9-995.47,452.28-1520C2039.55,882.44,2020.6,433.49,1919.69.43H-.81V4098.05H1471.52c-45.08-133.94-70.94-272.75-79.14-412.58C1375.48,3410.67,1418.5,3135.87,1487.14,2872.86Z"/><path class="cls-5" d="M-.81,4098.05h1099.7c-47.12-142.4-69.92-290.68-70.94-439-2-263.27,58.13-520.4,139.57-766.51,2.57-7.69,5.13-15.11,7.69-22.8,158.78-470.2,374.16-936.56,492-1440.31,111.91-478.14,88.1-963.71-32.27-1428.79H-.81Z"/><path class="cls-6" d="M663.52,3632.45C678.88,3381,753.66,3141,848.17,2912c2.81-7.17,5.89-14.08,8.7-21.25,183.37-437.94,405.92-877.66,531.93-1360.67C1521.46,1021,1493.28,497,1350.89.43H-.81V4098.05H724.47A1238.11,1238.11,0,0,1,663.52,3632.45Z"/><path class="cls-7" d="M-.81.43V4098.05H348.26c-53.53-159.55-70.43-327.05-49.18-492.23,31-239.71,122.17-462.26,229.47-674.31,3.33-6.66,6.66-13.07,10-19.72,207.7-405.67,437.68-818.76,571.62-1281.28C1266.38,1091.42,1235.65,527.23,1067.64.17H-.81Z"/><path class="cls-8" d="M220.21,2933c232.28-373.39,468.66-759.85,611.31-1201.63C1004.13,1197.19,987.23,626.85,818,97.75c-10.5-32.79-21.52-65-33-97.58H-.81V3360.22c54.55-143.42,129.59-278.38,210-409C212.78,2945.08,216.62,2939.19,220.21,2933Z"/><path class="cls-9" d="M-.81.43V2822.66c219.74-302.45,421.29-623.6,553.69-990.6,177.22-491.2,191.31-1024.4,54-1523.8A2503.17,2503.17,0,0,0,500.12.17H-.81Z"/><path class="cls-10" d="M395.64,519A2204.65,2204.65,0,0,0,283.46,164.08C260.67,108.5,235.32,54,207.91.43H-.81V2450.29C106,2289.2,199.46,2118.13,274.24,1932.71,455.31,1484.79,501.4,988.47,395.64,519Z"/><path class="cls-11" d="M184.61,729.55A1879.57,1879.57,0,0,0-.81,174.32V2025.93C181,1622.06,257.85,1166.46,184.61,729.55Z"/></svg>