<svg id="Layer_1" data-name="Layer 1" xmlns="http://www.w3.org/2000/svg" viewBox="0 0 1448.36 994.41"><defs><style>.cls-1{fill:#fff000;}</style></defs><path class="cls-1" d="M208.9,733.52c2.63-8.85,15.22-14.56,28.11-12.76s21.2,10.45,18.57,19.3-15.21,14.56-28.1,12.75c-9.36-1.31-16.67-6.33-18.58-12.75H-1.21v-6.54Zm762.3,157c2.63-8.85,15.21-14.56,28.1-12.75s21.21,10.44,18.58,19.29-15.21,14.56-28.11,12.76c-9.35-1.32-16.66-6.34-18.57-12.76H389.47v-6.54Zm275.38-150.47c-2.63,8.85-15.22,14.56-28.11,12.75s-21.2-10.44-18.57-19.29,15.21-14.56,28.1-12.76c9.36,1.31,16.67,6.33,18.58,12.76h200.58v6.54Zm0,52.34c-2.63,8.85-15.22,14.56-28.11,12.75s-21.2-10.44-18.57-19.3,15.21-14.56,28.1-12.75c9.36,1.31,16.67,6.33,18.58,12.75h200.58v6.55Zm29.54-372.91c2.63-8.85,15.21-14.56,28.1-12.75s21.21,10.45,18.58,19.3-15.22,14.56-28.11,12.75c-9.35-1.31-16.66-6.33-18.57-12.75H865.43c-2.63,8.85-15.21,14.56-28.1,12.75s-21.21-10.45-18.58-19.3,15.21-14.56,28.1-12.75c9.36,1.31,16.67,6.33,18.58,12.75ZM56.44,262.48c2.63-8.85,15.22-14.56,28.11-12.75s21.21,10.44,18.57,19.29S87.91,283.58,75,281.78c-9.36-1.31-16.67-6.33-18.58-12.76H-1.21v-6.54ZM941.66,373.7c-2.63,8.85-15.21,14.56-28.11,12.75S892.35,376,895,367.16s15.21-14.56,28.1-12.76c9.36,1.31,16.67,6.33,18.58,12.76h410.69c2.63-8.85,15.21-14.56,28.1-12.76s21.21,10.45,18.58,19.3-15.22,14.56-28.11,12.75c-9.35-1.31-16.66-6.33-18.57-12.75ZM1228,40.38c12.89,1.8,21.2,10.44,18.57,19.29s-15.21,14.56-28.1,12.76-21.21-10.45-18.58-19.3c1.91-6.42,9.22-11.44,18.58-12.75V.8H1228ZM923.08,720.76c12.89,1.81,21.21,10.45,18.57,19.3s-15.21,14.56-28.1,12.75-21.21-10.45-18.58-19.3c1.91-6.42,9.22-11.44,18.58-12.75V543.47c-12.89-1.81-21.21-10.45-18.58-19.3s15.22-14.56,28.11-12.75,21.21,10.44,18.57,19.29c-1.9,6.43-9.22,11.45-18.57,12.76ZM1151.77,72.43V262.48h295.39V269H1142.24V72.43c-12.89-1.8-21.21-10.44-18.58-19.29s15.22-14.56,28.11-12.76,21.2,10.45,18.57,19.3C1168.43,66.1,1161.12,71.12,1151.77,72.43ZM1228,124.77v85.38h219.16v6.54H1218.47V124.77c-12.89-1.81-21.21-10.45-18.58-19.3s15.22-14.56,28.11-12.75,21.2,10.45,18.57,19.3C1244.66,118.44,1237.35,123.46,1228,124.77Zm-609.84,314V681.18h76.23v39.58c12.89,1.81,21.21,10.45,18.58,19.3s-15.22,14.56-28.11,12.75-21.21-10.45-18.57-19.3c1.9-6.42,9.22-11.44,18.57-12.75v-33H608.63V438.79c-12.89-1.8-21.21-10.44-18.57-19.29s15.21-14.56,28.1-12.76,21.21,10.45,18.58,19.3c-1.91,6.42-9.22,11.44-18.58,12.75Zm-28.11-71.63c2.63-8.85,15.21-14.56,28.11-12.76s21.2,10.45,18.57,19.3-15.21,14.56-28.1,12.75c-9.36-1.31-16.67-6.33-18.58-12.75H541.93v157H408.05c-2.63,8.85-15.21,14.56-28.1,12.75S358.74,533,361.37,524.17s15.22-14.56,28.11-12.76c9.35,1.32,16.66,6.34,18.57,12.76H532.4v-157ZM560.51,792.4c-2.63,8.85-15.21,14.56-28.1,12.75s-21.21-10.44-18.58-19.3,15.22-14.56,28.11-12.75c9.35,1.31,16.66,6.33,18.57,12.75H837.32V543.47c-12.89-1.81-21.21-10.45-18.58-19.3s15.22-14.56,28.11-12.75,21.21,10.44,18.58,19.29c-1.91,6.43-9.23,11.45-18.58,12.76V792.4ZM484.28,583.05c-2.63,8.85-15.21,14.56-28.1,12.75S435,585.36,437.6,576.51s15.22-14.56,28.11-12.76c9.35,1.31,16.66,6.33,18.57,12.76h57.65v157h48.12c2.63-8.85,15.21-14.56,28.11-12.76s21.2,10.45,18.57,19.3-15.21,14.56-28.1,12.75c-9.36-1.31-16.67-6.33-18.58-12.75H532.4v-157Zm-171,347.06c12.89,1.81,21.21,10.45,18.58,19.3S316.6,964,303.71,962.16s-21.2-10.45-18.57-19.3c1.91-6.42,9.22-11.44,18.57-12.75v-33H237V995.2h-9.53V890.53h85.76Zm810.42-353.6c2.63-8.85,15.21-14.56,28.1-12.76s21.21,10.45,18.58,19.3-15.22,14.56-28.11,12.75c-9.35-1.31-16.66-6.33-18.57-12.75h-48.12V890.53h228.69V995.2h-9.53V897.07H1066V576.51Zm122.92-98.14c-2.63,8.85-15.22,14.56-28.11,12.76s-21.2-10.45-18.57-19.3,15.21-14.56,28.1-12.75c9.36,1.31,16.67,6.33,18.58,12.75h57.65V616.09c12.89,1.8,21.2,10.44,18.57,19.29s-15.21,14.56-28.1,12.76-21.21-10.45-18.58-19.3c1.91-6.42,9.22-11.44,18.58-12.75V478.37Zm-304.92,314c-2.63,8.85-15.21,14.56-28.11,12.75s-21.2-10.44-18.57-19.3,15.21-14.56,28.1-12.75c9.36,1.31,16.67,6.33,18.58,12.75h48.12V524.17H1066v-45.8H865.43c-2.63,8.85-15.21,14.56-28.1,12.76s-21.21-10.45-18.58-19.3,15.21-14.56,28.1-12.75c9.36,1.31,16.67,6.33,18.58,12.75h210.11v58.88H999.31V792.4Zm410.69-686.93c2.63-8.85,15.21-14.56,28.1-12.75S1401.66,103.16,1399,112s-15.22,14.56-28.11,12.76c-9.35-1.31-16.66-6.33-18.57-12.76H1294.7V.8h9.53V105.47ZM465.7,334.12V478.37H255.59c-2.63,8.85-15.21,14.56-28.1,12.76s-21.21-10.45-18.58-19.3,15.22-14.56,28.11-12.75c9.35,1.31,16.66,6.33,18.57,12.75H456.17V334.12c-12.89-1.81-21.2-10.45-18.57-19.3s15.21-14.56,28.1-12.75,21.21,10.44,18.58,19.3C482.37,327.79,475.06,332.81,465.7,334.12ZM255.59,112c-2.63,8.85-15.21,14.56-28.1,12.76s-21.21-10.45-18.58-19.3S224.13,90.91,237,92.72c9.35,1.31,16.66,6.33,18.57,12.75H379.94V.8h9.53V112Zm286.34,12.76v91.92H389.47V426H331.82c-2.63,8.85-15.21,14.56-28.1,12.75s-21.21-10.45-18.58-19.3,15.22-14.56,28.11-12.75c9.35,1.31,16.66,6.33,18.57,12.75h48.12V210.15H532.4V124.77c-12.89-1.81-21.21-10.45-18.57-19.3S529,90.91,541.93,92.72s21.21,10.45,18.58,19.3C558.6,118.44,551.29,123.46,541.93,124.77ZM484.28,269c-2.63,8.85-15.21,14.56-28.1,12.76S435,271.33,437.6,262.48s15.22-14.56,28.11-12.75c9.35,1.31,16.66,6.33,18.57,12.75H608.63V124.77c-12.89-1.81-21.21-10.45-18.57-19.3s15.21-14.56,28.1-12.75,21.21,10.45,18.58,19.3c-1.91,6.42-9.22,11.44-18.58,12.75V269ZM560.51,59.68c-2.63,8.85-15.21,14.56-28.1,12.75S511.2,62,513.83,53.13s15.22-14.56,28.11-12.75c9.35,1.31,16.66,6.33,18.57,12.75H694.39V197.39c12.89,1.8,21.21,10.44,18.58,19.29s-15.22,14.56-28.11,12.76-21.21-10.45-18.57-19.3c1.9-6.42,9.22-11.44,18.57-12.75V59.68Zm486.92,883.19c2.63-8.85,15.21-14.56,28.1-12.76s21.21,10.45,18.58,19.3S1078.89,964,1066,962.16c-9.35-1.31-16.66-6.33-18.57-12.75H465.7V995.2h-9.53V942.87Zm104.34-451.74v33H1228V635.39h-76.23v202.8h228.69v157h-9.53V844.73H1142.24V628.84h76.23V530.71h-76.23V491.13c-12.89-1.81-21.21-10.44-18.58-19.3s15.22-14.56,28.11-12.75,21.2,10.45,18.57,19.3C1168.43,484.8,1161.12,489.82,1151.77,491.13ZM255.59,59.68c-2.63,8.85-15.21,14.56-28.1,12.75S206.28,62,208.91,53.13,224.13,38.57,237,40.38c9.35,1.31,16.66,6.33,18.57,12.75h48.12V7.34H227.48V.8h85.76V59.68ZM789.2,164.35c-2.63,8.85-15.21,14.56-28.1,12.75s-21.21-10.44-18.58-19.29,15.21-14.56,28.1-12.76c9.36,1.31,16.67,6.33,18.58,12.76H913.55V.8h238.22V7.34H923.08v157ZM560.51,7.34C557.88,16.19,545.3,21.9,532.4,20.1S511.19,9.65,513.82.8h9.86c-2.62,5.11,1.3,10.71,8.74,12.51s15.61-.89,18.23-6a7,7,0,0,0,0-6.51h296.2V112H761.09V72.43C748.2,70.63,739.88,62,742.51,53.14s15.22-14.56,28.11-12.76,21.21,10.45,18.58,19.3c-1.91,6.42-9.23,11.44-18.58,12.75v33h66.7V7.34Zm0,314c-2.63,8.85-15.21,14.56-28.1,12.76s-21.21-10.45-18.58-19.3,15.21-14.56,28.11-12.75c9.35,1.31,16.66,6.33,18.57,12.75h91L804,210.15H989.78V72.43C976.89,70.63,968.57,62,971.2,53.14s15.22-14.56,28.11-12.76,21.21,10.45,18.57,19.3c-1.91,6.42-9.22,11.44-18.57,12.75V216.69H807.92L655.47,321.36ZM694.39,616.09c12.89,1.8,21.21,10.44,18.58,19.29s-15.22,14.56-28.11,12.76-21.21-10.45-18.57-19.3c1.9-6.42,9.22-11.44,18.57-12.75V365.82L835.37,262.48H1066v-190c-12.89-1.8-21.21-10.44-18.58-19.29s15.22-14.56,28.11-12.76,21.21,10.45,18.57,19.3c-1.91,6.42-9.22,11.44-18.57,12.75V269H839.27L694.39,368.5Zm76.23,104.67c12.89,1.81,21.21,10.45,18.58,19.3S774,754.62,761.09,752.81s-21.21-10.45-18.58-19.3c1.91-6.42,9.23-11.44,18.58-12.75V395.26l117.16-80.44h550.33c1.9-6.43,9.22-11.45,18.58-12.76v6.77c-7.45,1.8-11.36,7.4-8.74,12.52,1.44,2.8,4.65,5,8.74,6v6.77c-9.36-1.31-16.68-6.33-18.58-12.76H882.15L770.62,397.94ZM84.55,511.41c12.89,1.81,21.21,10.45,18.58,19.3S87.92,545.27,75,543.46,53.82,533,56.45,524.17c1.91-6.43,9.22-11.45,18.57-12.76V499.93l228.69-157V157.81H456.17V.8h9.53V164.35H313.24V345.6l-228.69,157ZM237,177.11V319.43L8.32,476.44V681.18H132.67c2.63-8.85,15.22-14.56,28.11-12.75s21.21,10.44,18.57,19.29-15.21,14.56-28.1,12.76c-9.36-1.31-16.67-6.33-18.58-12.76H-1.21v-214l228.69-157V177.11c-12.89-1.81-21.2-10.45-18.57-19.3s15.21-14.56,28.1-12.75,21.21,10.44,18.58,19.29C253.68,170.78,246.37,175.8,237,177.11Zm-76.23,52.33v63.82l-162,111.22v-9.22L151.25,290.58V229.44c-12.89-1.8-21.2-10.44-18.57-19.29s15.21-14.56,28.1-12.76,21.21,10.45,18.58,19.3C177.45,223.11,170.14,228.13,160.78,229.44Zm-104.34-124c2.63-8.85,15.22-14.56,28.11-12.75s21.21,10.44,18.57,19.29S87.91,126.57,75,124.77c-9.36-1.31-16.67-6.33-18.58-12.76H43.63L-1.21,142.79V133.6l40.93-28.13Zm1266.37,58.88c-2.63,8.85-15.22,14.56-28.11,12.75s-21.2-10.44-18.57-19.29,15.21-14.56,28.1-12.76c9.36,1.31,16.67,6.33,18.58,12.76h89l35.31-24.24v9.22l-31.4,21.56Zm-76.23,523.37c-2.63,8.85-15.22,14.56-28.11,12.76s-21.2-10.45-18.57-19.3,15.21-14.56,28.1-12.75c9.36,1.31,16.67,6.33,18.58,12.75h124.35V447.59l76.23-52.33v9.22l-66.7,45.79V687.72Zm-991,104.68c-2.63,8.85-15.21,14.56-28.1,12.75s-21.21-10.44-18.58-19.3S224.13,771.29,237,773.1c9.35,1.31,16.66,6.33,18.57,12.75h48.12V712L192.18,635.39H103.13C100.5,644.24,87.92,650,75,648.14s-21.21-10.45-18.58-19.3,15.22-14.56,28.11-12.75c9.35,1.31,16.66,6.33,18.57,12.75h93l117.15,80.44V792.4ZM971.2,838.19c2.63-8.85,15.21-14.56,28.1-12.75s21.21,10.44,18.58,19.29-15.21,14.56-28.11,12.76c-9.35-1.31-16.66-6.33-18.57-12.76h-515V659.59L268.46,530.71h-89.1c-2.63,8.85-15.21,14.56-28.1,12.75S130.05,533,132.68,524.17s15.22-14.56,28.11-12.76c9.35,1.32,16.66,6.34,18.57,12.76h92.91L465.7,657V838.19Zm-715.61,6.54c-2.63,8.85-15.21,14.56-28.1,12.76s-21.21-10.45-18.58-19.3,15.22-14.56,28.11-12.75c9.35,1.31,16.66,6.33,18.57,12.75H379.94V685.79L230.29,583.05H103.13C100.5,591.9,87.92,597.61,75,595.8s-21.21-10.44-18.58-19.29S71.67,562,84.56,563.75c9.35,1.31,16.66,6.33,18.57,12.76H234.2l155.27,106.6V844.73ZM160.78,131v5.27L43.63,216.69H-1.21v-6.54H39.72l111.53-76.58V.8h9.53ZM8.32,982.45c9.36,1.31,16.68,6.33,18.58,12.75H17c-2.62-5.11-10.79-7.79-18.23-6h0v-151H84.55v157H75V844.73H8.32ZM160.78,789.13V995.2h-9.53V792.4H-1.21v-6.55h162Zm-81-729.45h-81V53.13H75V.8h9.53V59.68Zm1300.67-6.55h66.7v6.55h-76.23V.8h9.53ZM1228,946.14V995.2h-9.53V949.41h-66.7V995.2h-9.53V942.87H1228ZM-1.21,302.06c13-1.77,25.55,4,28.13,12.9a11.56,11.56,0,0,1,.46,3.13c0,9-10.66,16.36-23.82,16.36a34.44,34.44,0,0,1-4.77-.33v-6.77c7.45,1.8,15.61-.89,18.23-6s-1.29-10.72-8.74-12.52a20.56,20.56,0,0,0-9.49,0ZM379.94,890.53h9.53V995.2h-9.53ZM560.51,995.2h-9.86c-2.62-5.11-10.78-7.8-18.23-6-4.08,1-7.3,3.2-8.74,6h-9.86c2.62-8.85,15.19-14.57,28.09-12.77C551.28,983.74,558.61,988.77,560.51,995.2ZM26.9.8c2.57,8.89-5.85,17.53-18.81,19.3a35.31,35.31,0,0,1-9.3,0V13.32c7.44,1.82,15.61-.86,18.25-6A6.91,6.91,0,0,0,17,.8ZM1428.58.8h9.86c-2.64,5.11,1.26,10.71,8.7,12.52h0V20.1C1434.27,18.29,1426,9.65,1428.57.8Zm18.58,981.65v6.77c-4.08,1-7.28,3.19-8.72,6h-9.86C1430.48,988.78,1437.8,983.76,1447.16,982.45ZM460.94,327.9c7.89,0,14.29-4.39,14.29-9.81s-6.4-9.81-14.29-9.81-14.3,4.39-14.3,9.81S453,327.9,460.94,327.9Zm0-52.33c7.89,0,14.29-4.4,14.29-9.82s-6.4-9.81-14.29-9.81-14.3,4.39-14.3,9.81S453,275.57,460.94,275.57Zm76.23,52.33c7.89,0,14.29-4.39,14.29-9.81s-6.4-9.81-14.29-9.81-14.3,4.39-14.3,9.81S529.27,327.9,537.17,327.9Zm76.23,52.34c7.89,0,14.29-4.39,14.29-9.81s-6.4-9.82-14.29-9.82-14.3,4.4-14.3,9.82S605.5,380.24,613.4,380.24Zm0,52.34c7.89,0,14.29-4.4,14.29-9.81S621.29,413,613.4,413s-14.3,4.4-14.3,9.82S605.5,432.58,613.4,432.58ZM384.71,537.25c7.89,0,14.29-4.39,14.29-9.81s-6.4-9.81-14.29-9.81-14.3,4.39-14.3,9.81S376.81,537.25,384.71,537.25Zm76.23,52.34c7.89,0,14.29-4.39,14.29-9.81s-6.4-9.82-14.29-9.82-14.3,4.4-14.3,9.82S453,589.59,460.94,589.59Zm152.46,157c7.89,0,14.29-4.39,14.29-9.81S621.29,727,613.4,727s-14.3,4.39-14.3,9.81S605.5,746.6,613.4,746.6Zm-76.23,52.34c7.89,0,14.29-4.39,14.29-9.81s-6.4-9.82-14.29-9.82-14.3,4.4-14.3,9.82S529.27,798.94,537.17,798.94ZM689.63,746.6c7.89,0,14.29-4.39,14.29-9.81s-6.4-9.81-14.29-9.81-14.3,4.39-14.3,9.81S681.73,746.6,689.63,746.6Zm0-104.67c7.89,0,14.29-4.4,14.29-9.82s-6.4-9.81-14.29-9.81-14.3,4.39-14.3,9.81S681.73,641.93,689.63,641.93ZM765.86,746.6c7.89,0,14.29-4.39,14.29-9.81s-6.4-9.81-14.29-9.81-14.3,4.39-14.3,9.81S758,746.6,765.86,746.6Zm152.45,52.34c7.9,0,14.3-4.39,14.3-9.81s-6.4-9.82-14.3-9.82S904,783.71,904,789.13,910.42,798.94,918.31,798.94Zm0-52.34c7.9,0,14.3-4.39,14.3-9.81s-6.4-9.81-14.3-9.81S904,731.37,904,736.79,910.42,746.6,918.31,746.6ZM842.08,537.25c7.9,0,14.3-4.39,14.3-9.81s-6.4-9.81-14.3-9.81-14.29,4.39-14.29,9.81S834.19,537.25,842.08,537.25Zm76.23,0c7.9,0,14.3-4.39,14.3-9.81s-6.4-9.81-14.3-9.81S904,522,904,527.44,910.42,537.25,918.31,537.25Zm76.23,314c7.9,0,14.3-4.4,14.3-9.82s-6.4-9.81-14.3-9.81-14.29,4.39-14.29,9.81S986.65,851.28,994.54,851.28Zm0,52.33c7.9,0,14.3-4.39,14.3-9.81s-6.4-9.81-14.3-9.81-14.29,4.39-14.29,9.81S986.65,903.61,994.54,903.61ZM1070.77,956c7.9,0,14.3-4.39,14.3-9.81s-6.4-9.82-14.3-9.82h0c-7.89,0-14.29,4.4-14.29,9.82S1062.88,956,1070.77,956Zm76.23-471c7.9,0,14.3-4.4,14.3-9.82s-6.4-9.81-14.3-9.81-14.29,4.39-14.29,9.81S1139.11,484.92,1147,484.92Zm0,104.67c7.9,0,14.3-4.39,14.3-9.81S1154.9,570,1147,570s-14.29,4.4-14.29,9.82S1139.11,589.59,1147,589.59Zm76.23-104.67c7.9,0,14.3-4.4,14.3-9.82s-6.4-9.81-14.3-9.81-14.29,4.39-14.29,9.81S1215.34,484.92,1223.23,484.92Zm76.23-52.34c7.9,0,14.3-4.4,14.3-9.81s-6.4-9.82-14.3-9.82-14.29,4.4-14.29,9.82S1291.57,432.58,1299.46,432.58Zm-457.38,0c7.9,0,14.3-4.4,14.3-9.81S850,413,842.08,413s-14.29,4.4-14.29,9.82S834.19,432.58,842.08,432.58Zm0,52.34c7.9,0,14.3-4.4,14.3-9.82s-6.4-9.81-14.3-9.81-14.29,4.39-14.29,9.81S834.19,484.92,842.08,484.92Zm76.23-104.68c7.9,0,14.3-4.39,14.3-9.81s-6.4-9.82-14.3-9.82S904,365,904,370.43,910.42,380.24,918.31,380.24Zm457.38,0c7.9,0,14.29-4.39,14.29-9.81s-6.39-9.82-14.29-9.82-14.29,4.4-14.29,9.82S1367.8,380.24,1375.69,380.24Zm-76.23-209.35c7.9,0,14.3-4.39,14.3-9.81s-6.4-9.81-14.3-9.81-14.29,4.39-14.29,9.81S1291.57,170.89,1299.46,170.89Zm76.23-52.34c7.9,0,14.29-4.39,14.29-9.81s-6.39-9.81-14.29-9.81-14.29,4.39-14.29,9.81S1367.8,118.55,1375.69,118.55Zm-152.46,0c7.9,0,14.3-4.39,14.3-9.81s-6.4-9.81-14.3-9.81-14.29,4.39-14.29,9.81S1215.34,118.55,1223.23,118.55Zm0-52.33c7.9,0,14.3-4.4,14.3-9.82s-6.4-9.81-14.3-9.81-14.29,4.39-14.29,9.81S1215.34,66.22,1223.23,66.22Zm-76.23,0c7.9,0,14.3-4.4,14.3-9.82s-6.4-9.81-14.3-9.81-14.29,4.39-14.29,9.81S1139.11,66.22,1147,66.22Zm-76.23,0c7.9,0,14.3-4.4,14.3-9.82s-6.4-9.81-14.3-9.81h0c-7.89,0-14.29,4.39-14.29,9.81S1062.88,66.22,1070.77,66.22Zm-76.23,0c7.9,0,14.3-4.4,14.3-9.82s-6.4-9.81-14.3-9.81S980.25,51,980.25,56.4,986.65,66.22,994.54,66.22ZM232.25,118.55c7.89,0,14.29-4.39,14.29-9.81s-6.4-9.81-14.29-9.81-14.3,4.39-14.3,9.81S224.35,118.55,232.25,118.55Zm-152.46,0c7.89,0,14.29-4.39,14.29-9.81s-6.4-9.81-14.29-9.81-14.29,4.39-14.29,9.81S71.89,118.55,79.79,118.55Zm152.46,52.34c7.89,0,14.29-4.39,14.29-9.81s-6.4-9.81-14.29-9.81-14.3,4.39-14.3,9.81S224.35,170.89,232.25,170.89ZM156,223.23c7.89,0,14.29-4.39,14.29-9.81s-6.4-9.82-14.29-9.82-14.29,4.4-14.29,9.82S148.12,223.23,156,223.23Zm76.23-157c7.89,0,14.29-4.4,14.29-9.82s-6.4-9.81-14.29-9.81S218,51,218,56.4,224.35,66.22,232.25,66.22Zm0,785.06c7.89,0,14.29-4.4,14.29-9.82s-6.4-9.81-14.29-9.81S218,836,218,841.46,224.35,851.28,232.25,851.28ZM308.48,956c7.89,0,14.29-4.39,14.29-9.81s-6.4-9.82-14.29-9.82-14.3,4.4-14.3,9.82S300.58,956,308.48,956ZM232.25,746.6c7.89,0,14.29-4.39,14.29-9.81s-6.4-9.81-14.29-9.81-14.3,4.39-14.3,9.81S224.35,746.6,232.25,746.6Zm0,52.34c7.89,0,14.29-4.39,14.29-9.81s-6.4-9.82-14.29-9.82-14.3,4.4-14.3,9.82S224.35,798.94,232.25,798.94ZM156,694.26c7.89,0,14.29-4.39,14.29-9.81s-6.4-9.81-14.29-9.81-14.29,4.39-14.29,9.81S148.12,694.26,156,694.26ZM537.17,118.55c7.89,0,14.29-4.39,14.29-9.81s-6.4-9.81-14.29-9.81-14.3,4.39-14.3,9.81S529.27,118.55,537.17,118.55Zm76.23,0c7.89,0,14.29-4.39,14.29-9.81s-6.4-9.81-14.29-9.81-14.3,4.39-14.3,9.81S605.5,118.55,613.4,118.55ZM537.17,66.22c7.89,0,14.29-4.4,14.29-9.82s-6.4-9.81-14.29-9.81-14.3,4.39-14.3,9.81S529.27,66.22,537.17,66.22Zm152.46,157c7.89,0,14.29-4.39,14.29-9.81s-6.4-9.82-14.29-9.82-14.3,4.4-14.3,9.82S681.73,223.23,689.63,223.23Zm76.23-52.34c7.89,0,14.29-4.39,14.29-9.81s-6.4-9.81-14.29-9.81-14.3,4.39-14.3,9.81S758,170.89,765.86,170.89Zm0-104.67c7.89,0,14.29-4.4,14.29-9.82s-6.4-9.81-14.29-9.81-14.3,4.39-14.3,9.81S758,66.22,765.86,66.22Zm533.6,575.71c7.9,0,14.3-4.4,14.3-9.82s-6.4-9.81-14.3-9.81-14.29,4.39-14.29,9.81S1291.57,641.93,1299.46,641.93Zm-76.23,52.33c7.9,0,14.3-4.39,14.3-9.81s-6.4-9.81-14.3-9.81-14.29,4.39-14.29,9.81S1215.34,694.26,1223.23,694.26Zm0,52.34c7.9,0,14.3-4.39,14.3-9.81s-6.4-9.81-14.3-9.81-14.29,4.39-14.29,9.81S1215.34,746.6,1223.23,746.6Zm0,52.34c7.9,0,14.3-4.39,14.3-9.81s-6.4-9.82-14.3-9.82-14.29,4.4-14.29,9.82S1215.34,798.94,1223.23,798.94ZM79.79,589.59c7.89,0,14.29-4.39,14.29-9.81S87.68,570,79.79,570s-14.29,4.4-14.29,9.82S71.89,589.59,79.79,589.59Zm0,52.34c7.89,0,14.29-4.4,14.29-9.82s-6.4-9.81-14.29-9.81-14.29,4.39-14.29,9.81S71.89,641.93,79.79,641.93Zm0-104.68c7.89,0,14.29-4.39,14.29-9.81s-6.4-9.81-14.29-9.81S65.5,522,65.5,527.44,71.89,537.25,79.79,537.25Zm76.23,0c7.89,0,14.29-4.39,14.29-9.81s-6.4-9.81-14.29-9.81-14.29,4.39-14.29,9.81S148.12,537.25,156,537.25ZM79.79,275.57c7.89,0,14.29-4.4,14.29-9.82s-6.4-9.81-14.29-9.81-14.29,4.39-14.29,9.81S71.89,275.57,79.79,275.57ZM232.25,484.92c7.89,0,14.29-4.4,14.29-9.82s-6.4-9.81-14.29-9.81S218,469.68,218,475.1,224.35,484.92,232.25,484.92Zm76.23-52.34c7.89,0,14.29-4.4,14.29-9.81s-6.4-9.82-14.29-9.82-14.3,4.4-14.3,9.82S300.58,432.58,308.48,432.58Z" transform="translate(1.21 -0.8)"/></svg>