<?xml version="1.0" encoding="utf-8"?>
<!-- Generator: Adobe Illustrator 25.2.3, SVG Export Plug-In . SVG Version: 6.00 Build 0)  -->
<svg version="1.1" xmlns="http://www.w3.org/2000/svg" xmlns:xlink="http://www.w3.org/1999/xlink" x="0px" y="0px"
	 viewBox="0 0 1443 1000" style="enable-background:new 0 0 1443 1000;" xml:space="preserve">
<style type="text/css">
	.st0{fill:#B2AD04;}
</style>
<g id="Layer_1">
	<path class="st0" d="M208.9,733.5c2.6-8.9,15.2-14.6,28.1-12.8c12.9,1.8,21.2,10.4,18.6,19.3c-2.6,8.9-15.2,14.6-28.1,12.8
		c-9.4-1.3-16.7-6.3-18.6-12.8H-1.2v-6.5H208.9z M971.2,890.5c2.6-8.9,15.2-14.6,28.1-12.8c12.9,1.8,21.2,10.4,18.6,19.3
		c-2.6,8.9-15.2,14.6-28.1,12.8c-9.4-1.3-16.7-6.3-18.6-12.8H389.5v-6.5H971.2z M1246.6,740.1c-2.6,8.9-15.2,14.6-28.1,12.8
		c-12.9-1.8-21.2-10.4-18.6-19.3c2.6-8.9,15.2-14.6,28.1-12.8c9.4,1.3,16.7,6.3,18.6,12.8h200.6v6.5H1246.6z M1246.6,792.4
		c-2.6,8.9-15.2,14.6-28.1,12.8c-12.9-1.8-21.2-10.4-18.6-19.3c2.6-8.9,15.2-14.6,28.1-12.8c9.4,1.3,16.7,6.3,18.6,12.8h200.6v6.5
		H1246.6z M1276.1,419.5c2.6-8.9,15.2-14.6,28.1-12.8c12.9,1.8,21.2,10.4,18.6,19.3c-2.6,8.9-15.2,14.6-28.1,12.8
		c-9.4-1.3-16.7-6.3-18.6-12.8H865.4c-2.6,8.9-15.2,14.6-28.1,12.8c-12.9-1.8-21.2-10.4-18.6-19.3c2.6-8.9,15.2-14.6,28.1-12.8
		c9.4,1.3,16.7,6.3,18.6,12.8H1276.1z M56.4,262.5c2.6-8.9,15.2-14.6,28.1-12.8c12.9,1.8,21.2,10.4,18.6,19.3S87.9,283.6,75,281.8
		c-9.4-1.3-16.7-6.3-18.6-12.8H-1.2v-6.5C-1.2,262.5,56.4,262.5,56.4,262.5z M941.7,373.7c-2.6,8.9-15.2,14.6-28.1,12.8
		c-12.9-1.8-21.2-10.4-18.6-19.3c2.6-8.9,15.2-14.6,28.1-12.8c9.4,1.3,16.7,6.3,18.6,12.8h410.7c2.6-8.9,15.2-14.6,28.1-12.8
		c12.9,1.8,21.2,10.4,18.6,19.3c-2.6,8.9-15.2,14.6-28.1,12.8c-9.4-1.3-16.7-6.3-18.6-12.8H941.7z M1228,40.4
		c12.9,1.8,21.2,10.4,18.6,19.3c-2.6,8.9-15.2,14.6-28.1,12.8c-12.9-1.8-21.2-10.4-18.6-19.3c1.9-6.4,9.2-11.4,18.6-12.8V0.8h9.5
		V40.4z M923.1,720.8c12.9,1.8,21.2,10.4,18.6,19.3c-2.6,8.9-15.2,14.6-28.1,12.8c-12.9-1.8-21.2-10.4-18.6-19.3
		c1.9-6.4,9.2-11.4,18.6-12.8V543.5c-12.9-1.8-21.2-10.4-18.6-19.3c2.6-8.9,15.2-14.6,28.1-12.8c12.9,1.8,21.2,10.4,18.6,19.3
		c-1.9,6.4-9.2,11.4-18.6,12.8V720.8z M1151.8,72.4v190h295.4v6.5h-304.9V72.4c-12.9-1.8-21.2-10.4-18.6-19.3
		c2.6-8.9,15.2-14.6,28.1-12.8c12.9,1.8,21.2,10.4,18.6,19.3C1168.4,66.1,1161.1,71.1,1151.8,72.4z M1228,124.8v85.4h219.2v6.5
		h-228.7v-91.9c-12.9-1.8-21.2-10.4-18.6-19.3c2.6-8.9,15.2-14.6,28.1-12.8c12.9,1.8,21.2,10.4,18.6,19.3
		C1244.7,118.4,1237.4,123.5,1228,124.8z M618.2,438.8v242.4h76.2v39.6c12.9,1.8,21.2,10.4,18.6,19.3c-2.6,8.9-15.2,14.6-28.1,12.8
		c-12.9-1.8-21.2-10.4-18.6-19.3c1.9-6.4,9.2-11.4,18.6-12.8v-33h-76.2V438.8c-12.9-1.8-21.2-10.4-18.6-19.3
		c2.6-8.9,15.2-14.6,28.1-12.8c12.9,1.8,21.2,10.4,18.6,19.3C634.8,432.5,627.5,437.5,618.2,438.8L618.2,438.8z M590.1,367.2
		c2.6-8.9,15.2-14.6,28.1-12.8c12.9,1.8,21.2,10.4,18.6,19.3s-15.2,14.6-28.1,12.8c-9.4-1.3-16.7-6.3-18.6-12.8h-48.1v157H408.1
		c-2.6,8.9-15.2,14.6-28.1,12.8s-21.2-10.4-18.6-19.3c2.6-8.9,15.2-14.6,28.1-12.8c9.4,1.3,16.7,6.3,18.6,12.8h124.3v-157
		C532.4,367.2,590.1,367.2,590.1,367.2z M560.5,792.4c-2.6,8.9-15.2,14.6-28.1,12.8c-12.9-1.8-21.2-10.4-18.6-19.3
		s15.2-14.6,28.1-12.8c9.4,1.3,16.7,6.3,18.6,12.8h276.8V543.5c-12.9-1.8-21.2-10.4-18.6-19.3c2.6-8.9,15.2-14.6,28.1-12.8
		c12.9,1.8,21.2,10.4,18.6,19.3c-1.9,6.4-9.2,11.4-18.6,12.8v248.9H560.5z M484.3,583c-2.6,8.9-15.2,14.6-28.1,12.8
		s-21.2-10.4-18.6-19.3c2.6-8.9,15.2-14.6,28.1-12.8c9.4,1.3,16.7,6.3,18.6,12.8h57.6v157h48.1c2.6-8.9,15.2-14.6,28.1-12.8
		c12.9,1.8,21.2,10.4,18.6,19.3s-15.2,14.6-28.1,12.8c-9.4-1.3-16.7-6.3-18.6-12.8h-57.6V583H484.3z M313.2,930.1
		c12.9,1.8,21.2,10.4,18.6,19.3c-2.6,8.9-15.2,14.6-28.1,12.8c-12.9-1.8-21.2-10.4-18.6-19.3c1.9-6.4,9.2-11.4,18.6-12.8v-33H237
		v98.1h-9.5V890.5h85.8V930.1z M1123.7,576.5c2.6-8.9,15.2-14.6,28.1-12.8c12.9,1.8,21.2,10.4,18.6,19.3
		c-2.6,8.9-15.2,14.6-28.1,12.8c-9.4-1.3-16.7-6.3-18.6-12.8h-48.1v307.5h228.7v104.7h-9.5v-98.1H1066V576.5H1123.7z M1246.6,478.4
		c-2.6,8.9-15.2,14.6-28.1,12.8c-12.9-1.8-21.2-10.4-18.6-19.3c2.6-8.9,15.2-14.6,28.1-12.8c9.4,1.3,16.7,6.3,18.6,12.8h57.6v144.3
		c12.9,1.8,21.2,10.4,18.6,19.3c-2.6,8.9-15.2,14.6-28.1,12.8c-12.9-1.8-21.2-10.4-18.6-19.3c1.9-6.4,9.2-11.4,18.6-12.8V478.4
		H1246.6z M941.7,792.4c-2.6,8.9-15.2,14.6-28.1,12.8c-12.9-1.8-21.2-10.4-18.6-19.3c2.6-8.9,15.2-14.6,28.1-12.8
		c9.4,1.3,16.7,6.3,18.6,12.8h48.1V524.2h76.2v-45.8H865.4c-2.6,8.9-15.2,14.6-28.1,12.8c-12.9-1.8-21.2-10.4-18.6-19.3
		c2.6-8.9,15.2-14.6,28.1-12.8c9.4,1.3,16.7,6.3,18.6,12.8h210.1v58.9h-76.2v261.7H941.7z M1352.3,105.5
		c2.6-8.9,15.2-14.6,28.1-12.8c12.9,1.8,21.2,10.4,18.6,19.3c-2.6,8.9-15.2,14.6-28.1,12.8c-9.4-1.3-16.7-6.3-18.6-12.8h-57.6V0.8
		h9.5v104.7H1352.3L1352.3,105.5z M465.7,334.1v144.3H255.6c-2.6,8.9-15.2,14.6-28.1,12.8c-12.9-1.8-21.2-10.4-18.6-19.3
		c2.6-8.9,15.2-14.6,28.1-12.8c9.4,1.3,16.7,6.3,18.6,12.8h200.6V334.1c-12.9-1.8-21.2-10.4-18.6-19.3s15.2-14.6,28.1-12.8
		s21.2,10.4,18.6,19.3C482.4,327.8,475.1,332.8,465.7,334.1z M255.6,112c-2.6,8.9-15.2,14.6-28.1,12.8
		c-12.9-1.8-21.2-10.4-18.6-19.3s15.2-14.6,28.1-12.8c9.4,1.3,16.7,6.3,18.6,12.8h124.3V0.8h9.5V112H255.6z M541.9,124.8v91.9H389.5
		V426h-57.6c-2.6,8.9-15.2,14.6-28.1,12.8c-12.9-1.8-21.2-10.4-18.6-19.3c2.6-8.9,15.2-14.6,28.1-12.8c9.4,1.3,16.7,6.3,18.6,12.8
		h48.1V210.1h152.5v-85.4c-12.9-1.8-21.2-10.4-18.6-19.3c2.6-8.9,15.2-14.6,28.1-12.8c12.9,1.8,21.2,10.4,18.6,19.3
		C558.6,118.4,551.3,123.5,541.9,124.8z M484.3,269c-2.6,8.9-15.2,14.6-28.1,12.8c-12.9-1.8-21.2-10.4-18.6-19.3
		c2.6-8.9,15.2-14.6,28.1-12.8c9.4,1.3,16.7,6.3,18.6,12.8h124.3V124.8c-12.9-1.8-21.2-10.4-18.6-19.3s15.2-14.6,28.1-12.8
		c12.9,1.8,21.2,10.4,18.6,19.3c-1.9,6.4-9.2,11.4-18.6,12.8V269H484.3z M560.5,59.7c-2.6,8.9-15.2,14.6-28.1,12.8
		c-12.9-1.8-21.2-10.4-18.6-19.3s15.2-14.6,28.1-12.8c9.4,1.3,16.7,6.3,18.6,12.8h133.9v144.3c12.9,1.8,21.2,10.4,18.6,19.3
		c-2.6,8.9-15.2,14.6-28.1,12.8s-21.2-10.4-18.6-19.3c1.9-6.4,9.2-11.4,18.6-12.8V59.7H560.5z M1047.4,942.9
		c2.6-8.9,15.2-14.6,28.1-12.8c12.9,1.8,21.2,10.4,18.6,19.3c-2.6,8.9-15.2,14.6-28.1,12.8c-9.4-1.3-16.7-6.3-18.6-12.8H465.7v45.8
		h-9.5v-52.3H1047.4z M1151.8,491.1v33h76.2v111.2h-76.2v202.8h228.7v157h-9.5V844.7h-228.7V628.8h76.2v-98.1h-76.2v-39.6
		c-12.9-1.8-21.2-10.4-18.6-19.3c2.6-8.9,15.2-14.6,28.1-12.8c12.9,1.8,21.2,10.4,18.6,19.3C1168.4,484.8,1161.1,489.8,1151.8,491.1
		z M255.6,59.7c-2.6,8.9-15.2,14.6-28.1,12.8c-12.9-1.8-21.2-10.4-18.6-19.3s15.2-14.6,28.1-12.8c9.4,1.3,16.7,6.3,18.6,12.8h48.1
		V7.3h-76.2V0.8h85.8v58.9H255.6z M789.2,164.3c-2.6,8.9-15.2,14.6-28.1,12.8c-12.9-1.8-21.2-10.4-18.6-19.3
		c2.6-8.9,15.2-14.6,28.1-12.8c9.4,1.3,16.7,6.3,18.6,12.8h124.3V0.8h238.2v6.5H923.1v157H789.2z M560.5,7.3
		c-2.6,8.9-15.2,14.6-28.1,12.8c-12.9-1.8-21.2-10.4-18.6-19.3h9.9c-2.6,5.1,1.3,10.7,8.7,12.5c7.4,1.8,15.6-0.9,18.2-6
		c1.1-2.1,1.1-4.4,0-6.5h296.2V112h-85.8V72.4c-12.9-1.8-21.2-10.4-18.6-19.3c2.6-8.9,15.2-14.6,28.1-12.8
		c12.9,1.8,21.2,10.4,18.6,19.3c-1.9,6.4-9.2,11.4-18.6,12.8v33h66.7V7.3C837.3,7.3,560.5,7.3,560.5,7.3z M560.5,321.4
		c-2.6,8.9-15.2,14.6-28.1,12.8c-12.9-1.8-21.2-10.4-18.6-19.3c2.6-8.9,15.2-14.6,28.1-12.8c9.4,1.3,16.7,6.3,18.6,12.8h91
		L804,210.1h185.8V72.4c-12.9-1.8-21.2-10.4-18.6-19.3c2.6-8.9,15.2-14.6,28.1-12.8c12.9,1.8,21.2,10.4,18.6,19.3
		c-1.9,6.4-9.2,11.4-18.6,12.8v144.3H807.9L655.5,321.4C655.5,321.4,560.5,321.4,560.5,321.4z M694.4,616.1
		c12.9,1.8,21.2,10.4,18.6,19.3c-2.6,8.9-15.2,14.6-28.1,12.8c-12.9-1.8-21.2-10.4-18.6-19.3c1.9-6.4,9.2-11.4,18.6-12.8V365.8
		l150.5-103.3H1066v-190c-12.9-1.8-21.2-10.4-18.6-19.3c2.6-8.9,15.2-14.6,28.1-12.8c12.9,1.8,21.2,10.4,18.6,19.3
		c-1.9,6.4-9.2,11.4-18.6,12.8V269H839.3l-144.9,99.5V616.1z M770.6,720.8c12.9,1.8,21.2,10.4,18.6,19.3
		c-2.6,8.9-15.2,14.6-28.1,12.8c-12.9-1.8-21.2-10.4-18.6-19.3c1.9-6.4,9.2-11.4,18.6-12.8V395.3l117.2-80.4h550.3
		c1.9-6.4,9.2-11.4,18.6-12.8v6.8c-7.4,1.8-11.4,7.4-8.7,12.5c1.4,2.8,4.7,5,8.7,6v6.8c-9.4-1.3-16.7-6.3-18.6-12.8H882.2
		l-111.5,76.6V720.8z M84.6,511.4c12.9,1.8,21.2,10.4,18.6,19.3c-2.6,8.9-15.2,14.6-28.1,12.8S53.8,533,56.4,524.2
		c1.9-6.4,9.2-11.4,18.6-12.8v-11.5l228.7-157V157.8h152.5V0.8h9.5v163.6H313.2v181.3l-228.7,157V511.4z M237,177.1v142.3L8.3,476.4
		v204.7h124.3c2.6-8.9,15.2-14.6,28.1-12.8s21.2,10.4,18.6,19.3c-2.6,8.9-15.2,14.6-28.1,12.8c-9.4-1.3-16.7-6.3-18.6-12.8H-1.2
		v-214l228.7-157V177.1c-12.9-1.8-21.2-10.4-18.6-19.3c2.6-8.9,15.2-14.6,28.1-12.8s21.2,10.4,18.6,19.3
		C253.7,170.8,246.4,175.8,237,177.1z M160.8,229.4v63.8l-162,111.2v-9.2l152.5-104.7v-61.1c-12.9-1.8-21.2-10.4-18.6-19.3
		c2.6-8.9,15.2-14.6,28.1-12.8c12.9,1.8,21.2,10.4,18.6,19.3C177.4,223.1,170.1,228.1,160.8,229.4z M56.4,105.5
		c2.6-8.9,15.2-14.6,28.1-12.8c12.9,1.8,21.2,10.4,18.6,19.3c-2.6,8.9-15.2,14.6-28.1,12.8c-9.4-1.3-16.7-6.3-18.6-12.8H43.6
		l-44.8,30.8v-9.2l40.9-28.1H56.4z M1322.8,164.3c-2.6,8.9-15.2,14.6-28.1,12.8s-21.2-10.4-18.6-19.3c2.6-8.9,15.2-14.6,28.1-12.8
		c9.4,1.3,16.7,6.3,18.6,12.8h89l35.3-24.2v9.2l-31.4,21.6H1322.8z M1246.6,687.7c-2.6,8.9-15.2,14.6-28.1,12.8
		c-12.9-1.8-21.2-10.4-18.6-19.3c2.6-8.9,15.2-14.6,28.1-12.8c9.4,1.3,16.7,6.3,18.6,12.8h124.3V447.6l76.2-52.3v9.2l-66.7,45.8
		v237.4H1246.6z M255.6,792.4c-2.6,8.9-15.2,14.6-28.1,12.8c-12.9-1.8-21.2-10.4-18.6-19.3s15.2-14.6,28.1-12.8
		c9.4,1.3,16.7,6.3,18.6,12.8h48.1V712l-111.5-76.6h-89c-2.6,8.9-15.2,14.6-28.1,12.8c-12.9-1.8-21.2-10.4-18.6-19.3
		c2.6-8.9,15.2-14.6,28.1-12.8c9.4,1.3,16.7,6.3,18.6,12.8h93l117.2,80.4v83.1C313.2,792.4,255.6,792.4,255.6,792.4z M971.2,838.2
		c2.6-8.9,15.2-14.6,28.1-12.8c12.9,1.8,21.2,10.4,18.6,19.3c-2.6,8.9-15.2,14.6-28.1,12.8c-9.4-1.3-16.7-6.3-18.6-12.8h-515V659.6
		L268.5,530.7h-89.1c-2.6,8.9-15.2,14.6-28.1,12.8c-12.9-1.8-21.2-10.4-18.6-19.3c2.6-8.9,15.2-14.6,28.1-12.8
		c9.4,1.3,16.7,6.3,18.6,12.8h92.9L465.7,657v181.2H971.2L971.2,838.2z M255.6,844.7c-2.6,8.9-15.2,14.6-28.1,12.8
		c-12.9-1.8-21.2-10.4-18.6-19.3s15.2-14.6,28.1-12.8c9.4,1.3,16.7,6.3,18.6,12.8h124.3V685.8L230.3,583H103.1
		c-2.6,8.9-15.2,14.6-28.1,12.8s-21.2-10.4-18.6-19.3c2.6-8.9,15.2-14.6,28.1-12.8c9.4,1.3,16.7,6.3,18.6,12.8h131.1l155.3,106.6
		v161.6C389.5,844.7,255.6,844.7,255.6,844.7z M160.8,131v5.3L43.6,216.7H-1.2v-6.5h40.9l111.5-76.6V0.8h9.5V131z M8.3,982.4
		c9.4,1.3,16.7,6.3,18.6,12.8H17c-2.6-5.1-10.8-7.8-18.2-6c0,0,0,0,0,0v-151h85.8v157H75V844.7H8.3V982.4z M160.8,789.1v206.1h-9.5
		V792.4H-1.2v-6.5h162V789.1z M79.8,59.7h-81v-6.5H75V0.8h9.5v58.9H79.8z M1380.5,53.1h66.7v6.5h-76.2V0.8h9.5V53.1z M1228,946.1
		v49.1h-9.5v-45.8h-66.7v45.8h-9.5v-52.3h85.8V946.1z M-1.2,302.1c13-1.8,25.5,4,28.1,12.9c0.3,1,0.5,2.1,0.5,3.1
		c0,9-10.7,16.4-23.8,16.4c-1.6,0-3.2-0.1-4.8-0.3v-6.8c7.4,1.8,15.6-0.9,18.2-6c2.6-5.1-1.3-10.7-8.7-12.5c-3.1-0.7-6.4-0.7-9.5,0
		V302.1z M379.9,890.5h9.5v104.7h-9.5V890.5z M560.5,995.2h-9.9c-2.6-5.1-10.8-7.8-18.2-6c-4.1,1-7.3,3.2-8.7,6h-9.9
		c2.6-8.9,15.2-14.6,28.1-12.8C551.3,983.7,558.6,988.8,560.5,995.2z M26.9,0.8C29.5,9.7,21,18.3,8.1,20.1c-3.1,0.4-6.2,0.4-9.3,0
		v-6.8c7.4,1.8,15.6-0.9,18.2-6c1.1-2.1,1.1-4.4,0-6.6H26.9z M1428.6,0.8h9.9c-2.6,5.1,1.3,10.7,8.7,12.5c0,0,0,0,0,0v6.8
		C1434.3,18.3,1425.9,9.7,1428.6,0.8C1428.6,0.8,1428.6,0.8,1428.6,0.8z M1447.2,982.4v6.8c-4.1,1-7.3,3.2-8.7,6h-9.9
		C1430.5,988.8,1437.8,983.8,1447.2,982.4z M460.9,327.9c7.9,0,14.3-4.4,14.3-9.8s-6.4-9.8-14.3-9.8s-14.3,4.4-14.3,9.8
		S453,327.9,460.9,327.9z M460.9,275.6c7.9,0,14.3-4.4,14.3-9.8c0-5.4-6.4-9.8-14.3-9.8s-14.3,4.4-14.3,9.8
		C446.6,271.2,453,275.6,460.9,275.6z M537.2,327.9c7.9,0,14.3-4.4,14.3-9.8s-6.4-9.8-14.3-9.8s-14.3,4.4-14.3,9.8
		S529.3,327.9,537.2,327.9z M613.4,380.2c7.9,0,14.3-4.4,14.3-9.8c0-5.4-6.4-9.8-14.3-9.8s-14.3,4.4-14.3,9.8
		C599.1,375.8,605.5,380.2,613.4,380.2z M613.4,432.6c7.9,0,14.3-4.4,14.3-9.8c0-5.4-6.4-9.8-14.3-9.8s-14.3,4.4-14.3,9.8
		C599.1,428.2,605.5,432.6,613.4,432.6z M384.7,537.3c7.9,0,14.3-4.4,14.3-9.8c0-5.4-6.4-9.8-14.3-9.8c-7.9,0-14.3,4.4-14.3,9.8
		C370.4,532.9,376.8,537.3,384.7,537.3z M460.9,589.6c7.9,0,14.3-4.4,14.3-9.8s-6.4-9.8-14.3-9.8s-14.3,4.4-14.3,9.8
		S453,589.6,460.9,589.6z M613.4,746.6c7.9,0,14.3-4.4,14.3-9.8c0-5.4-6.4-9.8-14.3-9.8s-14.3,4.4-14.3,9.8
		C599.1,742.2,605.5,746.6,613.4,746.6z M537.2,798.9c7.9,0,14.3-4.4,14.3-9.8c0-5.4-6.4-9.8-14.3-9.8s-14.3,4.4-14.3,9.8
		C522.9,794.5,529.3,798.9,537.2,798.9z M689.6,746.6c7.9,0,14.3-4.4,14.3-9.8c0-5.4-6.4-9.8-14.3-9.8s-14.3,4.4-14.3,9.8
		C675.3,742.2,681.7,746.6,689.6,746.6z M689.6,641.9c7.9,0,14.3-4.4,14.3-9.8s-6.4-9.8-14.3-9.8s-14.3,4.4-14.3,9.8
		S681.7,641.9,689.6,641.9z M765.9,746.6c7.9,0,14.3-4.4,14.3-9.8c0-5.4-6.4-9.8-14.3-9.8s-14.3,4.4-14.3,9.8
		C751.6,742.2,758,746.6,765.9,746.6z M918.3,798.9c7.9,0,14.3-4.4,14.3-9.8c0-5.4-6.4-9.8-14.3-9.8s-14.3,4.4-14.3,9.8
		C904,794.5,910.4,798.9,918.3,798.9z M918.3,746.6c7.9,0,14.3-4.4,14.3-9.8c0-5.4-6.4-9.8-14.3-9.8s-14.3,4.4-14.3,9.8
		C904,742.2,910.4,746.6,918.3,746.6z M842.1,537.3c7.9,0,14.3-4.4,14.3-9.8c0-5.4-6.4-9.8-14.3-9.8s-14.3,4.4-14.3,9.8
		C827.8,532.9,834.2,537.3,842.1,537.3z M918.3,537.3c7.9,0,14.3-4.4,14.3-9.8c0-5.4-6.4-9.8-14.3-9.8S904,522,904,527.4
		C904,532.9,910.4,537.3,918.3,537.3z M994.5,851.3c7.9,0,14.3-4.4,14.3-9.8s-6.4-9.8-14.3-9.8s-14.3,4.4-14.3,9.8
		S986.7,851.3,994.5,851.3z M994.5,903.6c7.9,0,14.3-4.4,14.3-9.8s-6.4-9.8-14.3-9.8s-14.3,4.4-14.3,9.8S986.7,903.6,994.5,903.6z
		 M1070.8,956c7.9,0,14.3-4.4,14.3-9.8s-6.4-9.8-14.3-9.8l0,0c-7.9,0-14.3,4.4-14.3,9.8S1062.9,956,1070.8,956z M1147,484.9
		c7.9,0,14.3-4.4,14.3-9.8c0-5.4-6.4-9.8-14.3-9.8c-7.9,0-14.3,4.4-14.3,9.8C1132.7,480.5,1139.1,484.9,1147,484.9z M1147,589.6
		c7.9,0,14.3-4.4,14.3-9.8s-6.4-9.8-14.3-9.8c-7.9,0-14.3,4.4-14.3,9.8S1139.1,589.6,1147,589.6z M1223.2,484.9
		c7.9,0,14.3-4.4,14.3-9.8c0-5.4-6.4-9.8-14.3-9.8c-7.9,0-14.3,4.4-14.3,9.8C1208.9,480.5,1215.3,484.9,1223.2,484.9z M1299.5,432.6
		c7.9,0,14.3-4.4,14.3-9.8c0-5.4-6.4-9.8-14.3-9.8c-7.9,0-14.3,4.4-14.3,9.8C1285.2,428.2,1291.6,432.6,1299.5,432.6z M842.1,432.6
		c7.9,0,14.3-4.4,14.3-9.8c0-5.4-6.4-9.8-14.3-9.8s-14.3,4.4-14.3,9.8C827.8,428.2,834.2,432.6,842.1,432.6z M842.1,484.9
		c7.9,0,14.3-4.4,14.3-9.8c0-5.4-6.4-9.8-14.3-9.8s-14.3,4.4-14.3,9.8C827.8,480.5,834.2,484.9,842.1,484.9z M918.3,380.2
		c7.9,0,14.3-4.4,14.3-9.8c0-5.4-6.4-9.8-14.3-9.8S904,365,904,370.4C904,375.8,910.4,380.2,918.3,380.2z M1375.7,380.2
		c7.9,0,14.3-4.4,14.3-9.8c0-5.4-6.4-9.8-14.3-9.8c-7.9,0-14.3,4.4-14.3,9.8C1361.4,375.8,1367.8,380.2,1375.7,380.2z M1299.5,170.9
		c7.9,0,14.3-4.4,14.3-9.8s-6.4-9.8-14.3-9.8c-7.9,0-14.3,4.4-14.3,9.8S1291.6,170.9,1299.5,170.9z M1375.7,118.6
		c7.9,0,14.3-4.4,14.3-9.8c0-5.4-6.4-9.8-14.3-9.8c-7.9,0-14.3,4.4-14.3,9.8C1361.4,114.2,1367.8,118.6,1375.7,118.6z M1223.2,118.6
		c7.9,0,14.3-4.4,14.3-9.8c0-5.4-6.4-9.8-14.3-9.8c-7.9,0-14.3,4.4-14.3,9.8C1208.9,114.2,1215.3,118.6,1223.2,118.6z M1223.2,66.2
		c7.9,0,14.3-4.4,14.3-9.8s-6.4-9.8-14.3-9.8c-7.9,0-14.3,4.4-14.3,9.8S1215.3,66.2,1223.2,66.2z M1147,66.2
		c7.9,0,14.3-4.4,14.3-9.8s-6.4-9.8-14.3-9.8c-7.9,0-14.3,4.4-14.3,9.8S1139.1,66.2,1147,66.2z M1070.8,66.2
		c7.9,0,14.3-4.4,14.3-9.8s-6.4-9.8-14.3-9.8l0,0c-7.9,0-14.3,4.4-14.3,9.8S1062.9,66.2,1070.8,66.2z M994.5,66.2
		c7.9,0,14.3-4.4,14.3-9.8s-6.4-9.8-14.3-9.8s-14.3,4.4-14.3,9.8S986.7,66.2,994.5,66.2z M232.2,118.6c7.9,0,14.3-4.4,14.3-9.8
		c0-5.4-6.4-9.8-14.3-9.8c-7.9,0-14.3,4.4-14.3,9.8C218,114.2,224.4,118.6,232.2,118.6z M79.8,118.6c7.9,0,14.3-4.4,14.3-9.8
		c0-5.4-6.4-9.8-14.3-9.8s-14.3,4.4-14.3,9.8C65.5,114.2,71.9,118.6,79.8,118.6z M232.2,170.9c7.9,0,14.3-4.4,14.3-9.8
		s-6.4-9.8-14.3-9.8c-7.9,0-14.3,4.4-14.3,9.8S224.4,170.9,232.2,170.9z M156,223.2c7.9,0,14.3-4.4,14.3-9.8c0-5.4-6.4-9.8-14.3-9.8
		s-14.3,4.4-14.3,9.8C141.7,218.8,148.1,223.2,156,223.2z M232.2,66.2c7.9,0,14.3-4.4,14.3-9.8s-6.4-9.8-14.3-9.8
		c-7.9,0-14.3,4.4-14.3,9.8S224.4,66.2,232.2,66.2z M232.2,851.3c7.9,0,14.3-4.4,14.3-9.8s-6.4-9.8-14.3-9.8
		c-7.9,0-14.3,4.4-14.3,9.8S224.4,851.3,232.2,851.3z M308.5,956c7.9,0,14.3-4.4,14.3-9.8s-6.4-9.8-14.3-9.8s-14.3,4.4-14.3,9.8
		S300.6,956,308.5,956z M232.2,746.6c7.9,0,14.3-4.4,14.3-9.8c0-5.4-6.4-9.8-14.3-9.8c-7.9,0-14.3,4.4-14.3,9.8
		C218,742.2,224.4,746.6,232.2,746.6z M232.2,798.9c7.9,0,14.3-4.4,14.3-9.8c0-5.4-6.4-9.8-14.3-9.8c-7.9,0-14.3,4.4-14.3,9.8
		C218,794.5,224.4,798.9,232.2,798.9z M156,694.3c7.9,0,14.3-4.4,14.3-9.8c0-5.4-6.4-9.8-14.3-9.8s-14.3,4.4-14.3,9.8
		C141.7,689.9,148.1,694.3,156,694.3z M537.2,118.6c7.9,0,14.3-4.4,14.3-9.8c0-5.4-6.4-9.8-14.3-9.8s-14.3,4.4-14.3,9.8
		C522.9,114.2,529.3,118.6,537.2,118.6z M613.4,118.6c7.9,0,14.3-4.4,14.3-9.8c0-5.4-6.4-9.8-14.3-9.8s-14.3,4.4-14.3,9.8
		C599.1,114.2,605.5,118.6,613.4,118.6z M537.2,66.2c7.9,0,14.3-4.4,14.3-9.8s-6.4-9.8-14.3-9.8s-14.3,4.4-14.3,9.8
		S529.3,66.2,537.2,66.2z M689.6,223.2c7.9,0,14.3-4.4,14.3-9.8c0-5.4-6.4-9.8-14.3-9.8s-14.3,4.4-14.3,9.8
		C675.3,218.8,681.7,223.2,689.6,223.2z M765.9,170.9c7.9,0,14.3-4.4,14.3-9.8s-6.4-9.8-14.3-9.8s-14.3,4.4-14.3,9.8
		S758,170.9,765.9,170.9z M765.9,66.2c7.9,0,14.3-4.4,14.3-9.8s-6.4-9.8-14.3-9.8s-14.3,4.4-14.3,9.8S758,66.2,765.9,66.2z
		 M1299.5,641.9c7.9,0,14.3-4.4,14.3-9.8s-6.4-9.8-14.3-9.8c-7.9,0-14.3,4.4-14.3,9.8S1291.6,641.9,1299.5,641.9z M1223.2,694.3
		c7.9,0,14.3-4.4,14.3-9.8c0-5.4-6.4-9.8-14.3-9.8c-7.9,0-14.3,4.4-14.3,9.8C1208.9,689.9,1215.3,694.3,1223.2,694.3z M1223.2,746.6
		c7.9,0,14.3-4.4,14.3-9.8c0-5.4-6.4-9.8-14.3-9.8c-7.9,0-14.3,4.4-14.3,9.8C1208.9,742.2,1215.3,746.6,1223.2,746.6z M1223.2,798.9
		c7.9,0,14.3-4.4,14.3-9.8c0-5.4-6.4-9.8-14.3-9.8c-7.9,0-14.3,4.4-14.3,9.8C1208.9,794.5,1215.3,798.9,1223.2,798.9z M79.8,589.6
		c7.9,0,14.3-4.4,14.3-9.8s-6.4-9.8-14.3-9.8s-14.3,4.4-14.3,9.8S71.9,589.6,79.8,589.6z M79.8,641.9c7.9,0,14.3-4.4,14.3-9.8
		s-6.4-9.8-14.3-9.8s-14.3,4.4-14.3,9.8S71.9,641.9,79.8,641.9z M79.8,537.3c7.9,0,14.3-4.4,14.3-9.8c0-5.4-6.4-9.8-14.3-9.8
		s-14.3,4.4-14.3,9.8C65.5,532.9,71.9,537.3,79.8,537.3z M156,537.3c7.9,0,14.3-4.4,14.3-9.8c0-5.4-6.4-9.8-14.3-9.8
		s-14.3,4.4-14.3,9.8C141.7,532.9,148.1,537.3,156,537.3z M79.8,275.6c7.9,0,14.3-4.4,14.3-9.8c0-5.4-6.4-9.8-14.3-9.8
		s-14.3,4.4-14.3,9.8C65.5,271.2,71.9,275.6,79.8,275.6z M232.2,484.9c7.9,0,14.3-4.4,14.3-9.8c0-5.4-6.4-9.8-14.3-9.8
		c-7.9,0-14.3,4.4-14.3,9.8C218,480.5,224.4,484.9,232.2,484.9z M308.5,432.6c7.9,0,14.3-4.4,14.3-9.8c0-5.4-6.4-9.8-14.3-9.8
		s-14.3,4.4-14.3,9.8C294.2,428.2,300.6,432.6,308.5,432.6z"/>
</g>
<g id="Layer_2">
</g>
</svg>
