<svg xmlns="http://www.w3.org/2000/svg" viewBox="0 0 651.96 377.48"><defs><style>.a{fill:#fff;}.b{fill:#0075cf;}</style></defs><path class="a" d="M239.39,639.9a18.06,18.06,0,0,1,3.58,5.31,15.77,15.77,0,0,1,1.33,6.42v23.46h-6.36v-17.4H198.88v17.4h-6.3V651.63a15.79,15.79,0,0,1,1.33-6.48,17.1,17.1,0,0,1,3.58-5.25,16.63,16.63,0,0,1,5.26-3.56,15.9,15.9,0,0,1,6.41-1.3h18.49a16,16,0,0,1,6.42,1.3A17.61,17.61,0,0,1,239.39,639.9Zm-30.34,1.44a9.4,9.4,0,0,0-3.85.81,10.71,10.71,0,0,0-3.2,2.17,10.5,10.5,0,0,0-2.23,3.17,9.64,9.64,0,0,0-.89,3.85h39.06a9.82,9.82,0,0,0-.9-3.85,10.57,10.57,0,0,0-5.46-5.34,9.67,9.67,0,0,0-3.93-.81Z" transform="translate(-192.58 -329.82)"/><path class="a" d="M296.65,635.1a15.35,15.35,0,0,1,6.3,1.3,17,17,0,0,1,5.17,3.5,15.78,15.78,0,0,1,3.5,5.2,16.07,16.07,0,0,1,1.27,6.35v23.64h-6.18V651.45a9.84,9.84,0,0,0-.78-3.9,10.61,10.61,0,0,0-2.14-3.21,10.26,10.26,0,0,0-3.18-2.19,9.32,9.32,0,0,0-3.84-.81H271.4v33.75h-6.18v-40Z" transform="translate(-192.58 -329.82)"/><path class="a" d="M335.14,635H370a16,16,0,0,1,6.51,1.33,17.17,17.17,0,0,1,5.28,3.58,16.86,16.86,0,0,1,3.56,5.26,16.08,16.08,0,0,1,1.3,6.42v6.81a16.16,16.16,0,0,1-1.33,6.51,17,17,0,0,1-3.59,5.28,16.61,16.61,0,0,1-5.28,3.56,16.34,16.34,0,0,1-6.45,1.3h-34.9Zm45.19,16.47a9.67,9.67,0,0,0-.81-3.93,10.39,10.39,0,0,0-2.22-3.24,10.93,10.93,0,0,0-3.3-2.19,9.88,9.88,0,0,0-4-.81h-28.6v27.39h28.72a9.67,9.67,0,0,0,3.93-.81,10.22,10.22,0,0,0,5.43-5.46,10,10,0,0,0,.81-4Z" transform="translate(-192.58 -329.82)"/><path class="a" d="M406.45,675.09V651.45a15.94,15.94,0,0,1,1.27-6.33,16.32,16.32,0,0,1,3.47-5.17,16.7,16.7,0,0,1,5.14-3.49,15.56,15.56,0,0,1,6.36-1.3h28.55v6.24H422.69a9.86,9.86,0,0,0-7.08,2.94,10.89,10.89,0,0,0-2.17,3.21,9.53,9.53,0,0,0-.81,3.9v23.64Z" transform="translate(-192.58 -329.82)"/><path class="a" d="M485.68,675.09A16.58,16.58,0,0,1,469,658.44v-6.81a16.16,16.16,0,0,1,1.3-6.45,16.58,16.58,0,0,1,8.84-8.84,16.26,16.26,0,0,1,6.5-1.3h28.08a16.26,16.26,0,0,1,6.5,1.3,16.54,16.54,0,0,1,5.29,3.56,16.78,16.78,0,0,1,3.56,5.28,16.34,16.34,0,0,1,1.3,6.45v6.81a16.49,16.49,0,0,1-1.3,6.51,16.78,16.78,0,0,1-3.56,5.28,16.57,16.57,0,0,1-11.79,4.86Zm-10.29-16.65a10,10,0,0,0,.81,4,10.23,10.23,0,0,0,5.46,5.46,10,10,0,0,0,4,.81h28.08a10,10,0,0,0,4-.81,10.76,10.76,0,0,0,3.29-2.19,10.16,10.16,0,0,0,2.23-3.27,10,10,0,0,0,.81-4v-6.81a9.88,9.88,0,0,0-.81-4,10.45,10.45,0,0,0-5.52-5.52,10,10,0,0,0-4-.81H485.68a10,10,0,0,0-4,.81,10.14,10.14,0,0,0-3.26,2.22,10.77,10.77,0,0,0-2.2,3.3,9.88,9.88,0,0,0-.81,4Z" transform="translate(-192.58 -329.82)"/><path class="a" d="M616.34,636.4a16.51,16.51,0,0,1,8.64,8.7,15.92,15.92,0,0,1,1.3,6.35v23.64h-6.19V651.45a9.84,9.84,0,0,0-.78-3.9,10.43,10.43,0,0,0-2.14-3.21,10.21,10.21,0,0,0-3.17-2.19,9.4,9.4,0,0,0-3.85-.81H590.68v33.75h-6.24V641.34h-26v33.75h-6.18v-40H610A15.42,15.42,0,0,1,616.34,636.4Z" transform="translate(-192.58 -329.82)"/><path class="a" d="M650,647.18a10.76,10.76,0,0,1,1.07-4.71,12.36,12.36,0,0,1,2.83-3.85,13.66,13.66,0,0,1,4.13-2.57,13.31,13.31,0,0,1,5-.95h25a12.38,12.38,0,0,1,4.86,1,13.24,13.24,0,0,1,4.07,2.69,13.09,13.09,0,0,1,2.81,4,11.33,11.33,0,0,1,1,4.79,11.52,11.52,0,0,1-1,4.86,13.21,13.21,0,0,1-12,7.57H656.15v4.68a5.07,5.07,0,0,0,2.52,3.12,8.42,8.42,0,0,0,4.3,1.15h36.7v6.19h-37a14.8,14.8,0,0,1-4.48-.7,13.55,13.55,0,0,1-4-2,11.06,11.06,0,0,1-3-3.23A8.66,8.66,0,0,1,650,664.8Zm13-5.84a6.08,6.08,0,0,0-2.22.46,9.59,9.59,0,0,0-2.23,1.24,6.48,6.48,0,0,0-1.7,1.91,4.58,4.58,0,0,0-.67,2.4v6.36H688a6.73,6.73,0,0,0,2.49-.49,7.35,7.35,0,0,0,2.11-1.3A6.18,6.18,0,0,0,694,650a5.75,5.75,0,0,0,0-4.91,6.11,6.11,0,0,0-1.5-2,7,7,0,0,0-2.2-1.3,7.22,7.22,0,0,0-2.57-.46Z" transform="translate(-192.58 -329.82)"/><path class="a" d="M723.82,635h34.91a16,16,0,0,1,6.5,1.33,17.17,17.17,0,0,1,5.28,3.58,16.86,16.86,0,0,1,3.56,5.26,15.91,15.91,0,0,1,1.3,6.42v6.81A16,16,0,0,1,774,665a17.17,17.17,0,0,1-3.58,5.28,16.77,16.77,0,0,1-5.29,3.56,16.29,16.29,0,0,1-6.44,1.3H723.82ZM769,651.51a9.67,9.67,0,0,0-.81-3.93,10.39,10.39,0,0,0-2.22-3.24,10.8,10.8,0,0,0-3.3-2.19,9.87,9.87,0,0,0-3.95-.81H730.12v27.39h28.72a9.67,9.67,0,0,0,3.93-.81,10.22,10.22,0,0,0,5.43-5.46,10,10,0,0,0,.81-4Z" transform="translate(-192.58 -329.82)"/><path class="a" d="M807.73,675.09a11.88,11.88,0,0,1-3.7-.58,14.41,14.41,0,0,1-3.35-1.56,12.3,12.3,0,0,1-2.77-2.37,12.64,12.64,0,0,1-2-3,16.69,16.69,0,0,1-.84-2.37,9.88,9.88,0,0,1-.31-2.49,11.33,11.33,0,0,1,1-4.85,13,13,0,0,1,6.87-6.62,12.53,12.53,0,0,1,4.86-1h30.8v-1.45a6.12,6.12,0,0,0-.58-2.63,7.52,7.52,0,0,0-1.5-2.16,6.76,6.76,0,0,0-4.8-2h-28v-6.24h28a12.92,12.92,0,0,1,5.09,1,13.43,13.43,0,0,1,4.16,2.78,12.69,12.69,0,0,1,2.8,4.13,12.87,12.87,0,0,1,1,5.08v26.3ZM804,657.64a6.46,6.46,0,0,0-2.16,2.16,5.57,5.57,0,0,0-.78,2.92,5.48,5.48,0,0,0,.55,2.46,6.37,6.37,0,0,0,1.41,1.93,6.64,6.64,0,0,0,2,1.3,6.47,6.47,0,0,0,2.52.49h30.8V656.54H807.73A6.5,6.5,0,0,0,804,657.64Z" transform="translate(-192.58 -329.82)"/><path class="a" d="M200.11,691.31H202l2.11,5.54,2.13-5.54h1.9l-2.75,6.93,2.73,6.57,5.38-13.59h2.2l-6.66,15.92h-1.75l-3.16-7.51L201,707.14h-1.74l-6.64-15.92h2.17l5.41,13.59,2.71-6.57Z" transform="translate(-192.58 -329.82)"/><path class="a" d="M237.59,705.35v1.79H226.78V691.22h10.61V693H228.8v5.16h7.47v1.68H228.8v5.5Z" transform="translate(-192.58 -329.82)"/><path class="a" d="M268.11,691.22h1.71l6.5,15.92h-2.15l-1.89-4.66H265.6l-1.86,4.66h-2.15Zm3.73,9.69L269,693.55l-3,7.36Z" transform="translate(-192.58 -329.82)"/><path class="a" d="M287.42,707.14V691.22h6.82a4.34,4.34,0,0,1,1.94.43,5,5,0,0,1,1.53,1.17,5.7,5.7,0,0,1,1,1.64,5,5,0,0,1,.36,1.85,5.68,5.68,0,0,1-.23,1.6,4.67,4.67,0,0,1-.68,1.4,4.49,4.49,0,0,1-1,1.08,4,4,0,0,1-1.38.65l3.86,6.1h-2.29l-3.63-5.72h-4.22v5.72Zm2-7.51h4.82a2.4,2.4,0,0,0,1.14-.27,2.72,2.72,0,0,0,.86-.73,3.41,3.41,0,0,0,.56-1.07,4,4,0,0,0,.2-1.25,3.58,3.58,0,0,0-.23-1.27,3.81,3.81,0,0,0-.63-1,2.78,2.78,0,0,0-.92-.72,2.51,2.51,0,0,0-1.11-.26h-4.69Z" transform="translate(-192.58 -329.82)"/><path class="a" d="M321.94,705.35v1.79H311.13V691.22h10.61V693h-8.59v5.16h7.47v1.68h-7.47v5.5Z" transform="translate(-192.58 -329.82)"/><path class="a" d="M335.69,695v12.15h-2V691.22h1.57l9.87,12.4V691.24h2v15.9h-1.7Z" transform="translate(-192.58 -329.82)"/><path class="a" d="M359.5,695.9V691h1.71v4.86Z" transform="translate(-192.58 -329.82)"/><path class="a" d="M385.07,693h-5.49v14.13h-2V693h-5.5v-1.79h13Z" transform="translate(-192.58 -329.82)"/><path class="a" d="M419.65,694.56a3.16,3.16,0,0,0-.71-.61,6.37,6.37,0,0,0-1-.52,6.44,6.44,0,0,0-1.22-.38,6.34,6.34,0,0,0-1.38-.15,4.36,4.36,0,0,0-2.73.69,2.34,2.34,0,0,0-.86,1.91,1.84,1.84,0,0,0,1,1.81,6.05,6.05,0,0,0,1.31.52c.52.15,1.14.31,1.86.47a19.59,19.59,0,0,1,2.23.62,6.51,6.51,0,0,1,1.71.86,3.47,3.47,0,0,1,1.07,1.26,4,4,0,0,1,.37,1.82,4.25,4.25,0,0,1-.44,2,3.92,3.92,0,0,1-1.23,1.39,5.13,5.13,0,0,1-1.82.81,9.79,9.79,0,0,1-2.29.26,10.6,10.6,0,0,1-3.49-.57,9.69,9.69,0,0,1-3-1.68l1-1.7a5,5,0,0,0,.93.76,7.94,7.94,0,0,0,1.3.69,10.3,10.3,0,0,0,1.57.49,7.78,7.78,0,0,0,1.76.19,4.93,4.93,0,0,0,2.65-.6,2.25,2.25,0,0,0,.64-3,2.49,2.49,0,0,0-.89-.8,7,7,0,0,0-1.44-.59c-.58-.18-1.23-.35-2-.53a20.56,20.56,0,0,1-2.13-.63,5.51,5.51,0,0,1-1.53-.81,3,3,0,0,1-.93-1.14,3.79,3.79,0,0,1-.32-1.61,4.45,4.45,0,0,1,.43-2,4.09,4.09,0,0,1,1.19-1.48,5,5,0,0,1,1.81-.91,8.4,8.4,0,0,1,2.29-.3,8.17,8.17,0,0,1,2.92.49,8.47,8.47,0,0,1,2.31,1.32Z" transform="translate(-192.58 -329.82)"/><path class="a" d="M444.41,693h-5.49v14.13h-2V693h-5.49v-1.79h13Z" transform="translate(-192.58 -329.82)"/><path class="a" d="M461.66,707.25a6.74,6.74,0,0,1-3.06-.68,7.58,7.58,0,0,1-2.37-1.82,8.38,8.38,0,0,1-1.52-2.59,8.49,8.49,0,0,1-.54-3,8.3,8.3,0,0,1,.57-3,8.49,8.49,0,0,1,1.58-2.58,7.63,7.63,0,0,1,2.39-1.78,6.86,6.86,0,0,1,3-.66,6.58,6.58,0,0,1,3.05.7,7.87,7.87,0,0,1,2.35,1.85,8.48,8.48,0,0,1,2.06,5.54,8.45,8.45,0,0,1-2.14,5.62,7.55,7.55,0,0,1-2.37,1.77A6.86,6.86,0,0,1,461.66,707.25Zm-5.45-8.07a7.09,7.09,0,0,0,.39,2.34,6.75,6.75,0,0,0,1.11,2,5.42,5.42,0,0,0,1.73,1.39,5.06,5.06,0,0,0,4.53,0,5.7,5.7,0,0,0,1.72-1.44,6.26,6.26,0,0,0,1.07-2,7,7,0,0,0,.37-2.26,7.2,7.2,0,0,0-.39-2.35,6.07,6.07,0,0,0-1.12-2,5.5,5.5,0,0,0-1.73-1.38,5,5,0,0,0-4.49,0,5.39,5.39,0,0,0-1.72,1.42,6.5,6.5,0,0,0-1.09,2A7.19,7.19,0,0,0,456.21,699.18Z" transform="translate(-192.58 -329.82)"/><path class="a" d="M481,707.14V691.22h6.64a4.34,4.34,0,0,1,1.94.43,4.87,4.87,0,0,1,1.52,1.17,5.52,5.52,0,0,1,1,1.64,5,5,0,0,1,.36,1.85,5.42,5.42,0,0,1-.34,1.91,5.21,5.21,0,0,1-.95,1.63,4.76,4.76,0,0,1-1.48,1.15,4.36,4.36,0,0,1-1.92.42H483v5.72Zm2-7.51h4.64a2.44,2.44,0,0,0,1.13-.26,2.51,2.51,0,0,0,.87-.72,3.81,3.81,0,0,0,.56-1.06,4.18,4.18,0,0,0,.2-1.28,3.49,3.49,0,0,0-.24-1.3,3.21,3.21,0,0,0-.63-1.06,2.78,2.78,0,0,0-.91-.69,2.58,2.58,0,0,0-1.12-.25H483Z" transform="translate(-192.58 -329.82)"/><path class="a" d="M503.89,707.14V691.22h6.64a4.34,4.34,0,0,1,1.94.43,4.87,4.87,0,0,1,1.52,1.17,5.52,5.52,0,0,1,1,1.64,5,5,0,0,1,.36,1.85,5.64,5.64,0,0,1-.33,1.91,5.44,5.44,0,0,1-1,1.63,4.65,4.65,0,0,1-1.48,1.15,4.3,4.3,0,0,1-1.92.42h-4.75v5.72Zm2-7.51h4.64a2.44,2.44,0,0,0,1.13-.26,2.51,2.51,0,0,0,.87-.72,3.57,3.57,0,0,0,.56-1.06,4.18,4.18,0,0,0,.2-1.28,3.7,3.7,0,0,0-.23-1.3,3.59,3.59,0,0,0-.63-1.06,2.82,2.82,0,0,0-.92-.69,2.5,2.5,0,0,0-1.11-.25h-4.51Z" transform="translate(-192.58 -329.82)"/><path class="a" d="M526.83,707.14V691.22h2v15.92Z" transform="translate(-192.58 -329.82)"/><path class="a" d="M543.66,695v12.15h-2V691.22h1.57l9.87,12.4V691.24h2v15.9h-1.7Z" transform="translate(-192.58 -329.82)"/><path class="a" d="M579.11,705a6.43,6.43,0,0,1-7.79,1.57,7.64,7.64,0,0,1-2.34-1.83,8.69,8.69,0,0,1-1.56-2.59,8.17,8.17,0,0,1-.57-3,8.31,8.31,0,0,1,.56-3.06,8.44,8.44,0,0,1,1.54-2.55,7.33,7.33,0,0,1,2.36-1.76,6.71,6.71,0,0,1,3-.65,6.89,6.89,0,0,1,3.8,1,6.4,6.4,0,0,1,2.28,2.51l-1.55,1.08a4.82,4.82,0,0,0-1.91-2.07,5.4,5.4,0,0,0-2.67-.67,4.58,4.58,0,0,0-2.19.53,5.41,5.41,0,0,0-1.69,1.39,6.35,6.35,0,0,0-1.07,2,7.19,7.19,0,0,0-.38,2.35,6.71,6.71,0,0,0,1.59,4.41,5.48,5.48,0,0,0,1.75,1.35,4.9,4.9,0,0,0,2.2.5,6,6,0,0,0,4.68-2.52v-2.19h-3.43V699.2h5.14v7.94h-1.71Z" transform="translate(-192.58 -329.82)"/><path class="a" d="M611.65,691.22h1.71l6.5,15.92h-2.15l-1.88-4.66h-6.69l-1.86,4.66h-2.15Zm3.73,9.69-2.87-7.36-3,7.36Z" transform="translate(-192.58 -329.82)"/><path class="a" d="M641,693h-5.5v14.13h-2V693h-5.49v-1.79h13Z" transform="translate(-192.58 -329.82)"/><path class="a" d="M677,693h-5.5v14.13h-2V693H664v-1.79h13Z" transform="translate(-192.58 -329.82)"/><path class="a" d="M701.05,691.22v15.92h-2V699.9h-8.77v7.24h-2V691.22h2v6.88H699v-6.88Z" transform="translate(-192.58 -329.82)"/><path class="a" d="M724.65,705.35v1.79H713.84V691.22h10.6V693h-8.59v5.16h7.47v1.68h-7.47v5.5Z" transform="translate(-192.58 -329.82)"/><path class="a" d="M764.79,707.14V694.83l-5.29,9.44h-1.15L753,694.83v12.31h-2V691.22h2.13l5.77,10.34,5.78-10.34h2.11v15.92Z" transform="translate(-192.58 -329.82)"/><path class="a" d="M786.05,707.25a6.74,6.74,0,0,1-3.06-.68,7.58,7.58,0,0,1-2.37-1.82,8.38,8.38,0,0,1-1.52-2.59,8.49,8.49,0,0,1-.54-3,8.3,8.3,0,0,1,.57-3,8.49,8.49,0,0,1,1.58-2.58,7.63,7.63,0,0,1,2.39-1.78,6.86,6.86,0,0,1,3-.66,6.58,6.58,0,0,1,3,.7,7.87,7.87,0,0,1,2.35,1.85,8.48,8.48,0,0,1,2.06,5.54,8.45,8.45,0,0,1-2.14,5.62,7.44,7.44,0,0,1-2.37,1.77A6.86,6.86,0,0,1,786.05,707.25Zm-5.45-8.07a7.09,7.09,0,0,0,.39,2.34,6.75,6.75,0,0,0,1.11,2,5.42,5.42,0,0,0,1.73,1.39,5.06,5.06,0,0,0,4.53,0,5.7,5.7,0,0,0,1.72-1.44,6.26,6.26,0,0,0,1.07-2,7,7,0,0,0,.37-2.26,7.2,7.2,0,0,0-.39-2.35,6.07,6.07,0,0,0-1.12-2,5.5,5.5,0,0,0-1.73-1.38,5,5,0,0,0-4.49,0,5.39,5.39,0,0,0-1.72,1.42,6.5,6.5,0,0,0-1.09,2A7.19,7.19,0,0,0,780.6,699.18Z" transform="translate(-192.58 -329.82)"/><path class="a" d="M811.8,707.25a6.74,6.74,0,0,1-3.06-.68,7.58,7.58,0,0,1-2.37-1.82,8,8,0,0,1-1.52-2.59,8.49,8.49,0,0,1-.54-3,8.3,8.3,0,0,1,.57-3,8.49,8.49,0,0,1,1.58-2.58,7.51,7.51,0,0,1,2.39-1.78,6.85,6.85,0,0,1,3-.66,6.55,6.55,0,0,1,3,.7,7.79,7.79,0,0,1,2.36,1.85,8.63,8.63,0,0,1,2.06,5.54,8.45,8.45,0,0,1-2.14,5.62,7.59,7.59,0,0,1-2.38,1.77A6.85,6.85,0,0,1,811.8,707.25Zm-5.45-8.07a7.09,7.09,0,0,0,.39,2.34,6.34,6.34,0,0,0,1.11,2,5.42,5.42,0,0,0,1.73,1.39,5.06,5.06,0,0,0,4.53,0,5.66,5.66,0,0,0,1.71-1.44,6.29,6.29,0,0,0,1.08-2,7,7,0,0,0,.37-2.26,7.2,7.2,0,0,0-.39-2.35,6.26,6.26,0,0,0-1.12-2,5.5,5.5,0,0,0-1.73-1.38,5,5,0,0,0-4.5,0,5.46,5.46,0,0,0-1.71,1.42,6.3,6.3,0,0,0-1.09,2A7.19,7.19,0,0,0,806.35,699.18Z" transform="translate(-192.58 -329.82)"/><path class="a" d="M833.1,695v12.15h-2V691.22h1.58l9.86,12.4V691.24h2v15.9h-1.7Z" transform="translate(-192.58 -329.82)"/><circle class="a" cx="592.28" cy="585.19" r="15.64" transform="translate(-432.47 282.62) rotate(-46.53)"/><path class="a" d="M660.93,502.3a8.47,8.47,0,0,1,8.6-1.61.24.24,0,0,0,.27-.39,8.43,8.43,0,0,1-1.61-8.6.25.25,0,0,0-.4-.27A8.43,8.43,0,0,1,659.2,493a.25.25,0,0,0-.27.4,8.43,8.43,0,0,1,1.6,8.59A.25.25,0,0,0,660.93,502.3Z" transform="translate(-192.58 -329.82)"/><path class="a" d="M703.41,381.08a11.42,11.42,0,0,1,9,7.68.33.33,0,0,0,.65-.05,11.44,11.44,0,0,1,7.67-9,.33.33,0,0,0-.05-.64,11.43,11.43,0,0,1-9-7.68.33.33,0,0,0-.65.05,11.42,11.42,0,0,1-7.67,9A.33.33,0,0,0,703.41,381.08Z" transform="translate(-192.58 -329.82)"/><path class="b" d="M708.48,539.81c-1.76.31-3.51.6-5.27.89-4,.66-8,1.42-12,2l-12,1.79-6,.89c-2,.28-4,.51-6,.77l-12.07,1.5-3,.38-3,.3-6,.61-12.09,1.25-12.12,1c-3.12.24-6.23.53-9.35.74h-.06c-.9,0-1.8.11-2.71.15l-12.12.72-6.06.36-6.07.23-12.13.45c-2,.09-4,.12-6.07.14l-6.06.08-12.13.18-12.12-.1c-8.09,0-16.16-.32-24.23-.57-2-.07-4-.1-6.05-.22l-6-.34-12.09-.67c-4-.25-8-.64-12.06-1l-6-.49c-2-.17-4-.32-6-.57l-12-1.33-6-.66-6-.84-11.94-1.65c-4-.58-7.92-1.25-11.86-2a352.21,352.21,0,0,1-46.33-11.31,213,213,0,0,1-21.93-8.4,130.22,130.22,0,0,1-20-11.11c-6.11-4.26-11.68-9.1-15.61-14.58s-6.15-11.41-5.89-17.36a27.78,27.78,0,0,1,1.87-9,42.09,42.09,0,0,1,4.76-8.78,80.37,80.37,0,0,1,15.07-15.69c2.89-2.39,6-4.63,9.14-6.8.8-.53,1.59-1.08,2.39-1.6l2.43-1.52,2.42-1.52c.81-.49,1.66-1,2.5-1.43a190.8,190.8,0,0,1,20.86-10.33c.68-.28,1.36-.55,2-.84l.42-.17,5.09-2.06,5.15-1.92,2.57-1,2.6-.9,5.2-1.78c7-2.26,14-4.41,21.09-6.28a534.46,534.46,0,0,1,86.68-15.41c.72-.08,1.44-.14,2.16-.2a554.86,554.86,0,0,1,85.89-1.6c8.66.55,17.34,1.29,26,2.31l1.72.22c2,.26,3.94.49,5.89.77l5.83.89c7.75,1.27,15.4,2.86,22.86,4.85a143.27,143.27,0,0,1,21.46,7.46,78.23,78.23,0,0,1,9.52,5.12c1.53.9,2.84,1.95,4.23,2.93l1.88,1.59a8.45,8.45,0,0,1,.88.8l.83.82a20.79,20.79,0,0,1,4.65,6.76,11.71,11.71,0,0,1,.65,6.64,20.14,20.14,0,0,1-3.34,7.41,41.53,41.53,0,0,1-3,3.79c-1.22,1.2-2.3,2.47-3.67,3.62a79.2,79.2,0,0,1-8.54,6.7,97.94,97.94,0,0,1-9.55,5.71,157.42,157.42,0,0,1-21.14,9.1,289.65,289.65,0,0,1-45.72,11.71,365.85,365.85,0,0,1-42.2,4.88c-1.71.1-3.43.2-5.15.27a318.91,318.91,0,0,1-47.5-1.18,185,185,0,0,1-23-3.76,105.53,105.53,0,0,1-10.89-3.22,58,58,0,0,1-9.82-4.48,25.42,25.42,0,0,1-7.17-5.92,9.48,9.48,0,0,1-1.6-3c0-.24-.16-.48-.18-.72a5.43,5.43,0,0,0-.1-.72,8,8,0,0,1,.11-1.52,9.8,9.8,0,0,1,1.28-3.45l.15-.27a50.48,50.48,0,0,1,6.1-5.17c.75-.51,1.45-1.08,2.23-1.54l2.31-1.4c.78-.46,1.53-1,2.33-1.38l2.43-1.24,2.43-1.23c.83-.38,1.67-.72,2.51-1.08,1.68-.7,3.32-1.49,5.05-2.07l5.15-1.86,5.25-1.62c1.73-.58,3.52-1,5.29-1.46s3.54-.95,5.33-1.32l5.37-1.18,5.41-1,2.71-.49,2.72-.4,5.45-.79,3.58-.4,1.89-.21,2.74-.29,2.74-.22,5.5-.42,5.49-.25c.93,0,1.84-.1,2.76-.11l2.75,0,1.88,0c1.2,0,2.41,0,3.63,0,3.66.13,7.34.12,11,.44,1.83.14,3.67.21,5.49.4l2.87.33,2.6.28a89.26,89.26,0,0,1,19.84,4.45c.48.17,1,.35,1.44.54a32.16,32.16,0,0,1,9.31,5.42l.3.29a6.36,6.36,0,0,1-.26,1.43,12,12,0,0,1-2.44,4,28.32,28.32,0,0,1-4,3.64c-.38.27-.75.56-1.14.83l-1.19.75a26.56,26.56,0,0,1-2.43,1.47L591,456c-.59.32-1.18.63-1.78.92-1.77.87-3.61,1.64-5.48,2.36l-2.58,1A129.81,129.81,0,0,1,558,465.85a154.08,154.08,0,0,1-18.48,1.6c-1.84,0-3.69.06-5.54,0-2,0-4-.13-6-.2s-4-.31-6-.5a55.11,55.11,0,0,1-11.69-2.52,23,23,0,0,1-5.32-2.58,8.45,8.45,0,0,1-3.6-4.35,6.36,6.36,0,0,1,1.22-5.47,18.79,18.79,0,0,1,4.35-4.18,19,19,0,0,0-4.69,3.94,8.49,8.49,0,0,0-1.52,2.73,6,6,0,0,0-.17,3.19,9.38,9.38,0,0,0,3.71,5.11,24.47,24.47,0,0,0,5.45,3.08,55.87,55.87,0,0,0,10.48,3.06l1.45.26c2,.33,4.07.64,6.11.9s4.08.48,6.14.57c4.62.31,9.26.39,13.89.27q5.38-.15,10.78-.66a138.19,138.19,0,0,0,18.85-3.1c1.22-.29,2.44-.61,3.66-.94l1.91-.52a75.35,75.35,0,0,0,11.85-4.53,39.72,39.72,0,0,0,10.86-7.59c.42-.44.85-.92,1.25-1.41a2.48,2.48,0,0,1,0,.27,11.61,11.61,0,0,1-2.2,4.74,24.41,24.41,0,0,1-3.72,3.89c-.72.56-1.4,1.15-2.16,1.66l-1.12.79-1.16.72c-1.52,1-3.17,1.79-4.79,2.64a99.61,99.61,0,0,1-20.91,6.78,151.81,151.81,0,0,1-21.86,3l-.32,0c-1.88.12-3.76.2-5.64.25a133.54,133.54,0,0,1-16.13-.49,131.18,131.18,0,0,0,14,.75c1.51,0,3,0,4.54-.05,1.18,0,2.36-.08,3.54-.14a152,152,0,0,0,22-2.68,99.42,99.42,0,0,0,21.18-6.59c1.65-.84,3.35-1.63,4.91-2.63l1.21-.72,1.15-.8c.78-.51,1.5-1.12,2.24-1.69a25.6,25.6,0,0,0,4-4,12.89,12.89,0,0,0,2.47-5.18,9.69,9.69,0,0,0,.18-2.34,16.37,16.37,0,0,0,1.52-3,12.76,12.76,0,0,0,.29-8.33,16.43,16.43,0,0,0-4.23-6.61,29,29,0,0,0-5.61-4.23,44.79,44.79,0,0,0-6-3c-2-.86-4.06-1.54-6.1-2.19a105,105,0,0,0-12.4-2.9,202.67,202.67,0,0,0-24.87-2.53,242.45,242.45,0,0,0-36.44,1.41q-6.66.75-13.29,1.87a195.82,195.82,0,0,0-24.5,5.83,105.31,105.31,0,0,0-23.75,10.55,57.91,57.91,0,0,0-10.78,8.59c-.84.87-1.64,1.83-2.44,2.79a31.83,31.83,0,0,0-2.21,3.21,23.85,23.85,0,0,0-2.81,6.6c-.11.41-.21.83-.29,1.25a22.79,22.79,0,0,0-.42,4.55c0,.77.12,1.54.2,2.31a22.07,22.07,0,0,0,.46,2.26,23,23,0,0,0,1,3,22.45,22.45,0,0,0,2.69,4.85,32.37,32.37,0,0,0,5.29,5.72,36.88,36.88,0,0,0,3,2.39,36.48,36.48,0,0,0,4.93,3.89,61.28,61.28,0,0,0,10,5.29,104.44,104.44,0,0,0,10.62,3.72c3.59,1,7.21,1.95,10.86,2.67a214.9,214.9,0,0,0,22.06,3.27,342.73,342.73,0,0,0,53.51,1c11.78-.67,23.54-1.92,35.2-3.68a316.17,316.17,0,0,0,43.46-9.66,206.64,206.64,0,0,0,21-7.57c4-1.71,8-3.59,11.82-5.66l1-.51a115.45,115.45,0,0,0,11.46-6.66,98.64,98.64,0,0,0,10.73-8.22c1.76-1.46,3.39-3.23,5.05-4.89a60.32,60.32,0,0,0,4.62-5.76,44.75,44.75,0,0,0,3.13-5.14,36,36,0,0,0,3.38-9.55,24.65,24.65,0,0,0,.55-4.33l.08-2.22c0-.73-.1-1.47-.15-2.21l-.23-2.22c-.14-.72-.31-1.44-.47-2.15s-.34-1.44-.54-2.14l-.74-2a40.34,40.34,0,0,0-8.79-13.38l-1.33-1.33c-.44-.44-.89-.88-1.35-1.26l-2.77-2.37c-1.9-1.41-3.79-2.88-5.75-4.07a97.75,97.75,0,0,0-11.9-6.52,160.08,160.08,0,0,0-24.49-8.75c-8.24-2.25-16.53-4-24.82-5.36l-6.23-1c-2.07-.31-4.13-.55-6.2-.83-4.13-.57-8.26-1-12.4-1.42-16.54-1.67-33.13-2.37-49.68-2.43s-33.1.77-49.57,2.15l-5.11.45c-3.11.3-6.21.61-9.32.95h0q-17.44,1.89-34.76,4.87c-8.17,1.37-16.28,3-24.39,4.77s-16.16,3.75-24.17,6c-4,1.05-8,2.33-12,3.49s-7.95,2.49-11.89,3.91c-7.91,2.69-15.71,5.8-23.43,9.2a208,208,0,0,0-22.69,11.58c-.93.55-1.86,1.06-2.77,1.64l-2.73,1.75-2.72,1.75c-.9.6-1.77,1.22-2.65,1.83-3.51,2.48-7,5.06-10.32,7.88a95.56,95.56,0,0,0-18.27,19.72A59.88,59.88,0,0,0,288.89,466a45.65,45.65,0,0,0-2.78,14.85,43.15,43.15,0,0,0,.6,7.7,44.89,44.89,0,0,0,2,7.38,49.71,49.71,0,0,0,7.07,12.86A67.66,67.66,0,0,0,305.24,519a95.29,95.29,0,0,0,10.64,8.11,125.85,125.85,0,0,0,12.92,7.43,156.42,156.42,0,0,0,14.14,6.9A258.29,258.29,0,0,0,385.3,554.9,418,418,0,0,0,429,562.58c7.32,1,14.68,1.72,22,2.48l6.05.52,5,.42c3.68.34,7.37.52,11.06.77,3.16.2,6.32.37,9.49.53,26.34,1.31,52.73,1.24,79.07.1q12.24-.55,24.47-1.41c6.57-.47,13.14-1,19.7-1.6q22-2.13,43.95-5.21-17.41,2.18-34.91,3.74-8.85.81-17.72,1.43h0c-28.93,2-57.94,2.79-86.91,2q-18.48-.51-36.94-1.83c-3.67-.3-7.35-.51-11-.86l-2.86-.27.84.07a802.79,802.79,0,0,0,98.22.44l6.12-.34c2-.1,4.08-.21,6.12-.39l3.48-.27,8.74-.68,6.11-.48,6.1-.6,12.18-1.24c4.07-.38,8.12-1,12.17-1.47l12.15-1.53,12.11-1.82,6-.93,3-.46,3-.54,12-2.13c2-.36,4-.69,6-1.08l6-1.21,12-2.42c4-.83,8-1.78,11.93-2.67,15.9-3.61,31.62-7.91,47.21-12.56C736.87,534.25,722.74,537.34,708.48,539.81ZM480.55,438.47c.78-.27,1.57-.54,2.36-.79a195.64,195.64,0,0,1,20.38-5.41l3-.59Q515,430,523.9,429a236.37,236.37,0,0,1,26.73-1.55,195.14,195.14,0,0,1,23.72,1.44A97.51,97.51,0,0,1,585.79,431l.94.26h0c1.53.42,3,.88,4.5,1.43A36.68,36.68,0,0,1,596.3,435a21.5,21.5,0,0,1,4.25,2.87,9.26,9.26,0,0,1,2.52,3.41,1.46,1.46,0,0,1,0,.2,35.32,35.32,0,0,0-8.8-5.07c-1.17-.46-2.33-.9-3.52-1.3a93.87,93.87,0,0,0-18.11-4l-5.52-.68c-1.84-.22-3.68-.31-5.53-.48-3.69-.36-7.39-.39-11.1-.57l-1.39,0h0c-1.36,0-2.75,0-4.11,0h-2.78c-.93,0-1.86.06-2.78.09l-5.55.18-5.55.36-2.77.19c-.93.07-1.85.18-2.77.28l-4.29.44-1.24.13-5.51.76-2.75.38-2.74.48-5.48,1-5.44,1.16c-1.82.35-3.61.84-5.41,1.29-1.48.4-3,.73-4.45,1.16l-.94.29-5.33,1.6-2.68,1C477.87,439.45,479.2,438.94,480.55,438.47Z" transform="translate(-192.58 -329.82)"/><path class="a" d="M449.17,365.09a17.66,17.66,0,1,0-19-16.2A17.65,17.65,0,0,0,449.17,365.09Z" transform="translate(-192.58 -329.82)"/><circle class="a" cx="304.12" cy="412.6" r="9.08" transform="translate(-285.69 -241.15) rotate(-14.41)"/><path class="a" d="M370.69,472.86a19.43,19.43,0,1,0,20.91,17.82A19.41,19.41,0,0,0,370.69,472.86Z" transform="translate(-192.58 -329.82)"/><path class="a" d="M636.16,367.39a8.58,8.58,0,1,0-9.23-7.87A8.57,8.57,0,0,0,636.16,367.39Z" transform="translate(-192.58 -329.82)"/><path class="a" d="M613.3,424.39a5.28,5.28,0,1,0-5.68-4.84A5.28,5.28,0,0,0,613.3,424.39Z" transform="translate(-192.58 -329.82)"/><circle class="a" cx="526.79" cy="454.39" r="8.23" transform="translate(-327.56 -89.99) rotate(-22.82)"/></svg>