<svg id="Layer_1" data-name="Layer 1" xmlns="http://www.w3.org/2000/svg" viewBox="0 0 3194.03 2291.72"><defs><style>.cls-1{fill:#fa0;}.cls-2{fill:#ffb100;}.cls-3{fill:#ffb800;}.cls-4{fill:#ffbf00;}.cls-5{fill:#ffc500;}.cls-6{fill:#fc0;}.cls-7{fill:#ffd624;}.cls-8{fill:#ffe038;}.cls-9{fill:#ffeb49;}.cls-10{fill:#fff558;}.cls-11{fill:#ff6;}</style></defs><rect class="cls-1" width="3193.83" height="1596.92"/><path class="cls-2" d="M970.13,2021.87c-218.18-62.45-445.94-92.24-669.31-55.57A1055.74,1055.74,0,0,0,0,2062v229.74H1684.35c-231.36-95.1-460.71-195.08-693.86-264.12C983.7,2025.6,976.91,2023.88,970.13,2021.87Z"/><path class="cls-3" d="M3193.83,0H0V2062a1056.48,1056.48,0,0,1,300.82-96c223.37-36.38,451.13-6.87,669.31,55.58,6.78,2,13.57,4,20.36,5.72,233.15,68.76,462.5,169,693.86,264.13H3193.83Z"/><path class="cls-4" d="M955,1664.36c6.38,2.29,12.77,4.87,19,7.16,391.64,150.4,775.9,382.44,1184.71,505.9,347.73,104.85,697.65,83.65,1035.2-29.22V0H0V1646.89c104.4-50.42,212.59-79.35,321.58-88.52C535.77,1539.46,750,1587.59,955,1664.36Z"/><path class="cls-5" d="M0,0V1230.08c111-52.71,226.56-78.2,342.14-79.35,205.2-2.29,405.62,65,597.45,156.12,6,2.87,11.77,5.73,17.76,8.6,366.49,177.61,730,418.52,1122.63,550.3,372.68,125.18,751.15,98.54,1113.65-36.1V0Z"/><path class="cls-6" d="M362.9,743.09c196,17.19,383.06,100.84,561.51,206.54,5.59,3.15,11,6.59,16.57,9.74,341.34,205.11,684.08,454.05,1060.55,595,396.84,148.39,805.25,116.88,1192.3-42.4V0H0V811.27C117.77,755.12,240.74,732.49,362.9,743.09Z"/><path class="cls-7" d="M3193.83,0H0V390.45c124.36-59.87,254.91-78.78,383.66-55C570.5,370.11,744,472.09,909.24,592.12c5.19,3.73,10.18,7.45,15.37,11.18,316.19,232.32,638.17,489.56,998.68,639.39,420.18,174.74,859.94,140.36,1270.74-47.56V0Z"/><path class="cls-8" d="M908.05,247.22C1199.08,507,1500.3,771.45,1844.64,931,2261,1124.09,2705.57,1105.18,3118,915.83c25.55-11.75,50.7-24.06,76.05-37V0H575.09c111.78,61,217,145,318.78,234.9C898.66,238.91,903.26,243.21,908.05,247.22Z"/><path class="cls-9" d="M3193.83,0H994.08c235.74,245.79,486.06,471.24,772.11,619.34,382.86,198.23,798.46,214,1187.71,60.44,81.44-32.08,161.88-72.19,240.13-119.45V0Z"/><path class="cls-10" d="M2789.61,443.45C2883.83,413.08,2976.45,371,3066.28,318a1509.89,1509.89,0,0,0,127.55-84.51V0H1284.32c125.56,119.46,258.9,224,403.42,307.66C2036.87,510.19,2423.72,561.76,2789.61,443.45Z"/><path class="cls-11" d="M2625.53,207.4C2775.84,171.31,2922.76,101.12,3058.29,0H1615.08C1929.87,203.39,2285,289.33,2625.53,207.4Z"/></svg>