<svg id="Layer_1" data-name="Layer 1" xmlns="http://www.w3.org/2000/svg" viewBox="0 0 10579.73 8383.61"><defs><style>.cls-1{fill:#fa0;}.cls-2{fill:#ffb100;}.cls-3{fill:#ffb800;}.cls-4{fill:#ffbf00;}.cls-5{fill:#ffc500;}.cls-6{fill:#fc0;}.cls-7{fill:#ffd624;}.cls-8{fill:#ffe038;}.cls-9{fill:#ffeb49;}.cls-10{fill:#fff558;}.cls-11{fill:#ff6;}</style></defs><rect class="cls-1" width="3193.83" height="1596.92"/><path class="cls-2" d="M3213.59,7396.44C2490.87,7168,1736.4,7059,996.48,7193.14,657.93,7252.87,324,7367.1,0,7543.16v840.45H5579.48C4813.12,8035.69,4053.36,7670,3281,7417.4,3258.56,7410.07,3236.07,7403.78,3213.59,7396.44Z"/><path class="cls-3" d="M10579.73,0H0V7543.16c324-176.06,657.93-291.33,996.48-351.07,739.92-133.09,1494.39-25.15,2217.11,203.3,22.48,7.34,45,14.68,67.45,21,772.32,251.51,1532.08,618.3,2298.45,966.22h5000.24Z"/><path class="cls-4" d="M3163.34,6088.6c21.16,8.38,42.32,17.81,62.82,26.2C4523.5,6665,5796.37,7513.81,7150.57,7965.48c1151.87,383.55,2311,306,3429.16-106.89V0H0V6024.67c345.82-184.43,704.21-290.28,1065.25-323.81C1774.75,5631.69,2484.25,5807.75,3163.34,6088.6Z"/><path class="cls-5" d="M0,0V4499.9c367.65-192.82,750.5-286.09,1133.35-290.28,679.75-8.38,1343.63,237.89,1979.07,571.14,19.84,10.47,39,20.95,58.85,31.43,1214,649.73,2418.13,1531.06,3718.78,2013.12,1234.52,457.95,2488.22,360.49,3689-132V0Z"/><path class="cls-6" d="M1202.12,2718.39C1851.45,2781.26,2471,3087.27,3062.17,3474c18.51,11.53,36.37,24.1,54.88,35.63,1130.71,750.33,2266.05,1661,3513.13,2176.6,1314.54,542.83,2667.42,427.56,3949.55-155.1V0H0V2967.8C390.13,2762.4,797.45,2679.61,1202.12,2718.39Z"/><path class="cls-7" d="M10579.73,0H0V1428.36c412-219,844.39-288.19,1270.89-201.21,618.91,126.8,1193.53,499.87,1741,939,17.19,13.62,33.72,27.24,50.91,40.87,1047.39,849.89,2114,1791,3308.15,2339,1391.9,639.25,2848.59,513.5,4209.41-174V0Z"/><path class="cls-8" d="M3008,904.38C3972,1854.87,4969.83,2822.13,6110.45,3405.84c1379.34,706.32,2851.9,637.16,4218-55.54,84.64-43,168-88,251.93-135.18V0H1905c370.29,223.21,718.76,530.26,1056,859.32C2976.87,874,2992.08,889.71,3008,904.38Z"/><path class="cls-9" d="M10579.73,0H3292.94C4073.86,899.14,4903,1723.88,5850.59,2265.67c1268.25,725.18,2644.93,782.82,3934.34,221.12,269.78-117.37,536.26-264.08,795.46-437V0Z"/><path class="cls-10" d="M9240.73,1622.23c312.1-111.08,618.92-265.13,916.47-459,143.49-93.27,284.33-197,422.53-309.15V0H4254.37C4670.29,437,5112,819.5,5590.73,1125.5,6747.22,1866.4,8028.69,2055,9240.73,1622.23Z"/><path class="cls-11" d="M8697.2,758.72c497.91-132,984.58-388.79,1433.55-758.72H5350C6392.8,744.05,7569.14,1058.43,8697.2,758.72Z"/></svg>