<svg width="512" height="512" viewBox="0 0 512 512" fill="none" xmlns="http://www.w3.org/2000/svg">
<g id="solar-panel 1">
<g id="SolarPanel">
<path id="BasePole" d="M280.003 352.004H232.003V424.005H280.003V352.004Z" fill="#5D5360"/>
<path id="Vector" d="M280.003 424.001H248.003V392.001C248.003 383.164 255.166 376.001 264.003 376.001H280.003V424.001Z" fill="#6F6571"/>
<path id="Background" d="M511.56 322.743L471.56 82.741C468.99 67.249 455.716 55.999 439.997 55.999H72.001C56.298 55.999 43.024 67.241 40.438 82.741L0.437995 322.743C-1.109 332.04 1.493 341.493 7.586 348.688C13.68 355.876 22.578 360.001 32 360.001H479.996C489.426 360.001 498.332 355.876 504.418 348.681C510.513 341.486 513.115 332.033 511.56 322.743Z" fill="#DBD9DC"/>
<path id="Vector_2" d="M224.002 448.002V432.002C224.002 427.584 227.584 424.002 232.002 424.002H192.002C187.584 424.002 184.002 427.584 184.002 432.002V448.002C184.002 452.42 187.584 456.002 192.002 456.002H232.002C227.584 456.002 224.002 452.42 224.002 448.002Z" fill="#9C969E"/>
<path id="Vector_3" d="M320.003 456.002H192.002C187.584 456.002 184.002 452.42 184.002 448.002V432.002C184.002 427.584 187.584 424.002 192.002 424.002H320.003C324.421 424.002 328.003 427.584 328.003 432.002V448.002C328.003 452.421 324.422 456.002 320.003 456.002Z" fill="#AEA8AF"/>
</g>
<g id="Panels">
<path id="Vector_4" d="M41.224 215.999H122.77C127.454 215.999 131.136 220.005 130.742 224.673L127.36 264.673C127.01 268.815 123.545 271.999 119.388 271.999H34.557C29.613 271.999 25.853 267.56 26.666 262.684L33.333 222.684C33.976 218.827 37.314 215.999 41.224 215.999Z" fill="#5A78BE"/>
<path id="Vector_5" d="M53.224 143.999H128.858C133.542 143.999 137.224 148.005 136.83 152.673L133.448 192.673C133.098 196.815 129.633 199.999 125.476 199.999H46.557C41.613 199.999 37.853 195.56 38.666 190.684L45.333 150.684C45.976 146.827 49.314 143.999 53.224 143.999Z" fill="#5A78BE"/>
<path id="Vector_6" d="M465.44 199.999H386.526C382.369 199.999 378.905 196.815 378.554 192.673L375.173 152.673C374.778 148.006 378.46 143.999 383.145 143.999H458.774C462.685 143.999 466.022 146.826 466.665 150.684L473.331 190.684C474.144 195.56 470.384 199.999 465.44 199.999Z" fill="#5A78BE"/>
<path id="Vector_7" d="M354.417 199.999H272.002C267.584 199.999 264.002 196.417 264.002 191.999V151.999C264.002 147.581 267.584 143.999 272.002 143.999H351.036C355.193 143.999 358.657 147.183 359.008 151.325L362.389 191.325C362.784 195.993 359.101 199.999 354.417 199.999Z" fill="#5A78BE"/>
<path id="Vector_8" d="M264.003 119.999V79.999C264.003 75.581 267.585 71.999 272.003 71.999H344.951C349.108 71.999 352.572 75.183 352.923 79.325L356.304 119.325C356.699 123.992 353.017 127.999 348.332 127.999H272.003C267.585 127.999 264.003 124.418 264.003 119.999Z" fill="#5A78BE"/>
<path id="Vector_9" d="M240.002 127.999H163.672C158.988 127.999 155.306 123.993 155.7 119.325L159.082 79.325C159.432 75.183 162.897 71.999 167.054 71.999H240.002C244.42 71.999 248.002 75.581 248.002 79.999V119.999C248.002 124.418 244.421 127.999 240.002 127.999Z" fill="#5A78BE"/>
<path id="Vector_10" d="M248.002 151.999V191.999C248.002 196.417 244.42 199.999 240.002 199.999H157.584C152.9 199.999 149.218 195.992 149.612 191.325L152.994 151.325C153.344 147.183 156.809 143.999 160.966 143.999H240.002C244.421 143.999 248.002 147.581 248.002 151.999Z" fill="#5A78BE"/>
<path id="Vector_11" d="M154.878 215.999H240.002C244.42 215.999 248.002 219.581 248.002 223.999V263.999C248.002 268.417 244.42 271.999 240.002 271.999H151.496C146.812 271.999 143.13 267.992 143.524 263.325L146.906 223.325C147.257 219.183 150.721 215.999 154.878 215.999Z" fill="#5A78BE"/>
<path id="Vector_12" d="M248.002 296V336C248.002 340.418 244.42 344 240.002 344H145.408C140.724 344 137.042 339.993 137.436 335.326L140.818 295.326C141.168 291.184 144.633 288 148.79 288H240.002C244.421 288 248.002 291.582 248.002 296Z" fill="#5A78BE"/>
<path id="Vector_13" d="M272.003 288H363.209C367.366 288 370.83 291.184 371.181 295.326L374.562 335.326C374.957 339.993 371.275 344 366.59 344H272.003C267.585 344 264.003 340.418 264.003 336V296C264.003 291.582 267.585 288 272.003 288Z" fill="#5A78BE"/>
<path id="Vector_14" d="M264.003 264V224C264.003 219.582 267.585 216 272.003 216H357.123C361.28 216 364.744 219.184 365.095 223.326L368.476 263.326C368.871 267.993 365.189 272 360.504 272H272.003C267.585 272 264.003 268.419 264.003 264Z" fill="#5A78BE"/>
<path id="Vector_15" d="M389.231 215.999H470.773C474.684 215.999 478.021 218.826 478.664 222.684L485.33 262.684C486.143 267.56 482.382 271.999 477.439 271.999H392.611C388.454 271.999 384.99 268.815 384.639 264.673L381.258 224.673C380.865 220.006 384.547 215.999 389.231 215.999Z" fill="#5A78BE"/>
<path id="Vector_16" d="M454.664 78.683L461.331 118.683C462.144 123.559 458.383 127.998 453.44 127.998H380.44C376.283 127.998 372.819 124.814 372.468 120.672L369.087 80.672C368.692 76.005 372.374 71.998 377.059 71.998H446.774C450.684 71.998 454.021 74.826 454.664 78.683Z" fill="#5A78BE"/>
<path id="Vector_17" d="M57.334 78.683C57.977 74.825 61.314 71.998 65.225 71.998H134.947C139.631 71.998 143.313 76.004 142.919 80.672L139.537 120.672C139.187 124.814 135.722 127.998 131.565 127.998H58.558C53.614 127.998 49.854 123.559 50.667 118.683L57.334 78.683Z" fill="#5A78BE"/>
<path id="Vector_18" d="M19.797 338.345C16.75 334.743 15.445 330.017 16.219 325.368L21.333 294.686C21.976 290.828 25.313 288.001 29.224 288.001H116.682C121.366 288.001 125.048 292.008 124.654 296.675L121.272 336.675C120.922 340.817 117.457 344.001 113.3 344.001H32C27.29 344.001 22.844 341.939 19.797 338.345Z" fill="#5A78BE"/>
<path id="Vector_19" d="M492.209 338.337C489.162 341.939 484.717 344.001 479.998 344.001H398.698C394.541 344.001 391.077 340.817 390.726 336.675L387.345 296.675C386.95 292.008 390.632 288.001 395.317 288.001H482.773C486.684 288.001 490.021 290.828 490.664 294.686L495.779 325.376C496.552 330.017 495.255 334.744 492.209 338.337Z" fill="#5A78BE"/>
</g>
</g>
</svg>
