<svg id="Capa_1" data-name="Capa 1" xmlns="http://www.w3.org/2000/svg" viewBox="0 0 38.99 35.06"><defs><style>.cls-1{fill:#003b60;}.cls-2{fill:#022e44;}.cls-3{fill:#0d527c;}.cls-4{fill:#dfe7f4;}.cls-5{fill:#c0ccdd;}.cls-6{fill:#fabe2c;}.cls-7{fill:#ff9100;}</style></defs><path class="cls-1" d="M34.46,1.14V6.43a1.15,1.15,0,0,1-1.15,1.14H1.14A1.14,1.14,0,0,1,0,6.43V5.75A5.74,5.74,0,0,1,5.75,0H33.31A1.15,1.15,0,0,1,34.46,1.14Z"/><path class="cls-2" d="M34.46,1.14V6.43a1.15,1.15,0,0,1-1.15,1.14H18.66V0H33.31A1.15,1.15,0,0,1,34.46,1.14Z"/><path class="cls-3" d="M39,9.93l-.64,1.25.64,1v16l-.7,1.18.7,1.1v3.43a1.14,1.14,0,0,1-1.14,1.14H5.79A5.71,5.71,0,0,1,2,33.64c-.35-.3-.13-1.28-.13-1.28S.73,32.1.59,31.82A5.73,5.73,0,0,1,0,29.27V6.43A1.14,1.14,0,0,1,1.14,5.29H37.85A1.14,1.14,0,0,1,39,6.43Z"/><path class="cls-1" d="M39,9.93l-.64,1.25.64,1v16l-.7,1.18.7,1.1v3.43a1.14,1.14,0,0,1-1.14,1.14H18.66V5.29H37.85A1.14,1.14,0,0,1,39,6.43Z"/><path class="cls-2" d="M39,14.5V25.92H29.55A3.51,3.51,0,0,1,26,22.42V18a3.51,3.51,0,0,1,3.51-3.51Z"/><circle class="cls-4" cx="30.23" cy="20.21" r="1.14"/><path class="cls-5" d="M39,28.21v2.28l-8.88,0a10.34,10.34,0,0,1-2.22-.24l-7.24-1.56a1.15,1.15,0,1,1,.48-2.24L28.24,28a10.62,10.62,0,0,0,2.25.24Z"/><path class="cls-5" d="M39,9.93v2.29H26.54L21.18,16a1.14,1.14,0,1,1-1.3-1.87l5.65-3.95a1.17,1.17,0,0,1,.65-.21Z"/><path class="cls-6" d="M22.07,16a3.43,3.43,0,1,1-3.1-3.1,3.43,3.43,0,0,1,3.1,3.1Z"/><path class="cls-6" d="M22.07,26.76A3.43,3.43,0,1,1,19,23.65,3.43,3.43,0,0,1,22.07,26.76Z"/><path class="cls-4" d="M9.9,15.6v9.69a1.14,1.14,0,0,1-.33.81L2,33.64A5.58,5.58,0,0,1,.59,31.82l7-7V15.57a1.14,1.14,0,0,1,1.19-1.14A1.16,1.16,0,0,1,9.9,15.6Z"/><path class="cls-7" d="M22.08,27.07a3.42,3.42,0,0,1-3.42,3.42V23.64A3.43,3.43,0,0,1,22.08,27.07Z"/><path class="cls-7" d="M18.66,19.76V12.9a3.43,3.43,0,0,1,0,6.86Z"/><path class="cls-6" d="M12.17,13a3.43,3.43,0,1,1-3.1-3.1,3.43,3.43,0,0,1,3.1,3.1Z"/></svg>